<?xml version="1.0" encoding="utf-8"?>
<!-- Generator: Adobe Illustrator 15.1.0, SVG Export Plug-In  -->
<!DOCTYPE svg PUBLIC "-//W3C//DTD SVG 1.1//EN" "http://www.w3.org/Graphics/SVG/1.1/DTD/svg11.dtd" [
	<!ENTITY ns_flows "http://ns.adobe.com/Flows/1.0/">
]>
<svg version="1.1"
	 xmlns="http://www.w3.org/2000/svg" xmlns:xlink="http://www.w3.org/1999/xlink" xmlns:a="http://ns.adobe.com/AdobeSVGViewerExtensions/3.0/"
	 x="0px" y="0px" width="164px" height="209px" viewBox="-0.103 0 164 209" enable-background="new -0.103 0 164 209"
	 xml:space="preserve">
<defs>
</defs>
<path fill="none" stroke="#FFFFFF" stroke-width="5.9867" d="M155.918,104.333c0,51.157-34.189,92.634-76.363,92.634
	c-42.177,0-76.367-41.477-76.367-92.634c0-51.161,34.19-92.635,76.367-92.635C121.729,11.698,155.918,53.172,155.918,104.333z"/>
<line fill="none" stroke="#FFFFFF" stroke-width="5.9867" x1="24.6" y1="40.018" x2="132.842" y2="37.692"/>
<line fill="none" stroke="#FFFFFF" stroke-width="5.9867" x1="46.874" y1="20.584" x2="54.305" y2="62.465"/>
<line fill="none" stroke="#FFFFFF" stroke-width="5.9867" x1="109.665" y1="19.18" x2="99.318" y2="62.465"/>
<line fill="none" stroke="#FFFFFF" stroke-width="6.4938" x1="34.195" y1="62.465" x2="70.838" y2="62.465"/>
<line fill="none" stroke="#FFFFFF" stroke-width="5.9867" x1="36.949" y1="60.735" x2="28.732" y2="119.387"/>
<line fill="none" stroke="#FFFFFF" stroke-width="5.9867" x1="34.195" y1="78.475" x2="68.092" y2="78.475"/>
<line fill="none" stroke="#FFFFFF" stroke-width="5.9867" x1="32.84" y1="100.654" x2="68.092" y2="100.654"/>
<line fill="none" stroke="#FFFFFF" stroke-width="5.9867" x1="68.092" y1="60.735" x2="68.092" y2="119.387"/>
<line fill="none" stroke="#FFFFFF" stroke-width="5.9867" x1="84.043" y1="62.465" x2="126.418" y2="62.465"/>
<line fill="none" stroke="#FFFFFF" stroke-width="5.9867" x1="81.553" y1="78.475" x2="131.477" y2="78.475"/>
<line fill="none" stroke="#FFFFFF" stroke-width="5.9867" x1="106.515" y1="55.017" x2="79.555" y2="119.387"/>
<line fill="none" stroke="#FFFFFF" stroke-width="5.9867" x1="103.281" y1="62.465" x2="136.771" y2="119.387"/>
<line fill="none" stroke="#FFFFFF" stroke-width="5.9867" x1="106.515" y1="79.157" x2="106.515" y2="119.992"/>
<line fill="none" stroke="#FFFFFF" stroke-width="5.9867" x1="105.515" y1="107.373" x2="79.555" y2="119.387"/>
<line fill="none" stroke="#FFFFFF" stroke-width="5.9867" x1="106.117" y1="97.083" x2="92.52" y2="91.342"/>
<line fill="none" stroke="#FFFFFF" stroke-width="5.9867" x1="106.664" y1="96.079" x2="121.043" y2="92.652"/>
<line fill="none" stroke="#FFFFFF" stroke-width="5.9867" x1="106.515" y1="100.654" x2="132.064" y2="111.399"/>
<line fill="none" stroke="#FFFFFF" stroke-width="5.9867" x1="3.188" y1="119.387" x2="154.613" y2="119.387"/>
<line fill="none" stroke="#FFFFFF" stroke-width="5.9867" x1="56.654" y1="118.713" x2="39.324" y2="181.711"/>
<line fill="none" stroke="#FFFFFF" stroke-width="5.9867" x1="106.515" y1="119.992" x2="108.156" y2="190.246"/>
<line fill="none" stroke="#FFFFFF" stroke-width="5.9867" x1="50.466" y1="141.6" x2="107.85" y2="141.6"/>
<line fill="none" stroke="#FFFFFF" stroke-width="5.9867" x1="44.9" y1="161.641" x2="107.461" y2="161.641"/>
<rect id="_x3C_スライス_x3E__4_" fill="none" width="164" height="209"/>
</svg>
