<?xml version="1.0" encoding="utf-8"?>
<!-- Generator: Adobe Illustrator 15.1.0, SVG Export Plug-In  -->
<!DOCTYPE svg PUBLIC "-//W3C//DTD SVG 1.1//EN" "http://www.w3.org/Graphics/SVG/1.1/DTD/svg11.dtd" [
	<!ENTITY ns_flows "http://ns.adobe.com/Flows/1.0/">
]>
<svg version="1.1"
	 xmlns="http://www.w3.org/2000/svg" xmlns:xlink="http://www.w3.org/1999/xlink" xmlns:a="http://ns.adobe.com/AdobeSVGViewerExtensions/3.0/"
	 x="0px" y="0px" width="283px" height="283px" viewBox="-48.904 -23.019 283 283" enable-background="new -48.904 -23.019 283 283"
	 xml:space="preserve">
<defs>
</defs>
<polygon fill="#C4A76A" points="42.992,1.333 71.328,1.802 114.322,11.843 185.651,17.246 173.926,103.697 163.178,139.292 
	153.406,181.744 114.322,171.847 77.19,165.362 0,155.197 14.656,81.627 28.336,67.907 28.336,32.045 "/>
<polygon fill="#B59A62" points="28.336,33.136 65.466,36.868 97.403,88.865 23.133,73.124 "/>
<polygon fill="#BFA368" points="162.439,142.496 127.024,137.706 116.276,171.327 152.429,180.77 "/>
<polygon fill="#B59A62" points="97.403,88.865 75.727,165.133 114.322,171.974 127.024,133.379 "/>
<polygon fill="#E0BD77" points="97.403,88.865 172.948,102.11 162.439,142.498 127.024,136.31 "/>
<polygon fill="#E0BD77" points="43.97,1.333 64.49,37.131 28.336,33.71 "/>
<polygon fill="#BFA368" points="43.97,1.333 69.863,1.333 64.49,37.131 "/>
<path fill="#E0BD77" d="M111.207,11.115c-4.601,25.918-9.203,51.835-13.804,77.75L64.49,37.13L68.396,0
	C82.669,3.707,96.938,7.411,111.207,11.115"/>
<g>
	<defs>
		<rect id="SVGID_7_" x="21.771" y="19.979" width="146.089" height="141.967"/>
	</defs>
	<clipPath id="SVGID_8_">
		<use xlink:href="#SVGID_7_"  overflow="visible"/>
	</clipPath>
	<polygon clip-path="url(#SVGID_8_)" fill="#33A761" points="55.602,19.979 74.273,21.901 109.279,27.677 167.86,32.503 
		158.634,100.531 149.595,131.063 142.486,161.946 111.731,154.157 81.36,148.874 21.771,141.056 33.305,83.163 44.987,73.569 
		44.068,45.459 	"/>
</g>
<g>
	<defs>
		<rect id="SVGID_6_" x="31.001" y="88.75" width="105.08" height="58.762"/>
	</defs>
	<clipPath id="SVGID_9_">
		<use xlink:href="#SVGID_6_"  overflow="visible"/>
	</clipPath>
	<path clip-path="url(#SVGID_9_)" fill="#886138" d="M46.423,106.591c0.248,1.359,0.167,1.676-0.246,0.947
		c1.683,1.685,3.367,3.368,5.05,5.05c3.536-4.046,7.439-7.402,11.912-10.398c-1.442-1.872-2.885-3.739-4.326-5.609
		c-2.785,2.828-5.417,5.678-7.788,8.861c-2.555,3.437,2.733,6.812,5.606,4.329c5.69-4.92,11.464-9.732,16.878-14.956
		c3.316-3.196-1.732-8.232-5.049-5.048c-9.771,9.375-18.784,19.439-27.542,29.76c-2.464,2.901,0.708,7.967,4.324,5.605
		c8.723-5.69,16.637-12.903,26.465-16.688c-1.345-1.75-2.69-3.497-4.033-5.247c-9.007,13.422-23.834,21.54-35.551,32.291
		c-3.395,3.114,1.663,8.146,5.051,5.051c16.955-15.504,35.188-29.532,52.063-45.126c-1.87-1.444-3.739-2.886-5.608-4.326
		c-5.39,7.892-11.907,14.841-18.091,22.099c1.684,1.685,3.366,3.368,5.049,5.05c4.486-5.447,10.077-9.652,15.293-14.352
		c-1.682-1.683-3.365-3.368-5.048-5.051c-9.632,11.168-21.535,19.935-32.136,30.109c1.684,1.684,3.365,3.368,5.049,5.052
		c7.802-7.782,17.603-13.087,25.377-20.904c3.305-3.324-1.561-7.909-5.05-5.049c-5.293,4.339-10.669,8.473-15.209,13.627
		c-3.046,3.457,1.589,8.091,5.049,5.048c8.331-7.327,16.103-15.267,24.664-22.336c-1.99-1.158-3.979-2.316-5.968-3.473
		c-1.66,5.302-6.216,8.278-10.639,11.192c1.628,1.627,3.256,3.258,4.885,4.885c4.262-7.082,10.488-18.236,18.854-20.988
		c-1.345-1.748-2.688-3.495-4.032-5.242c-4.232,7.273-10.671,12.483-17.443,17.303c1.441,1.87,2.884,3.739,4.326,5.606
		c4.984-4.601,10.477-8.511,15.927-12.528c-1.441-1.87-2.885-3.737-4.326-5.607c-12.41,11.051-30.593,20.513-33.814,38.357
		c-0.43,2.384,1.609,5.47,4.392,4.392c17.462-6.768,28.447-22.285,43.992-31.985c-1.629-1.629-3.258-3.255-4.886-4.886
		c-2.264,4.401-6.39,7.185-9.666,10.778c1.867,1.443,3.736,2.885,5.606,4.326c4.361-8.25,11.148-17.126,19.963-20.85
		c-1.749-1.346-3.496-2.688-5.245-4.033c-2.898,9.485-10.825,16.469-14.558,25.648c-1.477,3.631,3.57,5.51,5.967,3.472
		c6.24-5.302,11.78-11.394,18.312-16.354c-1.442-1.87-2.885-3.739-4.326-5.609c-12.234,12.65-25.915,23.848-37.246,37.366
		c-2.4,2.865,0.78,8.141,4.327,5.608c7.395-5.282,13.5-11.919,20.241-17.96c3.486-3.129-1.537-7.848-5.048-5.05
		c-8.879,7.074-16.334,17.687-27.272,21.678c1.463,1.466,2.928,2.927,4.392,4.393c2.589-13.097,16.675-21.74,25.426-30.749
		c3.275-3.369-1.544-7.874-5.049-5.048c-6.02,4.856-11.791,10.008-18.059,14.552c-3.675,2.665-0.159,8.846,3.604,6.164
		c9.042-6.438,19.382-11.631,30.306-13.858c-1.345-1.749-2.689-3.497-4.032-5.245c-1.864,3.933-4.349,7.042-7.482,10.023
		c1.869,1.44,3.738,2.882,5.608,4.326c4.443-6.902,10.348-12.542,17.263-16.936l-4.884-4.884c-0.645,1.283-1.266,2.579-1.863,3.885
		c-1.365,2.917,1.661,7.108,4.885,4.884c5.294-3.648,9.512-8.344,14.065-12.832l-5.606-4.326
		c-7.785,14.528-24.402,20.36-35.711,31.573c-2.729,2.705,0.156,6.511,3.474,5.967c7.871-1.29,13.487-8.338,19.776-12.624
		c-1.628-1.63-3.257-3.257-4.885-4.886c-4.027,5.321-8.441,10.311-12.084,15.915c-1.813,2.789,1.17,5.831,4.032,5.243
		c10.446-2.141,16.136-11.557,24.954-16.59l-5.372-3.082c0.772,10.208-10.495,15.312-16.721,21.594
		c-3.239,3.27,1.768,8.277,5.049,5.049c4.344-4.273,8.116-9.054,12.892-12.872c3.589-2.87-1.493-7.894-5.049-5.05
		c-4.776,3.819-8.547,8.602-12.892,12.873l5.049,5.049c7.874-7.946,19.789-13.721,18.812-26.643c-0.2-2.658-2.888-4.499-5.372-3.082
		c-8.104,4.623-13.793,13.934-23.248,15.87c1.345,1.749,2.688,3.496,4.032,5.245c3.636-5.594,8.061-10.602,12.084-15.914
		c2.163-2.857-2.045-6.821-4.886-4.885c-5.699,3.884-11.042,10.755-18.069,11.904c1.158,1.99,2.316,3.98,3.474,5.968
		c11.857-11.753,28.615-17.692,36.826-33.019c1.889-3.529-2.655-7.235-5.609-4.325c-4.1,4.042-7.847,8.426-12.618,11.716
		c1.628,1.628,3.257,3.255,4.883,4.886c0.6-1.307,1.22-2.604,1.864-3.888c1.473-3.004-1.662-6.932-4.885-4.886
		c-7.965,5.06-14.712,11.555-19.825,19.497c-2.244,3.488,2.73,7.065,5.606,4.327c3.602-3.427,6.463-6.962,8.6-11.468
		c1.359-2.866-0.867-5.891-4.032-5.244c-11.467,2.337-22.521,7.821-32.012,14.58c1.203,2.054,2.404,4.111,3.604,6.164
		c6.763-4.902,13.008-10.428,19.503-15.667c-1.682-1.682-3.365-3.365-5.049-5.048c-9.728,10.011-24.371,19.27-27.262,33.897
		c-0.481,2.437,1.633,5.4,4.392,4.394c12.361-4.512,20.416-15.543,30.422-23.515c-1.683-1.686-3.366-3.368-5.048-5.05
		c-6.271,5.619-11.922,11.932-18.799,16.845c1.443,1.868,2.886,3.738,4.328,5.605c11.328-13.516,25.011-24.714,37.244-37.365
		c2.697-2.789-0.985-8.145-4.326-5.606c-7.03,5.34-13.041,11.767-19.756,17.473c1.988,1.156,3.978,2.314,5.968,3.474
		c3.757-9.244,11.599-15.966,14.557-25.648c1.01-3.302-2.593-5.152-5.243-4.033c-9.847,4.162-17.652,14.191-22.525,23.414
		c-1.821,3.449,2.765,7.445,5.608,4.326c3.721-4.081,8.211-7.221,10.783-12.222c1.557-3.029-1.697-6.875-4.886-4.884
		c-14.863,9.277-25.675,24.826-42.284,31.265c1.464,1.466,2.929,2.927,4.393,4.392c2.926-16.226,20.657-25.126,31.976-35.208
		c2.979-2.651-1.033-8.035-4.326-5.608c-5.938,4.379-11.941,8.633-17.371,13.648c-2.923,2.699,0.98,7.987,4.326,5.608
		c7.776-5.534,15.142-11.51,20.006-19.867c1.506-2.591-1.011-6.239-4.032-5.247c-10.533,3.466-17.7,15.266-23.12,24.27
		c-1.792,2.973,1.855,6.878,4.885,4.885c6.122-4.033,11.653-8.213,13.921-15.461c1.149-3.683-3.42-5.579-5.969-3.475
		c-8.561,7.069-16.331,15.01-24.663,22.338c1.684,1.682,3.365,3.365,5.049,5.048c4.538-5.153,9.92-9.291,15.21-13.626
		c-1.685-1.684-3.367-3.367-5.05-5.049c-7.77,7.813-17.57,13.118-25.376,20.901c-3.26,3.256,1.734,8.232,5.049,5.052
		c10.602-10.177,22.504-18.944,32.135-30.11c2.993-3.47-1.606-8.15-5.048-5.051c-5.222,4.704-10.806,8.905-15.294,14.354
		c-2.887,3.506,2.048,8.571,5.049,5.05c6.582-7.726,13.472-15.146,19.209-23.547c2.364-3.464-2.736-6.98-5.608-4.328
		c-16.875,15.596-35.105,29.627-52.063,45.127c1.684,1.684,3.365,3.368,5.051,5.051c12.257-11.247,27.233-19.684,36.665-33.738
		c1.654-2.463-1.132-6.362-4.031-5.242c-10.519,4.053-18.833,11.317-28.169,17.408c1.442,1.872,2.885,3.739,4.328,5.609
		c8.759-10.32,17.771-20.384,27.542-29.76c-1.682-1.683-3.365-3.367-5.049-5.048c-5.415,5.224-11.186,10.036-16.877,14.953
		c1.868,1.442,3.737,2.885,5.608,4.327c2-2.69,4.322-5.036,6.669-7.418c2.766-2.803-0.865-7.923-4.324-5.605
		c-4.944,3.313-9.435,7.025-13.359,11.514c-3.056,3.496,1.528,7.975,5.05,5.05c2.295-1.906,2.336-3.093,2.336-5.997
		C53.565,101.997,46.425,101.988,46.423,106.591"/>
</g>
<g>
	<defs>
		<rect id="SVGID_5_" x="77.79" y="53.485" width="86.717" height="48.492"/>
	</defs>
	<clipPath id="SVGID_10_">
		<use xlink:href="#SVGID_5_"  overflow="visible"/>
	</clipPath>
	<path clip-path="url(#SVGID_10_)" fill="#036EB8" d="M90.521,68.207c0.203,1.123,0.134,1.382-0.204,0.781l4.166,4.167
		c2.935-3.324,6.151-6.102,9.829-8.581l-3.568-4.627c-2.309,2.34-4.447,4.696-6.427,7.312c-2.131,2.818,2.258,5.616,4.628,3.57
		c4.699-4.056,9.444-8.039,13.925-12.341c-1.389-1.386-2.776-2.776-4.166-4.164c-8.057,7.743-15.497,16.043-22.728,24.556
		c-2.031,2.391,0.588,6.58,3.57,4.625c7.193-4.712,13.738-10.606,21.835-13.771c-1.108-1.442-2.217-2.885-3.327-4.327
		c-7.49,11.041-19.634,17.787-29.333,26.644c-2.807,2.563,1.369,6.719,4.166,4.167c14.002-12.78,29.024-24.38,42.959-37.236
		c-1.542-1.189-3.084-2.379-4.627-3.57c-4.466,6.499-9.818,12.252-14.93,18.236c1.391,1.389,2.78,2.778,4.166,4.167
		c3.724-4.486,8.305-7.969,12.621-11.843c-1.389-1.39-2.776-2.778-4.165-4.167c-7.975,9.193-17.753,16.459-26.517,24.845
		c1.39,1.388,2.778,2.777,4.166,4.167c6.46-6.394,14.5-10.825,20.938-17.249c2.739-2.733-1.287-6.52-4.165-4.167
		c-4.387,3.585-8.765,7.008-12.551,11.245c-2.535,2.838,1.319,6.678,4.166,4.166c6.868-6.054,13.296-12.586,20.352-18.43
		l-4.925-2.866c-1.412,4.358-5.14,6.833-8.778,9.236c1.344,1.343,2.688,2.686,4.03,4.029c3.607-5.969,8.569-14.91,15.557-17.317
		c-1.108-1.441-2.217-2.884-3.326-4.326c-3.558,6.016-8.772,10.267-14.394,14.278c1.19,1.541,2.381,3.083,3.57,4.626
		c4.128-3.775,8.641-7.026,13.142-10.338c-1.189-1.542-2.38-3.085-3.57-4.627c-10.323,9.148-25.104,16.928-27.901,31.652
		c-0.372,1.961,1.345,4.52,3.625,3.624c14.381-5.657,23.488-18.336,36.298-26.393c-1.343-1.343-2.688-2.688-4.03-4.031
		c-1.957,3.585-5.235,5.957-7.977,8.894c1.542,1.188,3.084,2.379,4.626,3.57c3.647-6.851,9.176-14.058,16.473-17.204
		c-1.443-1.11-2.886-2.22-4.328-3.328c-2.454,7.812-8.884,13.604-12.013,21.162c-1.237,2.99,2.956,4.543,4.924,2.867
		c5.143-4.385,9.729-9.391,15.109-13.497c-1.189-1.542-2.379-3.085-3.57-4.627c-10.11,10.425-21.358,19.699-30.731,30.833
		c-1.987,2.359,0.658,6.729,3.57,4.627c6.076-4.388,11.151-9.821,16.702-14.822c2.868-2.584-1.273-6.488-4.166-4.167
		c-7.322,5.877-13.497,14.514-22.504,17.889l3.625,3.625c2.268-10.832,13.681-17.901,20.979-25.371
		c2.709-2.774-1.276-6.499-4.166-4.167c-4.965,4.011-9.736,8.25-14.9,12.008c-3.024,2.201-0.145,7.291,2.974,5.087
		c7.514-5.311,15.963-9.542,25.006-11.436c-1.11-1.442-2.218-2.884-3.326-4.329c-1.575,3.241-3.566,5.764-6.175,8.27
		c1.543,1.191,3.085,2.381,4.628,3.57c3.741-5.735,8.491-10.275,14.243-13.973c-1.343-1.343-2.687-2.688-4.03-4.032
		c-0.531,1.06-1.043,2.131-1.536,3.208c-1.122,2.399,1.375,5.882,4.031,4.03c4.355-3.037,7.846-6.873,11.605-10.589
		c-1.542-1.189-3.085-2.38-4.627-3.57c-6.492,11.949-20.09,16.829-29.466,26.053c-2.234,2.199,0.116,5.426,2.867,4.923
		c6.502-1.188,11.103-6.818,16.317-10.415c-1.345-1.344-2.688-2.689-4.03-4.03c-3.333,4.385-6.95,8.516-9.972,13.129
		c-1.491,2.279,0.964,4.846,3.327,4.328c8.627-1.89,13.298-9.44,20.591-13.688c-1.478-0.848-2.956-1.696-4.433-2.543
		c0.494,8.401-8.606,12.647-13.798,17.819c-2.69,2.679,1.467,6.836,4.167,4.167c3.577-3.54,6.711-7.45,10.638-10.623
		c2.95-2.385-1.244-6.53-4.167-4.167c-3.927,3.174-7.06,7.085-10.638,10.623l4.167,4.167c6.614-6.591,16.149-11.31,15.521-21.986
		c-0.128-2.192-2.414-3.72-4.432-2.544c-6.686,3.894-11.387,11.387-19.183,13.095c1.108,1.442,2.217,2.884,3.326,4.329
		c3.015-4.606,6.645-8.755,9.971-13.132c1.784-2.349-1.691-5.646-4.03-4.032c-4.733,3.266-9.083,8.76-14.911,9.825
		c0.957,1.64,1.912,3.28,2.867,4.923c9.837-9.679,23.536-14.638,30.386-27.247c1.58-2.905-2.2-5.968-4.627-3.569
		c-3.381,3.344-6.487,6.931-10.414,9.667c1.345,1.344,2.688,2.688,4.032,4.03c0.492-1.078,1.004-2.145,1.535-3.205
		c1.212-2.471-1.373-5.739-4.03-4.033c-6.581,4.23-12.078,9.529-16.357,16.088c-1.867,2.86,2.264,5.843,4.626,3.57
		c2.954-2.84,5.291-5.749,7.095-9.463c1.144-2.353-0.731-4.871-3.326-4.327c-9.479,1.986-18.54,6.465-26.413,12.03
		c0.992,1.696,1.982,3.392,2.974,5.087c5.573-4.054,10.735-8.599,16.093-12.928c-1.39-1.389-2.777-2.778-4.166-4.167
		c-8.102,8.292-19.966,15.895-22.495,27.972c-0.419,1.997,1.366,4.47,3.623,3.625c10.177-3.813,16.846-12.779,25.104-19.405
		c-1.39-1.389-2.778-2.777-4.166-4.167c-5.166,4.655-9.854,9.818-15.511,13.9c1.19,1.542,2.38,3.086,3.57,4.629
		c9.373-11.133,20.622-20.409,30.732-30.833c2.229-2.299-0.821-6.725-3.569-4.627c-5.791,4.418-10.77,9.699-16.302,14.417
		c1.641,0.957,3.281,1.911,4.923,2.867c3.148-7.604,9.511-13.207,12.012-21.163c0.854-2.71-2.152-4.266-4.326-3.328
		c-8.147,3.514-14.511,11.666-18.586,19.319c-1.521,2.856,2.261,6.103,4.627,3.57c3.14-3.364,6.664-5.994,8.897-10.087
		c1.361-2.494-1.447-5.655-4.03-4.029c-12.246,7.701-21.211,20.417-34.891,25.798c1.208,1.208,2.416,2.417,3.622,3.625
		c2.544-13.378,16.988-20.723,26.388-29.051c2.464-2.183-0.855-6.625-3.57-4.626c-4.909,3.61-9.832,7.14-14.334,11.259
		c-2.425,2.217,0.816,6.592,3.57,4.627c6.429-4.588,12.438-9.513,16.505-16.393c1.25-2.111-0.844-5.184-3.326-4.329
		c-8.706,3.001-14.547,12.525-19.076,20.025c-1.481,2.453,1.533,5.678,4.03,4.032c5.103-3.37,9.542-6.756,11.486-12.758
		c0.982-3.038-2.839-4.594-4.925-2.867c-7.054,5.846-13.481,12.376-20.351,18.431c1.39,1.389,2.778,2.778,4.166,4.166
		c3.786-4.237,8.165-7.658,12.55-11.244c-1.389-1.389-2.777-2.777-4.165-4.167c-6.436,6.421-14.477,10.854-20.939,17.249
		c-2.702,2.673,1.427,6.788,4.166,4.167c8.764-8.387,18.541-15.652,26.516-24.845c2.479-2.859-1.324-6.719-4.165-4.167
		c-4.316,3.877-8.898,7.357-12.622,11.843c-2.395,2.888,1.69,7.068,4.166,4.167c5.441-6.371,11.099-12.511,15.852-19.428
		c1.961-2.855-2.26-5.756-4.628-3.57C107.744,67.669,92.724,79.271,78.721,92.05c1.388,1.388,2.778,2.777,4.166,4.167
		c10.146-9.267,22.412-16.278,30.255-27.838c1.373-2.025-0.941-5.259-3.326-4.328c-8.651,3.381-15.555,9.328-23.243,14.365
		c1.189,1.542,2.379,3.085,3.57,4.627c7.231-8.513,14.671-16.811,22.727-24.557c2.739-2.63-1.428-6.792-4.166-4.164
		c-4.482,4.299-9.227,8.284-13.927,12.339c1.543,1.189,3.085,2.379,4.628,3.569c1.684-2.225,3.559-4.144,5.505-6.12
		c2.277-2.313-0.72-6.549-3.57-4.626c-4.09,2.76-7.747,5.792-11.022,9.501c-2.538,2.877,1.267,6.576,4.166,4.167
		c1.894-1.572,1.928-2.554,1.928-4.948C96.414,64.417,90.521,64.409,90.521,68.207"/>
</g>
<g>
	<defs>
		<rect id="SVGID_4_" x="35.865" y="38.198" width="86.716" height="48.491"/>
	</defs>
	<clipPath id="SVGID_11_">
		<use xlink:href="#SVGID_4_"  overflow="visible"/>
	</clipPath>
	<path clip-path="url(#SVGID_11_)" fill="#00913A" d="M48.596,52.92c0.203,1.122,0.137,1.384-0.204,0.781
		c1.389,1.39,2.778,2.778,4.166,4.167c2.936-3.325,6.151-6.1,9.83-8.58c-1.19-1.545-2.379-3.088-3.569-4.63
		c-2.308,2.343-4.446,4.697-6.427,7.313c-2.131,2.818,2.258,5.615,4.626,3.57c4.701-4.056,9.445-8.039,13.927-12.34
		c-1.388-1.387-2.777-2.778-4.166-4.166c-8.056,7.743-15.497,16.042-22.727,24.555c-2.032,2.392,0.587,6.583,3.568,4.627
		c7.193-4.714,13.739-10.607,21.836-13.773c-1.107-1.44-2.218-2.884-3.327-4.326C58.64,61.162,46.495,67.907,36.796,76.764
		c-2.807,2.562,1.369,6.718,4.167,4.166c14-12.777,29.023-24.381,42.958-37.233c-1.542-1.191-3.085-2.382-4.627-3.57
		c-4.466,6.499-9.818,12.25-14.929,18.236l4.168,4.166c3.721-4.487,8.302-7.968,12.618-11.843c-1.389-1.391-2.776-2.778-4.167-4.167
		c-7.972,9.194-17.751,16.46-26.515,24.845c1.389,1.389,2.778,2.777,4.166,4.167c6.458-6.395,14.5-10.825,20.938-17.249
		c2.74-2.733-1.287-6.52-4.166-4.167c-4.386,3.584-8.764,7.007-12.55,11.244c-2.534,2.839,1.317,6.677,4.166,4.167
		c6.869-6.056,13.296-12.585,20.352-18.431c-1.642-0.954-3.283-1.911-4.925-2.865c-1.411,4.358-5.141,6.833-8.777,9.237
		c1.344,1.343,2.688,2.686,4.03,4.029c3.606-5.97,8.568-14.908,15.557-17.315c-1.109-1.442-2.219-2.886-3.327-4.328
		c-3.558,6.015-8.773,10.266-14.394,14.277c1.19,1.542,2.38,3.085,3.569,4.627c4.129-3.777,8.642-7.026,13.144-10.34
		c-1.191-1.54-2.381-3.082-3.57-4.626C74.359,52.937,59.578,60.716,56.78,75.442c-0.371,1.962,1.343,4.52,3.625,3.623
		c14.381-5.655,23.488-18.338,36.298-26.393c-1.344-1.344-2.687-2.688-4.031-4.03c-1.956,3.585-5.235,5.955-7.977,8.893
		c1.542,1.19,3.085,2.379,4.629,3.57c3.646-6.849,9.174-14.059,16.47-17.205c-1.441-1.11-2.884-2.218-4.327-3.326
		c-2.454,7.811-8.883,13.604-12.014,21.16c-1.236,2.992,2.957,4.545,4.925,2.868c5.144-4.385,9.73-9.39,15.109-13.496
		c-1.189-1.542-2.379-3.084-3.569-4.627C95.808,56.903,84.56,66.177,75.186,77.312c-1.986,2.357,0.658,6.728,3.57,4.625
		c6.077-4.387,11.151-9.819,16.701-14.821c2.869-2.584-1.271-6.488-4.167-4.166c-7.32,5.874-13.495,14.514-22.501,17.887
		c1.207,1.209,2.416,2.417,3.624,3.624c2.269-10.831,13.681-17.898,20.98-25.37c2.71-2.774-1.277-6.5-4.167-4.166
		c-4.964,4.011-9.737,8.249-14.9,12.006c-3.025,2.201-0.146,7.292,2.975,5.089c7.512-5.313,15.962-9.543,25.004-11.439
		c-1.109-1.442-2.217-2.884-3.326-4.326c-1.574,3.241-3.567,5.763-6.174,8.27c1.543,1.188,3.085,2.379,4.628,3.57
		c3.741-5.737,8.491-10.278,14.244-13.974c-1.345-1.344-2.688-2.688-4.03-4.03c-0.531,1.06-1.045,2.128-1.537,3.208
		c-1.123,2.397,1.375,5.88,4.03,4.031c4.355-3.041,7.848-6.873,11.606-10.591c-1.543-1.191-3.085-2.379-4.628-3.57
		c-6.49,11.949-20.089,16.83-29.464,26.054c-2.235,2.198,0.114,5.425,2.866,4.923c6.502-1.189,11.103-6.819,16.317-10.417
		c-1.344-1.345-2.688-2.686-4.031-4.031c-3.333,4.388-6.949,8.516-9.971,13.132c-1.491,2.276,0.963,4.845,3.327,4.326
		c8.627-1.888,13.298-9.44,20.59-13.689c-1.477-0.845-2.955-1.695-4.432-2.542c0.493,8.4-8.606,12.648-13.797,17.819
		c-2.692,2.681,1.466,6.836,4.165,4.167c3.579-3.54,6.711-7.45,10.639-10.623c2.949-2.383-1.244-6.531-4.167-4.167
		c-3.926,3.173-7.06,7.084-10.637,10.623c1.388,1.389,2.776,2.777,4.165,4.167c6.616-6.591,16.151-11.311,15.524-21.986
		c-0.13-2.192-2.416-3.72-4.434-2.544c-6.687,3.896-11.388,11.387-19.184,13.097c1.109,1.442,2.218,2.884,3.326,4.326
		c3.016-4.605,6.646-8.753,9.972-13.132c1.784-2.347-1.691-5.643-4.03-4.031c-4.733,3.267-9.083,8.758-14.911,9.824
		c0.956,1.642,1.912,3.283,2.867,4.923c9.836-9.677,23.537-14.635,30.386-27.246c1.58-2.906-2.2-5.969-4.626-3.57
		c-3.382,3.345-6.489,6.932-10.413,9.669c1.343,1.343,2.686,2.688,4.03,4.032c0.492-1.08,1.004-2.148,1.535-3.208
		c1.212-2.471-1.374-5.737-4.03-4.03c-6.58,4.229-12.079,9.527-16.357,16.085c-1.866,2.862,2.265,5.844,4.626,3.57
		c2.954-2.839,5.291-5.747,7.096-9.461c1.143-2.353-0.732-4.873-3.327-4.329c-9.479,1.987-18.541,6.468-26.413,12.031
		c0.99,1.697,1.981,3.392,2.975,5.089c5.571-4.056,10.734-8.602,16.093-12.93c-1.391-1.388-2.778-2.777-4.167-4.166
		c-8.102,8.29-19.966,15.892-22.495,27.97c-0.419,1.999,1.366,4.471,3.623,3.623c10.176-3.813,16.847-12.777,25.103-19.403
		L91.29,62.95c-5.164,4.654-9.852,9.817-15.508,13.899c1.188,1.542,2.379,3.085,3.57,4.627
		c9.373-11.132,20.621-20.406,30.731-30.833c2.23-2.298-0.821-6.725-3.57-4.625c-5.79,4.418-10.768,9.698-16.302,14.415
		c1.642,0.957,3.282,1.912,4.925,2.868c3.147-7.604,9.51-13.206,12.011-21.164c0.854-2.709-2.152-4.263-4.326-3.326
		c-8.147,3.515-14.51,11.665-18.585,19.318c-1.521,2.857,2.259,6.105,4.626,3.57c3.14-3.364,6.663-5.994,8.897-10.086
		c1.361-2.494-1.447-5.654-4.03-4.029c-12.248,7.701-21.211,20.419-34.892,25.799c1.209,1.208,2.416,2.416,3.626,3.622
		c2.541-13.375,16.984-20.723,26.385-29.05c2.464-2.183-0.855-6.626-3.57-4.627c-4.908,3.612-9.831,7.142-14.334,11.259
		c-2.426,2.22,0.815,6.594,3.57,4.629c6.429-4.59,12.437-9.513,16.505-16.393c1.25-2.11-0.842-5.184-3.324-4.327
		c-8.708,2.998-14.549,12.523-19.079,20.024c-1.48,2.452,1.536,5.677,4.03,4.03c5.104-3.369,9.542-6.754,11.486-12.756
		c0.983-3.038-2.838-4.596-4.924-2.866c-7.053,5.844-13.482,12.376-20.351,18.429l4.166,4.167c3.784-4.238,8.165-7.659,12.55-11.244
		c-1.388-1.389-2.778-2.776-4.166-4.167c-6.433,6.421-14.476,10.853-20.938,17.249c-2.703,2.675,1.427,6.789,4.166,4.167
		c8.765-8.387,18.541-15.653,26.516-24.845c2.479-2.859-1.325-6.718-4.167-4.167c-4.315,3.877-8.896,7.356-12.619,11.844
		c-2.396,2.887,1.69,7.065,4.168,4.166c5.438-6.372,11.095-12.511,15.848-19.429c1.963-2.856-2.258-5.757-4.627-3.57
		C65.82,52.385,50.799,63.985,36.796,76.764l4.167,4.166c10.146-9.266,22.413-16.275,30.253-27.837
		c1.375-2.025-0.941-5.26-3.327-4.329c-8.649,3.383-15.553,9.33-23.241,14.366c1.189,1.542,2.38,3.086,3.57,4.629
		c7.23-8.513,14.67-16.813,22.727-24.557c2.739-2.633-1.429-6.793-4.166-4.166c-4.48,4.3-9.227,8.283-13.927,12.338
		c1.544,1.191,3.085,2.382,4.628,3.57c1.683-2.224,3.559-4.142,5.506-6.119c2.275-2.313-0.722-6.549-3.57-4.626
		c-4.092,2.76-7.749,5.79-11.023,9.501c-2.535,2.877,1.267,6.577,4.166,4.167c1.894-1.573,1.929-2.552,1.929-4.948
		C54.489,49.129,48.598,49.124,48.596,52.92"/>
</g>
<path fill="#FFFFFF" d="M119.662,74.965c0,4.068-3.298,7.368-7.366,7.368c-4.069,0-7.367-3.3-7.367-7.368s3.298-7.368,7.367-7.368
	C116.364,67.597,119.662,70.897,119.662,74.965"/>
<path fill="#FFFFFF" d="M76.144,123.049c0,4.069-3.299,7.366-7.368,7.366c-4.068,0-7.366-3.297-7.366-7.366
	c0-4.07,3.298-7.367,7.366-7.367C72.845,115.682,76.144,118.979,76.144,123.049"/>
<path fill="none" stroke="#F7F8F8" stroke-width="1.4281" stroke-miterlimit="10" d="M111.862,77.32
	c-1.359,0.101-2.701,0.246-4.024,0.435"/>
<path fill="none" stroke="#F7F8F8" stroke-width="1.4281" stroke-miterlimit="10" stroke-dasharray="7.973,7.973" d="M100.04,79.398
	c-16.012,4.535-27.948,15.45-30.812,28.311"/>
<path fill="none" stroke="#F7F8F8" stroke-width="1.4281" stroke-miterlimit="10" d="M68.645,111.659c-0.1,1.334-0.101,2.683,0,4.04
	"/>
<path fill="none" stroke="#F7F8F8" stroke-width="1.4281" stroke-miterlimit="10" stroke-dasharray="8.0959,8.0959" d="
	M147.105,30.793c0,24.416-13.79,44.172-30.829,44.172"/>
<path fill="none" stroke="#F7F8F8" stroke-width="1.4281" stroke-miterlimit="10" stroke-dasharray="8.0959,8.0959" d="
	M68.775,130.415c0,9.794,3.108,17.72,6.951,17.72"/>
<g>
	<defs>
		<rect id="SVGID_3_" x="92.176" y="71.739" width="25.869" height="24.542"/>
	</defs>
	<clipPath id="SVGID_12_">
		<use xlink:href="#SVGID_3_"  overflow="visible"/>
	</clipPath>
	<path clip-path="url(#SVGID_12_)" fill="#595757" d="M108.083,71.739c1.301,0.386,2.679,0.754,4.132,1.093
		c2.065,0.481,4.017,0.837,5.83,1.102c-5.342,4.978-10.685,9.955-16.025,14.934l-3.68-3.021
		C101.588,81.145,104.836,76.442,108.083,71.739"/>
	<path clip-path="url(#SVGID_12_)" fill="#595757" d="M93.551,88.092c1.911-2.329,5.104-2.87,7.128-1.208
		c2.023,1.662,2.116,4.899,0.205,7.227c-1.912,2.329-5.103,2.869-7.128,1.206C91.73,93.656,91.641,90.418,93.551,88.092"/>
</g>
<g>
	<defs>
		<path id="SVGID_2_" d="M107.962,55.042c-0.602,6.297-1.204,12.594-1.807,18.89c0.707,0.557,2.44,1.762,4.941,1.965
			c3.801,0.308,6.441-1.936,6.948-2.383c-1.345-6.157-2.688-12.315-4.032-18.472H107.962z"/>
	</defs>
	<clipPath id="SVGID_13_">
		<use xlink:href="#SVGID_2_"  overflow="visible"/>
	</clipPath>
	
		<linearGradient id="SVGID_14_" gradientUnits="userSpaceOnUse" x1="352.4512" y1="184.124" x2="353.8795" y2="184.124" gradientTransform="matrix(-9.9966 -9.9966 9.9966 -9.9966 1801.7209 5436.481)">
		<stop  offset="0" style="stop-color:#ABDCF3"/>
		<stop  offset="1" style="stop-color:#237DA8"/>
	</linearGradient>
	<polygon clip-path="url(#SVGID_13_)" fill="url(#SVGID_14_)" points="128.626,65.625 112.1,49.099 95.574,65.625 112.1,82.151 	"/>
</g>
<g>
	<defs>
		<path id="SVGID_1_" d="M104.641,49.766c0,3.333,2.7,6.032,6.032,6.032c3.329,0,6.027-2.699,6.027-6.032
			c0-3.329-2.698-6.028-6.027-6.028C107.341,43.738,104.641,46.437,104.641,49.766"/>
	</defs>
	<clipPath id="SVGID_15_">
		<use xlink:href="#SVGID_1_"  overflow="visible"/>
	</clipPath>
	
		<linearGradient id="SVGID_16_" gradientUnits="userSpaceOnUse" x1="349.2642" y1="232.7178" x2="350.6921" y2="232.7178" gradientTransform="matrix(-4.2233 7.3149 -7.3149 -4.2233 3291.0286 -1527.462)">
		<stop  offset="0" style="stop-color:#ABDCF3"/>
		<stop  offset="1" style="stop-color:#237DA8"/>
	</linearGradient>
	<polygon clip-path="url(#SVGID_15_)" fill="url(#SVGID_16_)" points="107.656,38.517 99.42,52.782 113.686,61.019 121.923,46.753 	
		"/>
</g>
<text transform="matrix(1 0 0 1 13.9414 236.9814)" fill="#262626" font-family="'HGKyokashotai'" font-size="47.8088" letter-spacing="4">案内図</text>
</svg>
