<?xml version="1.0" encoding="utf-8"?>
<!-- Generator: Adobe Illustrator 15.1.0, SVG Export Plug-In  -->
<!DOCTYPE svg PUBLIC "-//W3C//DTD SVG 1.1//EN" "http://www.w3.org/Graphics/SVG/1.1/DTD/svg11.dtd" [
	<!ENTITY ns_flows "http://ns.adobe.com/Flows/1.0/">
]>
<svg version="1.1"
	 xmlns="http://www.w3.org/2000/svg" xmlns:xlink="http://www.w3.org/1999/xlink" xmlns:a="http://ns.adobe.com/AdobeSVGViewerExtensions/3.0/"
	 x="0px" y="0px" width="283px" height="283px" viewBox="-65.076 -23.074 283 283" enable-background="new -65.076 -23.074 283 283"
	 xml:space="preserve">
<defs>
</defs>
<text transform="matrix(1 0 0 1 6.2368 231.9277)"><tspan x="0" y="0" fill="#262626" font-family="'HGKyokashotai'" font-size="47.8088">観</tspan><tspan x="46.925" y="0" fill="#262626" font-family="'HGKyokashotai'" font-size="47.8088" letter-spacing="-2">光</tspan><tspan x="92.018" y="0" fill="#262626" font-family="'HGKyokashotai'" font-size="47.8088" letter-spacing="1">地</tspan></text>
<path fill="#6B6161" d="M104.344,161.27c-1.477,8.311-2.905,16.322-4.955,16.322c-2.209,0-3.578-8.176-4.955-16.322
	c-2.082-12.311-3.866-20.598-0.557-22.486c1.913-1.092,4.977,0.234,6.524,1.303c1.615,1.119,2.73,2.758,3.628,5.357
	C105.79,150.547,105.373,155.479,104.344,161.27"/>
<path fill="#736868" d="M84.05,138.873c0,5.848-3.292,10.588-7.353,10.588c-4.063,0-7.354-4.74-7.354-10.588
	c0-5.846,3.292-10.588,7.354-10.588C80.758,128.285,84.05,133.027,84.05,138.873"/>
<path fill="#736868" d="M105.504,145.162c0,5.848-3.292,10.59-7.354,10.59s-7.354-4.742-7.354-10.59
	c0-5.846,3.291-10.586,7.354-10.586S105.504,139.316,105.504,145.162"/>
<path fill="#736868" d="M130.209,135.203c6.034,5.355,8.887,11.998,6.367,14.836c-2.519,2.838-9.452,0.797-15.487-4.561
	c-6.036-5.354-8.887-11.998-6.368-14.834C117.238,127.805,124.172,129.846,130.209,135.203"/>
<path fill="#827676" d="M29.614,90.849c0.559,1.942,2.33,7.334,13.304,18.479c2.87,2.915,10.793,10.961,18.479,15.893
	c19.042,12.219,57.277,18.596,68.745,1.848c10.398-15.184-5.823-42.644-16.261-55.068c-5.744-6.835-17.372-20.678-36.589-22.914
	c-18.82-2.191-41.569,7.138-47.309,23.652C26.993,81.339,29.326,89.849,29.614,90.849"/>
<path fill="#827676" d="M0.046,35.779C1.205,16.059,23.553,6.327,27.21,4.734c15.753-6.861,39.818-7.505,50.819,6.467
	c3.801,4.826,7.253,12.931,6.654,21.251c-0.254,3.508-1.559,7.98-4.057,16.818c-0.028,0.095-0.087,0.298-0.194,0.554
	c-1.515,3.557-7.236,4.208-8.957,4.452c-12.232,1.75-29.646,12.827-31.515,14.027c-3.72,2.393-6.072,4.358-9.979,4.435
	c-3.931,0.078-7.496-1.798-11.456-5.176C11.57,61.635-0.85,51.042,0.046,35.779"/>
<path fill="#736868" d="M38.684,67.854c-0.058,0.153-0.105,0.312-0.105,0.312c-0.21,0.699-0.176,1.412-1.375,6.712
	c-0.647,2.874-2.967,13.441-4.064,13.304c-0.992-0.125,1.434-8.655-3.328-13.677c-1.935-2.042-3.976-2.509-6.095-3.331
	C12.122,66.681,5.147,53.036,6.528,51.591c1.011-1.055,5.582,5.353,13.981,6.842c7.557,1.34,13.754-2.092,29.262-12.015
	c21.9-14.011,32.226-21.69,34.758-19.312c0.863,0.811,0.217,4.517-1.077,11.932c-1.007,5.761-1.78,6.962-1.155,8.857
	c1.683,5.115,10.164,6.513,12.474,7.017c21.967,4.815,38.135,50.232,35.572,51.747c-2.494,1.475-17.238-41.803-50.635-48.046
	C58.695,54.686,38.983,67.042,38.684,67.854"/>
<path fill="#AB9A9A" d="M13.167,35.779c-4.586,6.417,1.64,22.33,12.196,24.948c5.242,1.3,9.852-1.101,11.642-2.032
	c5.595-2.915,11.833-9.529,10.718-15.154c-2.021-10.206-27.877-15.266-34.155-8.259C13.367,35.505,13.229,35.691,13.167,35.779"/>
<path fill="#A89898" d="M66.313,5.9c0.76,0.951-9.601,8.149-9.297,16.73c0.04,1.097,0.253,2.218,0.211,2.224
	c-0.104,0.015-2.637-6.719-0.34-12.043C59.221,7.411,65.771,5.219,66.313,5.9"/>
<path fill="#A89898" d="M58.835,4.165c0.97,0.73-7.27,10.281-4.839,18.518c0.31,1.051,0.793,2.085,0.754,2.101
	c-0.095,0.04-4.225-5.853-3.325-11.58C52.341,7.391,58.138,3.64,58.835,4.165"/>
<path fill="#A89898" d="M54.035,1.993c1.026,0.652-6.414,10.837-3.326,18.849c0.395,1.022,0.961,2.014,0.923,2.034
	c-0.09,0.046-4.685-5.492-4.249-11.274C47.824,5.736,53.298,1.526,54.035,1.993"/>
<path fill="#A89898" d="M28.381,33.932c-1.592-6.244,7.402-13.145,8.256-13.799c4.285-3.288,8.662-4.239,10.838-4.558
	c5.665-0.826,15.597-0.146,17.866,4.929c2.734,6.12-5.928,18.081-16.755,20.573C40.577,42.92,29.91,39.922,28.381,33.932"/>
<path fill="#C4B2B2" d="M42.556,37.069c0,8.473-6.87,15.341-15.341,15.341c-8.474,0-15.342-6.868-15.342-15.341
	c0-8.472,6.868-15.34,15.342-15.34C35.686,21.729,42.556,28.597,42.556,37.069"/>
<path fill="#827575" d="M19.88,27.033c-3.096,2.011-4.007,5.21-4.312,6.284c-0.232,0.817-1.434,5.373,1.231,9.61
	c2.886,4.584,9.133,6.934,12.926,5.097c6.231-3.016,6.607-17.681,0.206-21.526C27.188,24.849,22.95,25.04,19.88,27.033"/>
<path fill="#A19191" d="M39.654,36.879c0,6.196-5.024,11.22-11.22,11.22c-6.196,0-11.22-5.024-11.22-11.22
	c0-6.199,5.024-11.22,11.22-11.22C34.63,25.66,39.654,30.681,39.654,36.879"/>
<path fill="#998A8A" d="M54.87,21.242c0.784-3.332,4.571-6.115,8.569-6.329c4.583-0.247,8.328,2.94,9.786,6.576
	c2.044,5.097-0.333,11.271-3.941,12.729C63.627,36.504,53.311,27.86,54.87,21.242"/>
<path fill="#B2A1A1" d="M37.807,37.229c0,5.29-4.289,9.58-9.579,9.58c-5.291,0-9.58-4.291-9.58-9.58c0-5.291,4.289-9.58,9.58-9.58
	C33.518,27.648,37.807,31.938,37.807,37.229"/>
<path fill="#A89898" d="M48.647,0.669c1.027,0.65-6.414,10.837-3.328,18.849c0.396,1.022,0.963,2.014,0.926,2.033
	c-0.092,0.046-4.686-5.492-4.25-11.273C42.436,4.413,47.911,0.202,48.647,0.669"/>
<path fill="#A89898" d="M39.194,1.468c1.21,0.046-0.054,12.578,6.642,17.948c0.854,0.688,1.839,1.258,1.819,1.294
	c-0.057,0.086-6.798-2.393-9.339-7.603C35.739,7.819,38.325,1.434,39.194,1.468"/>
<path fill="#A89898" d="M31.066,5.806c1.471-0.741,11.624,14.504,10.372,15.569c-0.646,0.549-4.518-2.543-6.915-5.901
	C31.661,11.467,30.268,6.208,31.066,5.806"/>
<path fill="#A89898" d="M22.775,7.138c-1.05,1.185,12.946,16.479,14.229,15.522c0.704-0.525-2.054-6.211-6.284-10.349
	C27.737,9.387,23.305,6.54,22.775,7.138"/>
<path fill="#A89898" d="M17.97,13.399c0.139-1.042,1.74-1.508,1.812-1.529c3.965-1.109,9.396,6.309,8.569,7.482
	C27.436,20.65,17.605,16.118,17.97,13.399"/>
<path fill="#A89898" d="M8.362,17.854c-0.009-0.65,3.456-1.886,6.837-1.107c5.197,1.197,8.235,6.704,7.761,7.208
	c-0.35,0.371-2.472-2.186-7.392-4.067C11.294,18.253,8.369,18.452,8.362,17.854"/>
<path fill="#A89898" d="M14.459,22.66c-2.897-0.987-6.563-1.227-6.837-0.37c-0.245,0.763,2.22,2.376,4.435,3.141
	c3.037,1.045,6.636,0.851,6.837,0C19.083,24.634,16.299,23.283,14.459,22.66"/>
<path fill="#A89898" d="M2.08,43.541c0.095,0.444,3.056,0.279,5.358-0.37c3.101-0.871,5.932-2.875,5.729-3.325
	C12.792,39.021,1.886,42.664,2.08,43.541"/>
<path fill="#A89898" d="M2.819,37.073c-0.534-0.93,1.261-3.327,3.51-4.25c3.181-1.308,6.831,0.508,6.838,1.662
	C13.177,36.34,3.801,38.792,2.819,37.073"/>
<path fill="#A89898" d="M7.623,53.15c-0.543-1.059,5.805-6.105,6.652-5.358c0.522,0.458-0.605,3.477-3.141,4.803
	C9.847,53.271,7.889,53.671,7.623,53.15"/>
<path fill="#736868" d="M131.62,123.373c-3.458-5.248-19.152,7.057-42.144,4.043c-20.104-2.633-32.852-15.286-34.5-13.033
	c-1.178,1.614,4.571,9.13,12.333,14.15c7.938,5.133,11.709,3.598,31.616,8.063c14.643,3.287,17.85,5.295,22.914,2.961
	C129.023,136.244,133.98,126.955,131.62,123.373"/>
<path fill="#736868" d="M33.509,67.483c3.23,0.238,0.063,17.389,9.61,33.263c5.239,8.709,12.75,14.457,15.153,16.262
	c4.675,3.515,9.786,6.292,15.892,9.611c6.18,3.357,8.15,4.023,8.133,4.064c-0.081,0.176-37.299-8.918-49.527-33.409
	c-1.213-2.435-6.738-13.5-2.788-24.536C30.414,71.534,31.908,67.367,33.509,67.483"/>
<path fill="#948585" d="M149.931,132.9c-0.634-2.666-1.481-6.24-2.588-9.609c-2.239-6.825-6.936-17.076-12.225-24.008
	c-5.215-18.677-40.479-37.529-57.778-39.083c-0.61-0.054-1.175-0.089-1.175-0.089c-5.745-0.391-25.89-1.036-31.953,10.958
	c-7.092,14.021,9.206,37.151,24.845,48.058c3.53,2.46,19.846,12.787,39.835,7.519c0.819-0.215,4.275-1.127,8.448-2.871
	c4.991,4.436,13.343,5.482,23.351,16.15c7.435,7.924,10.121,15.127,11.828,14.414C154.794,153.387,151.59,139.895,149.931,132.9"/>
<path fill="#BDABAB" d="M103.554,87.553c-0.272,0.51,2.504,2.272,8.337,6.685c9.296,7.029,11.397,9.471,11.799,9.097
	c0.665-0.619-3.873-8.393-11.827-12.936C108.148,88.277,103.87,86.964,103.554,87.553"/>
<path fill="#A39393" d="M60.86,78.202c-2.399-0.264-5.051,2.042-5.916,4.065c-3.915,9.17,21.054,30.966,24.395,28.458
	c1.701-1.276-4.139-7.396-13.306-26.981C65.255,82.084,63.6,78.503,60.86,78.202"/>
<path fill="#BDABAB" d="M62.324,85.761c-1.358-0.15-2.862,1.157-3.35,2.302c-2.22,5.2,11.931,17.55,13.823,16.128
	c0.965-0.722-2.345-4.191-7.542-15.289C64.816,87.96,63.879,85.931,62.324,85.761"/>
<path fill="#BDABAB" d="M124.799,108.508c-0.205,0.204,0.633,1.483,11.087,13.676c10.183,11.873,15.278,17.807,15.616,17.561
	c0.666-0.49-5.139-10.92-14.138-20.517C131.668,113.15,125.273,108.034,124.799,108.508"/>
<path fill="#BDABAB" d="M132.559,107.029c-0.455,0.546,15.762,15.288,16.262,14.784c0.259-0.26-3.625-4.701-7.394-8.131
	C137.612,110.206,132.795,106.744,132.559,107.029"/>
<path fill="#BDABAB" d="M110.41,83.265c-0.272,0.51,2.503,2.273,8.337,6.685c9.295,7.031,11.396,9.471,11.799,9.098
	c0.664-0.62-3.874-8.395-11.827-12.937C115.004,83.99,110.727,82.676,110.41,83.265"/>
<path fill="#BDABAB" d="M113.663,77.743c-0.272,0.507,2.502,2.271,8.336,6.682c9.295,7.032,11.396,9.473,11.8,9.097
	c0.664-0.617-3.873-8.394-11.827-12.935C118.257,78.466,113.979,77.153,113.663,77.743"/>
<path fill="#BDABAB" d="M100.303,93.701c-0.273,0.51,2.502,2.272,8.335,6.685c9.295,7.029,11.396,9.471,11.8,9.097
	c0.665-0.619-3.873-8.392-11.826-12.936C104.895,94.425,100.619,93.112,100.303,93.701"/>
<path fill="#827676" d="M81.557,61.94c-1.541-0.784-9.483,5.683-10.348,14.413c-1.61,16.249,21.846,34.699,36.958,38.068
	c1.892,0.423,5.804,1.085,10.348,3.696c7.669,4.402,11.986,11.382,12.241,11.181c0.28-0.223-7.277-6.699-6.697-14.506
	c0.242-3.253,1.752-4.815,0.74-6.285c-1.596-2.315-6.453-0.043-12.937-0.37c-6.409-0.322-10.905-3.007-17.001-6.651
	c-7.363-4.402-12.867-7.692-15.522-13.675C74.187,76.194,83.575,62.964,81.557,61.94"/>
<path fill="#BDABAB" d="M74.533,68.592c-2.144,4.961-0.921,9.771-0.369,11.828c2.512,9.345,10.215,14.401,20.697,21.065
	c14.257,9.066,21.386,13.598,28.829,10.719c8.221-3.179,12.093-13.542,11.457-14.043c-0.468-0.372-2.876,4.976-8.502,7.39
	c-15.366,6.593-37.357-16.177-40.655-19.588c-0.961-0.996-2.461-2.677-3.695-5.173c-0.674-1.366-2.992-6.461-1.847-11.458
	c1.697-7.411,10.042-10.361,9.608-11.089C89.571,57.429,78.306,59.862,74.533,68.592"/>
<path fill="#BDABAB" d="M115.19,108.877c-0.738,0.688,7.048,10.112,18.848,24.394c11.87,14.367,17.807,21.553,18.479,21.066
	c0.924-0.664-6.805-14.621-18.109-27.719C125.729,116.563,115.942,108.174,115.19,108.877"/>
<path fill="#BDABAB" d="M105.504,119.965c0,1.557-1.261,2.818-2.816,2.818c-1.555,0-2.814-1.262-2.814-2.818
	c0-1.555,1.26-2.815,2.814-2.815C104.243,117.15,105.504,118.41,105.504,119.965"/>
<path fill="#BDABAB" d="M107.412,76.243c0,1.071-0.867,1.938-1.938,1.938s-1.937-0.868-1.937-1.938c0-1.07,0.866-1.937,1.937-1.937
	S107.412,75.173,107.412,76.243"/>
<path fill="#BDABAB" d="M99.519,85.269c0,1.184-0.96,2.144-2.144,2.144c-1.185,0-2.145-0.96-2.145-2.144
	c0-1.184,0.96-2.144,2.145-2.144C98.559,83.125,99.519,84.085,99.519,85.269"/>
<path fill="#BDABAB" d="M98.817,73.527c0,1.5-1.218,2.716-2.718,2.716c-1.501,0-2.718-1.216-2.718-2.716
	c0-1.5,1.217-2.718,2.718-2.718C97.6,70.809,98.817,72.027,98.817,73.527"/>
<path fill="#BDABAB" d="M90.806,80.035c0,1.022-0.828,1.853-1.853,1.853c-1.022,0-1.854-0.831-1.854-1.853
	c0-1.023,0.831-1.853,1.854-1.853C89.978,78.182,90.806,79.012,90.806,80.035"/>
<path fill="#BDABAB" d="M88.16,71.038c0,0.942-0.764,1.705-1.706,1.705c-0.94,0-1.704-0.763-1.704-1.705
	c0-0.942,0.764-1.706,1.704-1.706C87.396,69.332,88.16,70.095,88.16,71.038"/>
<path fill="#827676" d="M128.772,137.33c3.802,3.373,5.597,7.555,4.011,9.344c-1.586,1.785-5.953,0.5-9.753-2.873
	c-3.8-3.371-5.595-7.555-4.009-9.342C120.606,132.672,124.973,133.957,128.772,137.33"/>
<path fill="#948585" d="M128.13,140.564c-2.503,0.625-2.928,11.051,4.967,17.1c4.475,3.43,11.429,5.301,12.893,4.064
	c1.162-0.979-1.854-4.484-7.935-11.457C132.237,143.602,129.329,140.268,128.13,140.564"/>
<path fill="#BDABAB" d="M129.973,123.291c-0.274-0.689-16.731,10.338-38.438,8.131c-20.04-2.037-32.965-14.175-33.263-13.675
	c-0.319,0.539,14.106,15.464,35.112,17.003C114.075,136.262,130.247,123.986,129.973,123.291"/>
<path fill="#BDABAB" d="M79.334,121.813c-0.857,1.268,12.852,12.502,13.969,11.471c0.554-0.512-1.881-4.082-4.222-6.371
	C85.203,123.117,79.814,121.102,79.334,121.813"/>
<path fill="#BDABAB" d="M106.634,118.265c-0.725,1.325,10.868,13.071,11.813,11.991c0.469-0.531-1.592-4.266-3.572-6.66
	C111.599,119.629,107.041,117.521,106.634,118.265"/>
<path fill="#BDABAB" d="M94.36,120.348c-0.725,1.326,10.868,13.072,11.813,11.99c0.468-0.529-1.593-4.264-3.572-6.66
	C99.324,121.713,94.768,119.604,94.36,120.348"/>
<path fill="#BDABAB" d="M93.522,65.223c0,1.501-1.217,2.718-2.717,2.718c-1.501,0-2.716-1.216-2.716-2.718
	c0-1.5,1.215-2.716,2.716-2.716C92.306,62.507,93.522,63.724,93.522,65.223"/>
<path fill="#BDABAB" d="M76.695,58.097c0,1.5-1.217,2.715-2.716,2.715c-1.501,0-2.717-1.215-2.717-2.715
	c0-1.501,1.215-2.719,2.717-2.719C75.479,55.378,76.695,56.596,76.695,58.097"/>
<path fill="#BDABAB" d="M76.695,93.561c0,1.5-1.217,2.716-2.716,2.716c-1.501,0-2.717-1.216-2.717-2.716
	c0-1.501,1.215-2.716,2.717-2.716C75.479,90.844,76.695,92.06,76.695,93.561"/>
<path fill="#BDABAB" d="M63.642,73.129c0,1.281-1.039,2.318-2.32,2.318c-1.28,0-2.319-1.038-2.319-2.318s1.039-2.318,2.319-2.318
	C62.603,70.811,63.642,71.848,63.642,73.129"/>
<path fill="#BDABAB" d="M57.246,83.742c0,1.5-1.216,2.716-2.716,2.716c-1.501,0-2.718-1.216-2.718-2.716
	c0-1.501,1.216-2.718,2.718-2.718C56.03,81.024,57.246,82.241,57.246,83.742"/>
<path fill="#BDABAB" d="M48.584,71.971c0,0.638-0.519,1.157-1.159,1.157c-0.642,0-1.161-0.519-1.161-1.157
	c0-0.641,0.519-1.162,1.161-1.162C48.065,70.809,48.584,71.33,48.584,71.971"/>
<path fill="#BDABAB" d="M95.842,110.407c0,1.282-1.037,2.32-2.318,2.32s-2.319-1.038-2.319-2.32c0-1.282,1.038-2.32,2.319-2.32
	S95.842,109.125,95.842,110.407"/>
<path fill="#BDABAB" d="M88.658,104.304c0,1.282-1.038,2.321-2.318,2.321c-1.282,0-2.32-1.039-2.32-2.321
	c0-1.281,1.038-2.318,2.32-2.318C87.62,101.985,88.658,103.023,88.658,104.304"/>
<path fill="#BDABAB" d="M89.418,115.72c0,1.282-1.037,2.321-2.318,2.321c-1.28,0-2.318-1.039-2.318-2.321
	c0-1.28,1.038-2.318,2.318-2.318C88.381,113.402,89.418,114.44,89.418,115.72"/>
<path fill="#B3A1A1" d="M73.448,113.402c0,1.282-1.038,2.319-2.318,2.319c-1.28,0-2.318-1.038-2.318-2.319
	c0-1.281,1.038-2.32,2.318-2.32C72.411,111.083,73.448,112.122,73.448,113.402"/>
<path fill="#B3A1A1" d="M63.858,108.087c0,1.5-1.216,2.716-2.718,2.716c-1.5,0-2.716-1.217-2.716-2.716
	c0-1.5,1.216-2.715,2.716-2.715C62.642,105.373,63.858,106.587,63.858,108.087"/>
<path fill="#B3A1A1" d="M56.352,101.54c0,1.5-1.213,2.716-2.715,2.716c-1.501,0-2.718-1.216-2.718-2.716
	c0-1.5,1.217-2.716,2.718-2.716C55.138,98.823,56.352,100.04,56.352,101.54"/>
<path fill="#B3A1A1" d="M50.371,92.641c0,1.501-1.217,2.715-2.716,2.715c-1.503,0-2.716-1.214-2.716-2.715
	c0-1.501,1.213-2.718,2.716-2.718C49.154,89.923,50.371,91.14,50.371,92.641"/>
<path fill="#B3A1A1" d="M35.927,86.458c0,0.749-0.608,1.359-1.36,1.359c-0.748,0-1.356-0.611-1.356-1.359
	c0-0.751,0.608-1.36,1.356-1.36C35.319,85.099,35.927,85.707,35.927,86.458"/>
<path fill="#BDABAB" d="M46.904,80.035c0,1.501-1.217,2.718-2.718,2.718c-1.5,0-2.716-1.217-2.716-2.718
	c0-1.501,1.216-2.718,2.716-2.718C45.688,77.317,46.904,78.533,46.904,80.035"/>
<path fill="#968888" d="M52.288,108.836c0,1.501-1.216,2.718-2.716,2.718c-1.501,0-2.718-1.217-2.718-2.718
	c0-1.499,1.216-2.715,2.718-2.715C51.071,106.121,52.288,107.337,52.288,108.836"/>
<path fill="#968888" d="M44.682,101.54c0,1.5-1.214,2.716-2.715,2.716c-1.501,0-2.718-1.216-2.718-2.716
	c0-1.5,1.216-2.716,2.718-2.716C43.468,98.823,44.682,100.04,44.682,101.54"/>
<path fill="#968888" d="M38.644,93.561c0,1.5-1.215,2.716-2.716,2.716c-1.5,0-2.716-1.216-2.716-2.716
	c0-1.501,1.217-2.716,2.716-2.716C37.429,90.844,38.644,92.06,38.644,93.561"/>
<path fill="#968888" d="M101.764,61.857c0,1.407-1.141,2.549-2.548,2.549s-2.548-1.142-2.548-2.549s1.141-2.546,2.548-2.546
	S101.764,60.45,101.764,61.857"/>
<path fill="#968888" d="M111.338,69.332c0,1.407-1.141,2.548-2.55,2.548c-1.407,0-2.548-1.141-2.548-2.548
	c0-1.408,1.141-2.548,2.548-2.548C110.197,66.784,111.338,67.924,111.338,69.332"/>
<path fill="#BDABAB" d="M66.176,65.223c0,1.282-1.038,2.32-2.318,2.32s-2.318-1.038-2.318-2.32c0-1.279,1.038-2.318,2.318-2.318
	S66.176,63.944,66.176,65.223"/>
<path fill="#695F5F" d="M80.819,15.741C76.556,8.202,69.402,3.592,68.624,4.284c-0.79,0.701,5.416,6.479,9.606,17.001
	c5.265,13.221,3.201,23.519,4.066,23.54C83.37,44.853,88.279,28.931,80.819,15.741"/>
<path fill="#665E5E" d="M82.295,47.896c3.186-6.388,2.409-15.652-1.4-17.677c-6.64-3.53-16.346,18.209-43.888,28.476
	c-10.484,3.906-20.32,4.948-20.35,8.314c-0.021,2.483,5.298,5.167,10.111,5.346c5.81,0.214,10.23-3.247,11.916-4.501
	C57.155,54.11,75.841,60.837,82.295,47.896"/>
<polygon fill="#C7A992" points="45.752,30.976 45.439,32.64 43.534,42.801 53.635,65.225 53.635,50.44 53.635,40.583 52.723,39.472 
	"/>
<path fill="#A19191" d="M50.433,53.89c1.067-4.434,2.135-8.871,3.202-13.306v24.639L50.433,53.89z"/>
<path fill="#AB9A9A" d="M44.396,26.909c1.239-3.674,8.317-4.5,15.709-5.358c7.891-0.918,14.903-1.735,17.739,2.032
	c4.03,5.354-1.011,19.12-9.793,21.991C56.535,49.338,42.287,33.166,44.396,26.909"/>
<path fill="#BDABAB" d="M128.169,145.18c-0.136,0.107,0.424,0.785,7.384,7.244c6.782,6.289,10.177,9.434,10.402,9.303
	c0.443-0.26-3.422-5.785-9.416-10.869C132.744,147.639,128.486,144.93,128.169,145.18"/>
<path fill="#BDABAB" d="M127.056,148.514c-0.104,0.09,0.323,0.646,5.65,5.951c5.189,5.168,7.786,7.752,7.958,7.643
	c0.34-0.213-2.618-4.752-7.205-8.928C130.555,150.533,127.299,148.309,127.056,148.514"/>
<path fill="#B3A1A1" d="M132.296,141.193c0,1.279-1.039,2.318-2.32,2.318c-1.28,0-2.317-1.039-2.317-2.318
	c0-1.283,1.037-2.32,2.317-2.32C131.257,138.873,132.296,139.91,132.296,141.193"/>
<path fill="#736868" d="M78.097,135.367c-2.57-0.125-3.714,17.139-12.323,25.742c-1.222,1.219-4.642,4.639-9.559,5.328
	c-1.72,0.24-3.587,0.148-3.587,0.148c-4.747-0.234-6.302-2.029-8.214-1.096c-2.123,1.033-2.803,4.506-2.191,4.93
	c0.501,0.348,1.479-1.625,3.56-2.191c4.162-1.137,6.727,4.998,11.503,4.656c2.406-0.17,2.587-1.791,7.94-5.477
	c5.417-3.729,6.042-2.631,8.764-4.93c7.49-6.326,6.676-17.951,6.573-19.172C80.354,140.816,79.525,135.436,78.097,135.367"/>
<path fill="#736868" d="M99.303,164.85c-2.696-0.629-4.336,6.92-9.123,8.459c-3.066,0.988-4.061-1.574-7.885-1.209
	c-6.944,0.664-11.779,9.891-10.984,10.723c0.447,0.461,2.613-1.584,7.604-2.768c5.229-1.24,6.531,1.117,11.403,0.348
	c0.836-0.133,8.742-1.496,10.713-7.258c0.969-2.84,0.569-7.26-1.419-8.182C99.539,164.93,99.442,164.883,99.303,164.85"/>
<path fill="#736868" d="M99.901,163.207c1.409-0.367,2.66,7.348,8.597,9.301c0.632,0.207,1.145,0.291,6.251,0
	c9.42-0.543,11.03-1.027,13.805,0c3.575,1.318,5.999,4.008,5.729,4.516c-0.276,0.518-3.187-1.656-7.032-1.328
	c-3.975,0.336-4.951,3.012-8.597,4.613c-5.359,2.361-13.298,1.002-17.19-3.818C97.387,171.443,98.536,163.566,99.901,163.207"/>
<path fill="#BAA9A9" d="M103.043,167.109c1.027-0.242,1.94,4.82,6.273,6.1c0.46,0.139,0.835,0.191,4.563,0
	c6.875-0.354,8.05-0.672,10.074,0c2.61,0.865,4.381,2.633,4.184,2.963c-0.201,0.34-2.324-1.086-5.133-0.873
	c-2.901,0.225-3.614,1.979-6.273,3.029c-3.913,1.549-9.708,0.656-12.548-2.506C101.206,172.51,102.045,167.344,103.043,167.109"/>
<path fill="#BAA9A9" d="M104.495,159.035c-1.256,7.063-2.468,13.871-4.212,13.871c-1.875,0-3.04-6.949-4.21-13.871
	c-1.769-10.465-3.286-17.508-0.473-19.113c1.625-0.926,4.228,0.201,5.544,1.109c1.373,0.951,2.321,2.342,3.083,4.553
	C105.725,149.918,105.37,154.111,104.495,159.035"/>
<path fill="#BAA9A9" d="M77.859,176.76c-0.072-0.588,1.443-1.354,2.711-1.725c4.649-1.361,7.628,2.084,11.826,0.49
	c0.996-0.377,1.647-0.881,2.098-1.232c4.753-3.736,4.068-10.857,4.311-10.84c0.299,0.025,2.44,11.104-2.958,14.539
	c-1.342,0.854-4.918,0.57-12.073,0C79.608,177.662,77.935,177.354,77.859,176.76"/>
<path fill="#736868" d="M71.454,158.279c1.1-0.691,4.123,5.822,10.841,6.9c0,0,0.519,0.082,6.406,0.494
	c-0.002,0-6.811,5.154-11.333,3.941C72.332,168.264,70.222,159.057,71.454,158.279"/>
<path fill="#BFAEAE" d="M75.938,26.709C75.938,34.602,69.54,41,61.647,41c-7.896,0-14.294-6.398-14.294-14.291
	c0-7.895,6.398-14.292,14.294-14.292C69.54,12.417,75.938,18.814,75.938,26.709"/>
<path fill="#A19191" d="M72.712,27.905c0,6.391-5.181,11.572-11.572,11.572c-6.39,0-11.569-5.181-11.569-11.572
	c0-6.39,5.179-11.569,11.569-11.569C67.531,16.336,72.712,21.515,72.712,27.905"/>
<path fill="#C7B5B5" d="M67.598,26.726c0,4.796-3.888,8.684-8.684,8.684c-4.796,0-8.681-3.888-8.681-8.684s3.885-8.684,8.681-8.684
	C63.71,18.042,67.598,21.93,67.598,26.726"/>
<path fill="#C7B5B5" d="M37.263,38.481c0,4.339-3.519,7.859-7.86,7.859s-7.859-3.52-7.859-7.859c0-4.341,3.518-7.86,7.859-7.86
	S37.263,34.14,37.263,38.481"/>
</svg>
