<?xml version="1.0" encoding="utf-8"?>
<!-- Generator: Adobe Illustrator 25.1.0, SVG Export Plug-In . SVG Version: 6.00 Build 0)  -->
<svg version="1.1" id="レイヤー_1" xmlns="http://www.w3.org/2000/svg" xmlns:xlink="http://www.w3.org/1999/xlink" x="0px"
	 y="0px" viewBox="0 0 358.9 80" style="enable-background:new 0 0 358.9 80;" xml:space="preserve">
<style type="text/css">
	.st0{fill:#FFFFFF;fill-opacity:0.56;}
	.st1{fill:#F57F5A;}
</style>
<path class="st0" d="M40,0h279c22.1,0,40,17.9,40,40l0,0c0,22.1-17.9,40-40,40H40C17.9,80,0,62.1,0,40l0,0C0,17.9,17.9,0,40,0z"/>
<path d="M121.4,58v-0.9h-7.1c0-0.5,0-0.9,0-1.3v-3.4h7.5v-0.9h-15.7v0.9h7.3v3.4c0,0.4,0,0.9,0,1.3h-6.7V58h6.6
	c-0.4,2.8-2,5.6-7.4,7.6c0.2,0.2,0.4,0.5,0.5,0.7c5.3-1.9,7.1-4.7,7.6-7.5c1.3,3.9,3.7,6.4,7.6,7.5c0.1-0.2,0.4-0.6,0.6-0.8
	c-4-1-6.4-3.7-7.5-7.6H121.4z M139.6,52.8V52H128c0.3-0.6,0.5-1.2,0.7-1.8l-0.9-0.2c-0.8,2.6-2.2,4.9-3.9,6.4
	c0.2,0.1,0.6,0.4,0.8,0.6c1.1-1.1,2.2-2.5,3-4.1H139.6z M137.9,55.3v-0.8h-10.4v0.8H137.9z M132.8,58.3c-0.6,1.1-1.4,2.2-2.4,3.2
	c-1.2-0.9-2.5-1.7-3.7-2.3l-0.6,0.5c1.2,0.7,2.5,1.5,3.7,2.4c-1.6,1.5-3.5,2.8-5.5,3.7c0.2,0.2,0.5,0.5,0.6,0.7c2-1,3.9-2.2,5.5-3.8
	c1.4,1.1,2.6,2.2,3.4,3.1l0.7-0.6c-0.8-0.9-2.1-2-3.5-3c1-1,1.8-2.1,2.5-3.3L132.8,58.3z M125.4,57.1v0.8h10.7
	c0.1,5.2,0.4,8.4,2.7,8.5c0.9,0,1.2-0.7,1.3-3c-0.2-0.1-0.5-0.3-0.7-0.5c0,1.6-0.1,2.6-0.5,2.6c-1.5,0-1.8-3.5-1.9-8.4H125.4z"/>
<path d="M205.6,52.8V52H194c0.3-0.6,0.5-1.2,0.7-1.8l-0.9-0.2c-0.8,2.6-2.2,4.9-3.9,6.4c0.2,0.1,0.6,0.4,0.8,0.6
	c1.1-1.1,2.2-2.5,3-4.1H205.6z M203.9,55.3v-0.8h-10.4v0.8H203.9z M198.8,58.3c-0.6,1.1-1.4,2.2-2.4,3.2c-1.2-0.9-2.5-1.7-3.7-2.3
	l-0.6,0.5c1.2,0.7,2.5,1.5,3.7,2.4c-1.6,1.5-3.5,2.8-5.5,3.7c0.2,0.2,0.5,0.5,0.6,0.7c2-1,3.9-2.2,5.5-3.8c1.4,1.1,2.6,2.2,3.4,3.1
	l0.7-0.6c-0.8-0.9-2.1-2-3.5-3c1-1,1.8-2.1,2.5-3.3L198.8,58.3z M191.4,57.1v0.8h10.7c0.1,5.2,0.4,8.4,2.7,8.5c0.9,0,1.2-0.7,1.3-3
	c-0.2-0.1-0.5-0.3-0.7-0.5c0,1.6-0.1,2.6-0.5,2.6c-1.5,0-1.8-3.5-1.9-8.4H191.4z M221.4,53.8h-6.9v-2.2h6.9V53.8z M221.4,56.7h-6.9
	v-2.2h6.9V56.7z M222.3,50.9h-8.6v6.7h8.6V50.9z M212.6,52.1c-0.7-0.6-2.1-1.4-3.3-1.8l-0.5,0.6c1.2,0.5,2.6,1.3,3.3,1.9L212.6,52.1
	z M211.6,57c-0.7-0.6-2.1-1.4-3.3-1.9l-0.5,0.6c1.2,0.5,2.6,1.3,3.3,2L211.6,57z M211.7,59.6c-1,2-2.4,4.4-3.3,5.8l0.7,0.6
	c1-1.6,2.3-4,3.3-5.9L211.7,59.6z M213.9,60.1h2.2V65h-2.2V60.1z M219.1,60.1V65h-2.2v-4.9H219.1z M222,60.1V65h-2.2v-4.9H222z
	 M222.8,65v-5.7h-9.7V65h-1.6v0.8h12.7V65H222.8z"/>
<path d="M266.9,50.7l-0.1,0h-4.1v15.5h0.8V51.6h3c-0.5,1.2-1.1,2.9-1.7,4.3c1.4,1.5,1.8,2.8,1.8,3.9c0,0.6-0.1,1.1-0.4,1.3
	c-0.2,0.1-0.4,0.2-0.6,0.2c-0.3,0-0.7,0-1.2,0c0.1,0.2,0.2,0.6,0.3,0.8c0.4,0,0.8,0,1.2,0c0.3,0,0.6-0.1,0.9-0.3
	c0.5-0.3,0.7-1.1,0.7-1.9c0-1.2-0.4-2.5-1.8-4c0.6-1.4,1.4-3.2,1.9-4.7L266.9,50.7z M271.1,52.3h4.5c-0.6,1.1-1.4,2.1-2.4,3
	c-0.9-0.8-1.7-1.7-2.2-2.7L271.1,52.3z M276.1,51.6l-0.2,0h-4.3c0.3-0.5,0.6-1,0.9-1.5l-0.9-0.1c-0.7,1.5-2.1,3.3-4.1,4.6
	c0.2,0.1,0.5,0.4,0.6,0.5c0.8-0.6,1.6-1.2,2.2-1.9c0.6,1,1.3,1.9,2.1,2.6c-1.5,1.1-3.3,1.8-5,2.2c0.2,0.2,0.4,0.5,0.5,0.7
	c1.8-0.5,3.7-1.3,5.2-2.4c1.3,1,2.9,1.8,4.7,2.2c0.1-0.2,0.4-0.5,0.6-0.7c-1.7-0.4-3.3-1-4.6-2c1.3-1,2.3-2.4,2.9-4L276.1,51.6z
	 M270.6,62.7v-2.8h2.9v2.8H270.6z M274.4,59.8h3V59h-3v-1.6h-0.8V59h-5.2v0.8h1.5v2.8h-2.3v0.8h6v2.8h0.8v-2.8h3.5v-0.8h-3.5V59.8z
	 M285.7,54.7l-0.2,0H280v0.9h5.2c-0.9,3.9-3.1,6.7-5.6,8.2c0.2,0.1,0.5,0.5,0.7,0.7c2.7-1.7,5-4.9,6-9.5L285.7,54.7z M294.8,53
	c-1.2,1.5-3.1,3.5-4.6,4.8c-0.7-1.4-1.3-2.9-1.7-4.4v-3.2h-0.9v14.9c0,0.3-0.1,0.5-0.5,0.5c-0.3,0-1.5,0-2.9,0
	c0.1,0.3,0.3,0.7,0.4,0.9c1.7,0,2.6,0,3.1-0.2c0.5-0.2,0.7-0.5,0.7-1.2v-9.2c1.5,4.1,3.9,7.6,7.3,9.1c0.2-0.2,0.5-0.6,0.7-0.7
	c-2.5-1-4.5-3.1-5.9-5.7c1.6-1.3,3.6-3.3,5-4.9L294.8,53z M306.5,62.4h2.8v2.3h-2.8V62.4z M309.3,58.7h-2.8v-2.2h2.8V58.7z
	 M309.3,61.7h-2.8v-2.3h2.8V61.7z M302.9,63.3h-2.8v-6h2.8V63.3z M314.2,64.7h-4v-2.3h3.2v-0.7h-3.2v-2.3h3.2v-0.7h-3.2v-2.2h3.4
	v-0.8h-3.2c0.3-0.6,0.7-1.4,1-2.1l-0.8-0.3c-0.2,0.7-0.6,1.6-1,2.3h-2.6c0.6-0.9,1.2-1.9,1.6-2.9h4.8v2.2h0.8v-3h-5.2
	c0.2-0.6,0.4-1.2,0.6-1.8l-0.8-0.2c-0.2,0.7-0.4,1.3-0.7,1.9h-3.5v3h0.8v-2.2h2.4c-1,2.1-2.3,3.9-3.9,5.1v-1.3h-3.6
	c0.4-1.4,0.7-2.9,1-4.4h3.2v-0.8H298v0.8h2.2c-0.5,3.3-1.3,6.2-2.7,8.2c0.2,0.2,0.4,0.6,0.6,0.8c0.5-0.7,0.9-1.4,1.2-2.2v6.6h0.8
	v-1.4h3.6v-6.2c0.2,0.1,0.5,0.4,0.6,0.6c0.5-0.4,0.9-0.8,1.3-1.3v9.1h0.8v-0.8h7.7V64.7z M332,60c-1-0.8-2.8-1.9-4.3-2.6l-0.6,0.5
	c1.5,0.7,3.4,1.9,4.3,2.6L332,60z M330.3,53.7c-0.7,0.7-2.1,1.7-3,2.3l0.6,0.4c1-0.6,2.2-1.4,3.1-2.3L330.3,53.7z M320.5,55.4
	c0.9,0.6,2,1.4,2.7,2c-0.6,0.6-1.2,1.3-1.7,1.8l-1.3,0.1l0.1,0.8c1.7-0.1,4.1-0.2,6.4-0.4c0.3,0.4,0.5,0.8,0.6,1.1l0.7-0.4
	c-0.4-0.9-1.5-2.2-2.5-3.2l-0.6,0.3c0.4,0.5,0.9,1,1.3,1.6c-1.3,0.1-2.7,0.1-3.8,0.2c1.4-1.3,2.9-3.1,4-4.5l-0.7-0.4
	c-0.5,0.8-1.3,1.7-2.1,2.6c-0.4-0.4-1-0.8-1.7-1.3c0.6-0.7,1.3-1.6,1.9-2.4l-0.5-0.2h8v-0.8h-7.1V50h-0.9v2.2h-7V53h6.5
	c-0.4,0.7-1,1.5-1.6,2.2c-0.2-0.1-0.4-0.2-0.5-0.3L320.5,55.4z M320.2,55.9c-0.6-0.6-1.9-1.4-2.9-2l-0.6,0.5c1,0.6,2.3,1.4,2.9,2
	L320.2,55.9z M320.6,57.7c-1.7,0.7-3.4,1.5-4.5,1.9l0.4,0.7c1.2-0.6,2.8-1.3,4.2-2L320.6,57.7z M332,61.7h-7.6v-1.5h-0.9v1.5H316
	v0.8h7.5v3.9h0.9v-3.9h7.6V61.7z"/>
<path d="M33.8,33h5.3v-0.7h-2.1v-9.5h-0.7c-0.5,0.3-1.1,0.5-1.9,0.6V24h1.8v8.3h-2.3V33z M40.1,35.5h0.7L45.4,22h-0.7L40.1,35.5z
	 M46.1,33h6.1v-0.7h-3.2c-0.5,0-1.1,0-1.7,0.1c2.7-2.5,4.4-4.7,4.4-6.8c0-1.8-1-2.9-2.8-2.9c-1.2,0-2.1,0.6-2.9,1.5l0.5,0.5
	c0.6-0.7,1.4-1.3,2.3-1.3c1.4,0,2.1,1,2.1,2.3c0,1.8-1.4,3.9-4.8,6.9V33z M56.8,33.2c1.8,0,3.1-1.1,3.1-2.6c0-1.4-0.9-2.1-1.7-2.7
	v-0.1c0.6-0.5,1.4-1.4,1.4-2.5c0-1.5-1-2.7-2.7-2.7c-1.5,0-2.6,1-2.6,2.5c0,1.1,0.7,1.8,1.4,2.3v0.1c-0.9,0.5-1.9,1.5-1.9,2.9
	C53.6,32,55,33.2,56.8,33.2z M57.5,27.6c-1.3-0.5-2.5-1.1-2.5-2.5c0-1.1,0.8-1.9,1.8-1.9c1.2,0,2,0.9,2,2
	C58.8,26.2,58.3,27,57.5,27.6z M56.8,32.5c-1.4,0-2.4-0.9-2.4-2.1c0-1.1,0.7-2,1.7-2.6c1.5,0.6,3,1.2,3,2.7
	C59,31.7,58.2,32.5,56.8,32.5z M38.5,55.7l0.5-0.3c-1.2-2-1.8-4.3-1.8-6.8s0.6-4.8,1.8-6.8l-0.5-0.3c-1.3,2.1-2,4.3-2,7
	S37.2,53.6,38.5,55.7z M52.5,45.6v-0.7h-5.7v-3.5h-0.7v3.5h-5.6v0.7h5.3c-1.3,2.6-3.6,5.1-5.8,6.3c0.2,0.1,0.4,0.4,0.5,0.5
	c2.1-1.2,4.3-3.7,5.6-6.2V54h0.7v-7.8c1.4,2.5,3.6,4.9,5.6,6.2c0.1-0.2,0.3-0.4,0.5-0.6c-2.1-1.2-4.4-3.8-5.8-6.3H52.5z M54.5,55.7
	c1.3-2.1,2-4.3,2-7s-0.8-5-2-7L54,41.9c1.2,2,1.8,4.3,1.8,6.8s-0.6,4.8-1.8,6.8L54.5,55.7z"/>
<path d="M192.8,28.4l4.5-6.1c0.6-0.9,1.2-1.9,1.9-3h0.1c-0.1,1.2-0.1,2.3-0.1,3.2v5.9H192.8z M204,28.4h-2.7v-11h-2.7l-8.2,11.3v1.5
	h8.9V35h2.1v-4.8h2.7V28.4z M212.8,25.5c1.5,0,2.8-1.1,2.8-2.9c0-1.8-1.3-2.9-2.8-2.9c-1.5,0-2.8,1.1-2.8,2.9
	C209.9,24.3,211.2,25.5,212.8,25.5z M212.8,24.4c-1,0-1.7-0.8-1.7-1.8c0-1.1,0.7-1.8,1.7-1.8c1,0,1.7,0.7,1.7,1.8
	C214.4,23.7,213.7,24.4,212.8,24.4z M223.7,35.3c1.9,0,3.3-0.7,4.5-2.1l-1.1-1.2c-0.9,1-1.9,1.6-3.3,1.6c-2.8,0-4.5-2.3-4.5-5.9
	c0-3.6,1.8-5.9,4.6-5.9c1.2,0,2.1,0.5,2.9,1.3l1.1-1.2c-0.9-0.9-2.3-1.8-4-1.8c-3.8,0-6.5,2.9-6.5,7.6
	C217.3,32.5,220,35.3,223.7,35.3z"/>
<path d="M289.3,34.3c3.8,0,6.5-3.1,6.5-9.2s-2.7-9-6.5-9c-3.8,0-6.5,3-6.5,9S285.5,34.3,289.3,34.3z M289.3,32.5
	c-2.5,0-4.3-2.2-4.3-7.4c0-5.2,1.8-7.2,4.3-7.2c2.5,0,4.3,2,4.3,7.2C293.6,30.3,291.8,32.5,289.3,32.5z M305.4,28.3
	c2,0,3.3-1.7,3.3-4.7c0-2.9-1.3-4.6-3.3-4.6c-2,0-3.3,1.7-3.3,4.6C302.1,26.6,303.4,28.3,305.4,28.3z M305.4,27.2
	c-1.1,0-1.9-1.2-1.9-3.5s0.8-3.5,1.9-3.5c1.2,0,2,1.1,2,3.5S306.6,27.2,305.4,27.2z M305.8,34.3h1.2l8.1-15.2h-1.2L305.8,34.3z
	 M315.6,34.3c2,0,3.3-1.7,3.3-4.6c0-2.9-1.3-4.6-3.3-4.6s-3.3,1.7-3.3,4.6C312.3,32.6,313.6,34.3,315.6,34.3z M315.6,33.1
	c-1.2,0-1.9-1.2-1.9-3.5s0.8-3.5,1.9-3.5c1.1,0,1.9,1.1,1.9,3.5S316.8,33.1,315.6,33.1z"/>
<path class="st1" d="M136,21.6l-3.4-2.3l0.8-4c0.1-0.7-0.1-1.5-0.6-2.1c-0.5-0.5-1.3-0.8-2-0.6l-4,0.8l-2.3-3.4
	c-0.9-1.3-2.9-1.3-3.8,0l-2.3,3.4l-4-0.8c-0.8-0.1-1.5,0.1-2.1,0.6c-0.5,0.5-0.8,1.3-0.6,2.1l0.8,4l-3.4,2.3c-0.6,0.4-1,1.1-1,1.9
	c0,0.8,0.4,1.5,1,1.9l3.4,2.3l-0.8,4c-0.1,0.7,0.1,1.5,0.6,2.1c0.5,0.5,1.3,0.8,2.1,0.6l4-0.8l2.3,3.4c0.4,0.6,1.1,1,1.9,1
	c0.8,0,1.5-0.4,1.9-1l2.3-3.4l4,0.8c0.8,0.2,1.5-0.1,2.1-0.6c0.5-0.5,0.8-1.3,0.6-2.1l-0.8-4l3.4-2.3c0.6-0.4,1-1.1,1-1.9
	C137,22.7,136.6,22,136,21.6z M129.6,26.4l1,5.2l-5.2-1l-2.9,4.4l-2.9-4.4l-5.1,1l1-5.2l-4.3-2.9l4.3-2.9l-1-5.2l5.2,1l2.9-4.3
	l2.9,4.4l5.2-1l-1,5.2l4.3,2.9L129.6,26.4z M122.5,17.6c-3.2,0-5.9,2.6-5.9,5.9c0,3.2,2.6,5.9,5.9,5.9c3.2,0,5.9-2.6,5.9-5.9
	C128.4,20.3,125.7,17.6,122.5,17.6z M122.5,26.7c-1.8,0-3.2-1.4-3.2-3.2s1.4-3.2,3.2-3.2s3.2,1.4,3.2,3.2S124.2,26.7,122.5,26.7z"/>
</svg>
