<svg width="381" height="80" viewBox="0 0 381 80" fill="none" xmlns="http://www.w3.org/2000/svg">
<rect width="359" height="80" rx="40" fill="white" fill-opacity="0.56"/>
<path d="M95.6783 58H96.5183V53.688H98.3803C100.648 53.688 102.048 52.708 102.048 50.664C102.048 48.55 100.634 47.794 98.3243 47.794H95.6783V58ZM96.5183 52.988V48.494H98.1563C100.186 48.494 101.194 49.012 101.194 50.664C101.194 52.302 100.228 52.988 98.2123 52.988H96.5183ZM105.161 58.182C105.427 58.182 105.567 58.14 105.707 58.098L105.581 57.454C105.427 57.482 105.371 57.482 105.315 57.482C105.119 57.482 104.979 57.328 104.979 56.978V46.87H104.167V56.894C104.167 57.762 104.489 58.182 105.161 58.182ZM110.755 58.182C111.833 58.182 112.533 57.832 113.135 57.454L112.827 56.852C112.267 57.244 111.637 57.496 110.839 57.496C109.229 57.496 108.151 56.222 108.109 54.402H113.401C113.429 54.22 113.443 54.024 113.443 53.814C113.443 51.63 112.365 50.342 110.559 50.342C108.879 50.342 107.283 51.854 107.283 54.276C107.283 56.726 108.837 58.182 110.755 58.182ZM108.109 53.758C108.263 52.05 109.355 51.042 110.573 51.042C111.875 51.042 112.701 51.952 112.701 53.758H108.109ZM115.432 58H116.244V52.414C117.112 51.518 117.728 51.07 118.596 51.07C119.744 51.07 120.234 51.784 120.234 53.338V58H121.046V53.226C121.046 51.308 120.332 50.342 118.778 50.342C117.756 50.342 116.986 50.93 116.23 51.672H116.202L116.104 50.538H115.432V58ZM125.831 58.182C126.167 58.182 126.643 58.056 127.077 57.902L126.881 57.258C126.615 57.384 126.251 57.482 125.971 57.482C124.977 57.482 124.725 56.866 124.725 55.928V51.224H126.867V50.538H124.725V48.382H124.039L123.941 50.538L122.751 50.608V51.224H123.913V55.872C123.913 57.258 124.361 58.182 125.831 58.182ZM128.443 61.36C129.815 61.36 130.585 60.156 131.019 58.868L133.931 50.538H133.105L131.579 55.102C131.369 55.746 131.131 56.53 130.907 57.202H130.837C130.571 56.53 130.291 55.746 130.053 55.102L128.317 50.538H127.435L130.487 58.112L130.291 58.742C129.927 59.82 129.325 60.632 128.429 60.632C128.219 60.632 127.981 60.576 127.827 60.52L127.645 61.206C127.855 61.304 128.149 61.36 128.443 61.36ZM141.378 58.182C143.184 58.182 144.752 56.754 144.752 54.276C144.752 51.784 143.184 50.342 141.378 50.342C139.572 50.342 138.004 51.784 138.004 54.276C138.004 56.754 139.572 58.182 141.378 58.182ZM141.378 57.482C139.922 57.482 138.858 56.18 138.858 54.276C138.858 52.372 139.922 51.056 141.378 51.056C142.834 51.056 143.912 52.372 143.912 54.276C143.912 56.18 142.834 57.482 141.378 57.482ZM147.058 58H147.87V51.224H149.564V50.538H147.87V49.012C147.87 47.962 148.22 47.374 149.018 47.374C149.298 47.374 149.592 47.444 149.9 47.584L150.096 46.926C149.746 46.786 149.354 46.688 148.976 46.688C147.716 46.688 147.058 47.486 147.058 48.97V50.538L146.022 50.608V51.224H147.058V58ZM115.291 73.182C116.943 73.182 117.853 72.202 117.853 71.054C117.853 69.612 116.593 69.206 115.445 68.772C114.577 68.45 113.765 68.142 113.765 67.316C113.765 66.644 114.269 66.028 115.389 66.028C116.117 66.028 116.635 66.322 117.139 66.7L117.573 66.14C117.027 65.692 116.229 65.342 115.403 65.342C113.821 65.342 112.953 66.266 112.953 67.358C112.953 68.646 114.129 69.108 115.235 69.5C116.103 69.808 117.041 70.214 117.041 71.096C117.041 71.866 116.467 72.51 115.333 72.51C114.311 72.51 113.625 72.104 112.981 71.572L112.547 72.16C113.233 72.72 114.199 73.182 115.291 73.182ZM121.929 73.182C122.965 73.182 123.721 72.608 124.449 71.768H124.491L124.561 73H125.247V65.538H124.435V70.998C123.595 72.006 122.979 72.454 122.111 72.454C120.963 72.454 120.487 71.74 120.487 70.214V65.538H119.675V70.312C119.675 72.23 120.375 73.182 121.929 73.182ZM128.045 73H128.857V67.414C129.725 66.518 130.341 66.07 131.209 66.07C132.357 66.07 132.847 66.784 132.847 68.338V73H133.659V68.226C133.659 66.308 132.945 65.342 131.391 65.342C130.369 65.342 129.599 65.93 128.843 66.672H128.815L128.717 65.538H128.045V73Z" fill="black"/>
<path d="M192.165 62H193.077V55.008C193.077 53.84 192.997 52.752 192.949 51.632H193.029L194.341 53.968L199.093 62H200.085V50.336H199.173V57.248C199.173 58.384 199.237 59.552 199.301 60.704H199.221L197.925 58.352L193.157 50.336H192.165V62ZM206.533 62.208C208.597 62.208 210.389 60.576 210.389 57.744C210.389 54.896 208.597 53.248 206.533 53.248C204.469 53.248 202.677 54.896 202.677 57.744C202.677 60.576 204.469 62.208 206.533 62.208ZM206.533 61.408C204.869 61.408 203.653 59.92 203.653 57.744C203.653 55.568 204.869 54.064 206.533 54.064C208.197 54.064 209.429 55.568 209.429 57.744C209.429 59.92 208.197 61.408 206.533 61.408ZM214.193 62H215.313L216.705 56.896C216.977 56.064 217.169 55.264 217.361 54.416H217.441C217.681 55.264 217.841 56.048 218.081 56.864L219.521 62H220.721L223.121 53.472H222.209L220.753 58.848C220.545 59.664 220.353 60.4 220.161 61.168H220.097C219.873 60.4 219.681 59.664 219.473 58.848L217.953 53.472H216.929L215.409 58.848C215.201 59.648 215.009 60.4 214.801 61.168H214.721C214.561 60.4 214.369 59.664 214.177 58.848L212.689 53.472H211.697L214.193 62Z" fill="black"/>
<path d="M275.813 62H276.773V57.072H278.901C281.493 57.072 283.093 55.952 283.093 53.616C283.093 51.2 281.477 50.336 278.837 50.336H275.813V62ZM276.773 56.272V51.136H278.645C280.965 51.136 282.117 51.728 282.117 53.616C282.117 55.488 281.013 56.272 278.709 56.272H276.773ZM285.514 62H286.442V56.272C287.066 54.688 287.978 54.128 288.73 54.128C289.066 54.128 289.226 54.16 289.514 54.272L289.706 53.44C289.434 53.296 289.178 53.248 288.842 53.248C287.85 53.248 287.002 53.984 286.426 55.056H286.394L286.282 53.472H285.514V62ZM294.356 62.208C295.588 62.208 296.388 61.808 297.076 61.376L296.724 60.688C296.084 61.136 295.364 61.424 294.452 61.424C292.612 61.424 291.38 59.968 291.332 57.888H297.38C297.412 57.68 297.428 57.456 297.428 57.216C297.428 54.72 296.196 53.248 294.132 53.248C292.212 53.248 290.388 54.976 290.388 57.744C290.388 60.544 292.164 62.208 294.356 62.208ZM291.332 57.152C291.508 55.2 292.756 54.048 294.148 54.048C295.636 54.048 296.58 55.088 296.58 57.152H291.332ZM302.902 62.208C303.974 62.208 304.886 61.744 305.638 61.104L305.174 60.464C304.598 60.976 303.83 61.408 302.95 61.408C301.158 61.408 299.974 59.92 299.974 57.744C299.974 55.568 301.27 54.064 302.966 54.064C303.766 54.064 304.39 54.432 304.918 54.928L305.446 54.288C304.854 53.76 304.086 53.248 302.95 53.248C300.838 53.248 298.998 54.896 298.998 57.744C298.998 60.576 300.678 62.208 302.902 62.208ZM307.686 62H308.614V53.472H307.686V62ZM308.166 51.472C308.582 51.472 308.902 51.168 308.902 50.688C308.902 50.24 308.582 49.952 308.166 49.952C307.734 49.952 307.414 50.24 307.414 50.688C307.414 51.168 307.734 51.472 308.166 51.472ZM311.795 65.808H312.723V62.736L312.707 61.168C313.571 61.84 314.419 62.208 315.219 62.208C317.219 62.208 318.979 60.512 318.979 57.6C318.979 54.976 317.827 53.248 315.555 53.248C314.515 53.248 313.539 53.872 312.707 54.512H312.675L312.563 53.472H311.795V65.808ZM315.139 61.392C314.515 61.392 313.635 61.12 312.723 60.352V55.424C313.715 54.544 314.563 54.064 315.379 54.064C317.283 54.064 317.987 55.552 317.987 57.6C317.987 59.888 316.803 61.392 315.139 61.392Z" fill="black"/>
<path d="M33.7948 33H39.0588V32.286H36.9308V23.088H36.2728C35.7828 23.382 35.1528 23.606 34.3268 23.746V24.292H36.1048V32.286H33.7948V33ZM40.139 35.478H40.797L45.417 21.982H44.745L40.139 35.478ZM46.1388 33H52.2848V32.272H49.0368C48.4908 32.272 47.9028 32.314 47.3568 32.356C50.0308 29.542 51.7948 27.652 51.7948 25.706C51.7948 24.026 50.7448 22.906 48.9668 22.906C47.7348 22.906 46.8668 23.536 46.0968 24.376L46.6148 24.866C47.2028 24.138 48.0008 23.606 48.8828 23.606C50.3248 23.606 50.9688 24.53 50.9688 25.734C50.9688 27.442 49.3308 29.262 46.1388 32.496V33ZM56.795 33.182C58.615 33.182 59.847 32.034 59.847 30.592C59.847 29.248 58.965 28.59 58.111 28.058V27.988C58.685 27.526 59.511 26.588 59.511 25.496C59.511 24.012 58.503 22.906 56.809 22.906C55.325 22.906 54.177 23.9 54.177 25.356C54.177 26.406 54.849 27.148 55.577 27.638V27.694C54.653 28.184 53.631 29.136 53.631 30.466C53.631 32.02 54.961 33.182 56.795 33.182ZM57.509 27.764C56.235 27.274 54.961 26.714 54.961 25.356C54.961 24.306 55.731 23.564 56.795 23.564C58.041 23.564 58.755 24.46 58.755 25.524C58.755 26.35 58.321 27.092 57.509 27.764ZM56.795 32.524C55.409 32.524 54.401 31.614 54.401 30.424C54.401 29.36 55.115 28.562 56.067 27.988C57.593 28.59 59.035 29.094 59.035 30.578C59.035 31.67 58.153 32.524 56.795 32.524ZM37.8151 53H38.6691V43.508H41.8891V42.794H34.6091V43.508H37.8151V53ZM43.7369 53H44.5489V47.414C45.4169 46.518 46.0329 46.07 46.9009 46.07C48.0489 46.07 48.5389 46.784 48.5389 48.338V53H49.3509V48.226C49.3509 46.308 48.6369 45.342 47.0829 45.342C46.0609 45.342 45.2909 45.93 44.5349 46.686L44.5489 45.062V41.87H43.7369V53ZM54.1231 53.182C55.1591 53.182 55.9151 52.608 56.6431 51.768H56.6851L56.7551 53H57.4411V45.538H56.6291V50.998C55.7891 52.006 55.1731 52.454 54.3051 52.454C53.1571 52.454 52.6811 51.74 52.6811 50.214V45.538H51.8691V50.312C51.8691 52.23 52.5691 53.182 54.1231 53.182Z" fill="black"/>
<path d="M192.824 28.4L197.312 22.304C197.936 21.416 198.512 20.408 199.208 19.304H199.304C199.232 20.48 199.208 21.56 199.208 22.52V28.4H192.824ZM203.984 28.4H201.272V17.36H198.56L190.328 28.688V30.152H199.208V35H201.272V30.152H203.984V28.4ZM212.76 25.46C214.26 25.46 215.56 24.32 215.56 22.6C215.56 20.84 214.26 19.74 212.76 19.74C211.24 19.74 209.94 20.84 209.94 22.6C209.94 24.32 211.24 25.46 212.76 25.46ZM212.76 24.42C211.76 24.42 211.08 23.66 211.08 22.6C211.08 21.52 211.76 20.78 212.76 20.78C213.74 20.78 214.44 21.52 214.44 22.6C214.44 23.66 213.74 24.42 212.76 24.42ZM223.7 35.26C225.56 35.26 227 34.52 228.16 33.16L227.06 31.98C226.14 33.02 225.14 33.58 223.74 33.58C220.98 33.58 219.24 31.3 219.24 27.66C219.24 24.04 221.06 21.78 223.82 21.78C225.04 21.78 225.96 22.28 226.74 23.1L227.82 21.9C226.96 20.98 225.54 20.1 223.8 20.1C220.04 20.1 217.26 22.96 217.26 27.7C217.26 32.46 220 35.26 223.7 35.26Z" fill="black"/>
<path d="M289.291 34.288C293.131 34.288 295.795 31.144 295.795 25.12C295.795 19.096 293.131 16.096 289.291 16.096C285.451 16.096 282.787 19.096 282.787 25.12C282.787 31.144 285.451 34.288 289.291 34.288ZM289.291 32.512C286.771 32.512 284.947 30.328 284.947 25.12C284.947 19.888 286.771 17.872 289.291 17.872C291.811 17.872 293.635 19.888 293.635 25.12C293.635 30.328 291.811 32.512 289.291 32.512ZM305.391 28.32C307.411 28.32 308.731 26.62 308.731 23.66C308.731 20.72 307.411 19.06 305.391 19.06C303.391 19.06 302.071 20.72 302.071 23.66C302.071 26.62 303.391 28.32 305.391 28.32ZM305.391 27.18C304.251 27.18 303.451 26 303.451 23.66C303.451 21.32 304.251 20.18 305.391 20.18C306.551 20.18 307.351 21.32 307.351 23.66C307.351 26 306.551 27.18 305.391 27.18ZM305.831 34.26H307.051L315.151 19.06H313.911L305.831 34.26ZM315.611 34.26C317.611 34.26 318.931 32.58 318.931 29.62C318.931 26.68 317.611 25.02 315.611 25.02C313.611 25.02 312.271 26.68 312.271 29.62C312.271 32.58 313.611 34.26 315.611 34.26ZM315.611 33.14C314.451 33.14 313.671 31.96 313.671 29.62C313.671 27.28 314.451 26.14 315.611 26.14C316.751 26.14 317.551 27.28 317.551 29.62C317.551 31.96 316.751 33.14 315.611 33.14Z" fill="black"/>
<path d="M135.986 21.5694L132.6 19.2755L133.376 15.2542C133.523 14.5066 133.285 13.7363 132.747 13.1926C132.203 12.6546 131.433 12.4167 130.697 12.5639L126.682 13.3399L124.394 9.94727C123.539 8.68424 121.455 8.68424 120.6 9.94727L118.312 13.3399L114.303 12.5639C113.55 12.4223 112.785 12.6546 112.247 13.1983C111.709 13.742 111.471 14.5066 111.619 15.2542L112.394 19.2755L109.008 21.5694C108.374 21.9998 108 22.7078 108 23.4724C108 24.237 108.379 24.945 109.008 25.3698L112.394 27.6636L111.619 31.6849C111.471 32.4325 111.709 33.2028 112.247 33.7408C112.785 34.2789 113.544 34.5168 114.303 34.3695L118.312 33.5936L120.6 36.9862C121.025 37.6205 121.738 38 122.497 38C123.256 38 123.97 37.6205 124.394 36.9918L126.682 33.5992L130.697 34.3752C131.456 34.5281 132.215 34.2846 132.753 33.7465C133.291 33.2084 133.523 32.4382 133.381 31.6905L132.606 27.6693L135.992 25.3754C136.621 24.9506 137 24.237 137 23.4781C136.994 22.7078 136.621 21.9998 135.986 21.5694ZM129.593 26.4176L130.59 31.5829L125.436 30.5861L122.497 34.9416L119.558 30.5804L114.41 31.5773L115.407 26.4119L111.058 23.4667L115.407 20.5216L114.41 15.3562L119.564 16.353L122.497 12.0032L125.436 16.3587L130.59 15.3618L129.593 20.5216L133.942 23.4667L129.593 26.4176ZM122.497 17.6104C119.252 17.6104 116.608 20.2554 116.608 23.5007C116.608 26.7461 119.252 29.391 122.497 29.391C125.742 29.391 128.387 26.7461 128.387 23.5007C128.387 20.2554 125.742 17.6104 122.497 17.6104ZM122.497 26.6724C120.747 26.6724 119.326 25.2508 119.326 23.5007C119.326 21.7506 120.747 20.329 122.497 20.329C124.247 20.329 125.668 21.7506 125.668 23.5007C125.668 25.2508 124.247 26.6724 122.497 26.6724Z" fill="#F57F5A"/>
</svg>
