<?xml version="1.0" encoding="utf-8"?>
<!-- Generator: Adobe Illustrator 15.1.0, SVG Export Plug-In  -->
<!DOCTYPE svg PUBLIC "-//W3C//DTD SVG 1.1//EN" "http://www.w3.org/Graphics/SVG/1.1/DTD/svg11.dtd" [
	<!ENTITY ns_flows "http://ns.adobe.com/Flows/1.0/">
]>
<svg version="1.1"
	 xmlns="http://www.w3.org/2000/svg" xmlns:xlink="http://www.w3.org/1999/xlink" xmlns:a="http://ns.adobe.com/AdobeSVGViewerExtensions/3.0/"
	 x="0px" y="0px" width="391px" height="151px" viewBox="-0.205 0 391 151" enable-background="new -0.205 0 391 151"
	 xml:space="preserve">
<defs>
</defs>
<polygon fill="#A2AACF" points="9.493,87.23 11.139,61.167 18.273,42.231 28.89,26.216 54.185,11.267 80.485,5.964 103.93,11.558 
	121.131,21.933 136.768,38.406 146.674,59.167 147.855,87.681 "/>
<path fill="#D2E7A5" d="M146.674,87.23l-42.831-0.456l0.744,53.376c0,0,4.91,0.215,20.122-12.527S146.674,87.23,146.674,87.23z"/>
<polygon fill="#D2E7A5" points="58.555,86.774 42.221,134.792 19.222,113.916 10.48,87.681 "/>
<path fill="#F8B62D" d="M58.555,87.23H103.1c0,0,1.353,42.773,1.487,51.275c0.05,3.135-14.491,8.431-29.675,6.561
	c-16.259-2.004-33.219-8.402-32.691-10.274C43.375,130.698,58.555,87.23,58.555,87.23z"/>
<polyline fill="#DEC99F" points="32.634,87.23 40.078,43.425 69.055,44.718 69.055,86.589 32.634,87.23 "/>
<polygon fill="#DEC99F" points="78.676,87.23 100.171,44.718 130.51,87.23 "/>
<polygon fill="none" stroke="#A40B5D" stroke-width="2.5" points="40.078,43.425 68.291,44.718 69.055,86.589 32.634,87.23 "/>
<circle fill="none" stroke="#A40B5D" stroke-width="2.5" cx="78.674" cy="75.986" r="69.181"/>
<line fill="none" stroke="#A40B5D" stroke-width="2.5" x1="28.89" y1="27.954" x2="126.679" y2="26.216"/>
<line fill="none" stroke="#A40B5D" stroke-width="2.5" x1="48.875" y1="12.531" x2="54.771" y2="44.718"/>
<line fill="none" stroke="#A40B5D" stroke-width="2.5" x1="105.954" y1="12.392" x2="95.236" y2="44.718"/>
<line fill="none" stroke="#A40B5D" stroke-width="2.5" x1="40.078" y1="44.718" x2="68.291" y2="44.718"/>
<line fill="none" stroke="#A40B5D" stroke-width="2.5" x1="37.584" y1="56.674" x2="68.291" y2="56.674"/>
<line fill="none" stroke="#A40B5D" stroke-width="2.5" x1="35.5" y1="73.238" x2="68.291" y2="73.238"/>
<line fill="none" stroke="#A40B5D" stroke-width="2.5" x1="68.291" y1="43.425" x2="68.291" y2="87.23"/>
<line fill="none" stroke="#A40B5D" stroke-width="2.5" x1="82.742" y1="44.718" x2="121.131" y2="44.718"/>
<line fill="none" stroke="#A40B5D" stroke-width="2.5" x1="80.485" y1="56.674" x2="125.713" y2="56.674"/>
<line fill="none" stroke="#A40B5D" stroke-width="2.5" x1="103.099" y1="39.156" x2="78.676" y2="87.23"/>
<line fill="none" stroke="#A40B5D" stroke-width="2.5" x1="100.171" y1="44.718" x2="130.51" y2="87.23"/>
<line fill="none" stroke="#A40B5D" stroke-width="2.5" x1="103.099" y1="57.184" x2="103.099" y2="87.681"/>
<line fill="none" stroke="#A40B5D" stroke-width="2.3333" x1="103.1" y1="79.749" x2="86.163" y2="87.23"/>
<line fill="none" stroke="#A40B5D" stroke-width="2.5" x1="102.74" y1="70.572" x2="90.421" y2="66.285"/>
<line fill="none" stroke="#A40B5D" stroke-width="2.382" x1="103.1" y1="69.821" x2="116.098" y2="67.036"/>
<line fill="none" stroke="#A40B5D" stroke-width="2.5" x1="103.099" y1="73.238" x2="126.247" y2="81.263"/>
<line fill="none" stroke="#A40B5D" stroke-width="2.5" x1="383.76" y1="87.23" x2="9.493" y2="87.23"/>
<line fill="none" stroke="#A40B5D" stroke-width="2.5" x1="58.555" y1="87.23" x2="42.233" y2="133.775"/>
<line fill="none" stroke="#A40B5D" stroke-width="2.5" x1="103.099" y1="87.681" x2="104.587" y2="140.15"/>
<line fill="none" stroke="#A40B5D" stroke-width="2.5" x1="52.324" y1="103.818" x2="104.31" y2="103.818"/>
<line fill="none" stroke="#A40B5D" stroke-width="2.5312" x1="47.49" y1="118.784" x2="103.956" y2="118.784"/>
<g>
	<text transform="matrix(1 0 0 1 187.8936 75.0742)" fill="#A40B5D" font-family="'HGSKyokashotai'" font-size="55.7749">藤月町</text>
</g>
<g>
	<text transform="matrix(1 0 0 1 194.6895 25.311)"><tspan x="0" y="0" fill="#A40B5D" font-family="'HGSKyokashotai'" font-size="19.7732" letter-spacing="2">ふじのつき</tspan><tspan x="113.104" y="0" fill="#A40B5D" font-family="'HGSKyokashotai'" font-size="19.7732" letter-spacing="3">まち</tspan></text>
</g>
<g>
	
		<text transform="matrix(1 0 0 1 165.1719 127.7837)" fill="#A40B5D" font-family="'HGSKyokashotai'" font-size="32" letter-spacing="-1">藤月町観光協会</text>
</g>
<rect id="_x3C_スライス_x3E__2_" fill="none" width="391" height="151"/>
</svg>
