<?xml version="1.0" encoding="utf-8"?>
<!-- Generator: Adobe Illustrator 15.1.0, SVG Export Plug-In  -->
<!DOCTYPE svg PUBLIC "-//W3C//DTD SVG 1.1//EN" "http://www.w3.org/Graphics/SVG/1.1/DTD/svg11.dtd" [
	<!ENTITY ns_flows "http://ns.adobe.com/Flows/1.0/">
]>
<svg version="1.1"
	 xmlns="http://www.w3.org/2000/svg" xmlns:xlink="http://www.w3.org/1999/xlink" xmlns:a="http://ns.adobe.com/AdobeSVGViewerExtensions/3.0/"
	 x="0px" y="0px" width="340px" height="340px" viewBox="-56.404 -25.671 340 340" enable-background="new -56.404 -25.671 340 340"
	 xml:space="preserve">
<defs>
</defs>
<polygon fill="#C4A76A" points="52.648,1.633 87.35,2.207 140.001,14.503 227.352,21.119 212.992,126.99 199.83,170.579 
	187.864,222.566 140.001,210.446 94.529,202.509 0,190.058 17.947,99.962 34.7,83.16 34.7,39.244 "/>
<polygon fill="#B59A62" points="34.7,40.578 80.17,45.149 119.281,108.825 28.328,89.549 "/>
<polygon fill="#BFA368" points="198.927,174.502 155.557,168.637 142.395,209.811 186.667,221.374 "/>
<polygon fill="#B59A62" points="119.281,108.825 92.735,202.228 140.001,210.601 155.557,163.339 "/>
<polygon fill="#E0BD77" points="119.281,108.825 211.796,125.045 198.927,174.506 155.557,166.929 "/>
<polygon fill="#E0BD77" points="53.846,1.633 78.976,45.472 34.7,41.282 "/>
<polygon fill="#BFA368" points="53.846,1.633 85.556,1.633 78.976,45.472 "/>
<path fill="#E0BD77" d="M136.186,13.612c-5.633,31.739-11.27,63.479-16.904,95.213L78.976,45.471L83.76,0
	C101.237,4.539,118.711,9.075,136.186,13.612"/>
<g>
	<defs>
		<rect id="SVGID_7_" x="26.662" y="24.466" width="178.902" height="173.857"/>
	</defs>
	<clipPath id="SVGID_8_">
		<use xlink:href="#SVGID_7_"  overflow="visible"/>
	</clipPath>
	<polygon clip-path="url(#SVGID_8_)" fill="#33A761" points="68.091,24.466 90.957,26.82 133.825,33.894 205.564,39.803 
		194.265,123.113 183.196,160.502 174.491,198.323 136.828,188.783 99.635,182.315 26.662,172.74 40.785,101.842 55.093,90.094 
		53.967,55.67 	"/>
</g>
<g>
	<defs>
		<rect id="SVGID_6_" x="37.964" y="108.687" width="128.684" height="71.961"/>
	</defs>
	<clipPath id="SVGID_9_">
		<use xlink:href="#SVGID_6_"  overflow="visible"/>
	</clipPath>
	<path clip-path="url(#SVGID_9_)" fill="#886138" d="M56.85,130.533c0.304,1.666,0.205,2.053-0.301,1.16
		c2.06,2.063,4.124,4.124,6.184,6.184c4.33-4.956,9.11-9.065,14.588-12.735c-1.767-2.292-3.533-4.578-5.298-6.869
		c-3.41,3.464-6.634,6.953-9.537,10.854c-3.128,4.208,3.348,8.341,6.865,5.3c6.969-6.024,14.039-11.917,20.669-18.314
		c4.063-3.915-2.121-10.082-6.183-6.184c-11.966,11.481-23.003,23.807-33.729,36.445c-3.018,3.552,0.867,9.758,5.296,6.863
		c10.682-6.969,20.373-15.801,32.409-20.437c-1.646-2.143-3.294-4.282-4.939-6.425c-11.029,16.438-29.188,26.38-43.536,39.545
		c-4.157,3.813,2.037,9.975,6.186,6.186c20.764-18.986,43.093-36.166,63.757-55.265c-2.29-1.767-4.579-3.533-6.869-5.297
		c-6.599,9.666-14.58,18.175-22.153,27.063c2.062,2.064,4.122,4.126,6.183,6.184c5.493-6.669,12.341-11.821,18.728-17.575
		c-2.059-2.062-4.121-4.126-6.181-6.188c-11.796,13.679-26.372,24.415-39.354,36.875c2.063,2.062,4.121,4.124,6.183,6.187
		c9.555-9.529,21.557-16.027,31.077-25.6c4.048-4.07-1.911-9.686-6.184-6.184c-6.481,5.315-13.065,10.377-18.626,16.689
		c-3.729,4.233,1.946,9.908,6.184,6.183c10.202-8.975,19.72-18.696,30.204-27.353c-2.437-1.419-4.874-2.837-7.308-4.252
		c-2.034,6.493-7.612,10.137-13.029,13.706c1.994,1.992,3.987,3.988,5.982,5.981c5.219-8.673,12.844-22.333,23.089-25.701
		c-1.647-2.142-3.292-4.281-4.938-6.421c-5.183,8.907-13.068,15.287-21.361,21.189c1.765,2.29,3.53,4.58,5.298,6.865
		c6.104-5.633,12.83-10.422,19.504-15.342c-1.765-2.291-3.532-4.577-5.298-6.867c-15.197,13.533-37.464,25.122-41.41,46.974
		c-0.526,2.918,1.972,6.698,5.378,5.377c21.385-8.285,34.837-27.289,53.875-39.169c-1.995-1.994-3.99-3.986-5.984-5.983
		c-2.771,5.389-7.825,8.798-11.837,13.198c2.286,1.768,4.576,3.535,6.866,5.299c5.341-10.104,13.652-20.974,24.446-25.532
		c-2.142-1.649-4.281-3.291-6.423-4.94c-3.55,11.616-13.257,20.168-17.828,31.409c-1.808,4.447,4.372,6.748,7.307,4.253
		c7.643-6.494,14.427-13.954,22.426-20.03c-1.767-2.29-3.532-4.577-5.298-6.868c-14.983,15.492-31.737,29.206-45.612,45.757
		c-2.94,3.51,0.955,9.971,5.298,6.871c9.056-6.471,16.533-14.597,24.789-21.994c4.269-3.833-1.883-9.612-6.182-6.186
		c-10.874,8.663-20.003,21.659-33.399,26.549c1.792,1.794,3.586,3.584,5.379,5.378c3.17-16.039,20.42-26.625,31.137-37.655
		c4.011-4.126-1.891-9.642-6.184-6.182c-7.37,5.948-14.438,12.254-22.114,17.82c-4.501,3.265-0.195,10.832,4.414,7.549
		c11.073-7.883,23.735-14.246,37.113-16.971c-1.647-2.141-3.294-4.283-4.938-6.425c-2.283,4.818-5.324,8.626-9.163,12.276
		c2.289,1.765,4.578,3.529,6.868,5.298c5.441-8.452,12.672-15.359,21.141-20.738l-5.981-5.984c-0.789,1.574-1.55,3.159-2.281,4.76
		c-1.672,3.572,2.034,8.706,5.982,5.982c6.482-4.467,11.647-10.219,17.224-15.715l-6.864-5.299
		c-9.534,17.792-29.885,24.934-43.732,38.665c-3.344,3.314,0.19,7.976,4.253,7.308c9.64-1.577,16.518-10.21,24.219-15.457
		c-1.994-1.997-3.988-3.99-5.981-5.983c-4.933,6.515-10.339,12.628-14.799,19.489c-2.22,3.413,1.433,7.141,4.938,6.421
		c12.793-2.623,19.761-14.155,30.56-20.317l-6.578-3.776c0.945,12.504-12.854,18.753-20.478,26.446
		c-3.966,4.003,2.165,10.138,6.184,6.184c5.319-5.234,9.939-11.087,15.787-15.764c4.396-3.517-1.829-9.667-6.184-6.186
		c-5.848,4.679-10.466,10.536-15.787,15.766l6.184,6.184c9.643-9.733,24.233-16.804,23.037-32.63
		c-0.245-3.253-3.537-5.508-6.579-3.773c-9.923,5.661-16.891,17.064-28.47,19.434c1.646,2.145,3.291,4.282,4.938,6.423
		c4.452-6.849,9.871-12.982,14.799-19.487c2.648-3.5-2.504-8.354-5.983-5.983c-6.979,4.755-13.521,13.171-22.128,14.579
		c1.418,2.438,2.837,4.874,4.254,7.308c14.521-14.394,35.043-21.667,45.099-40.435c2.312-4.322-3.252-8.861-6.87-5.297
		c-5.021,4.949-9.609,10.319-15.452,14.349c1.993,1.994,3.988,3.985,5.979,5.984c0.735-1.602,1.495-3.19,2.283-4.763
		c1.805-3.679-2.035-8.489-5.981-5.982c-9.754,6.196-18.017,14.149-24.278,23.875c-2.749,4.271,3.344,8.652,6.865,5.3
		c4.411-4.196,7.915-8.525,10.531-14.045c1.666-3.508-1.062-7.213-4.937-6.421c-14.044,2.864-27.58,9.577-39.203,17.854
		c1.474,2.517,2.944,5.035,4.414,7.549c8.282-6.002,15.931-12.771,23.884-19.187c-2.06-2.06-4.121-4.121-6.184-6.182
		c-11.912,12.258-29.845,23.597-33.385,41.51c-0.59,2.985,2,6.613,5.378,5.381c15.138-5.525,25.002-19.034,37.256-28.795
		c-2.061-2.064-4.123-4.127-6.182-6.186c-7.679,6.881-14.601,14.613-23.021,20.629c1.767,2.287,3.534,4.578,5.3,6.864
		c13.873-16.551,30.629-30.265,45.61-45.756c3.303-3.417-1.208-9.977-5.298-6.868c-8.609,6.54-15.971,14.411-24.193,21.399
		c2.435,1.415,4.87,2.834,7.308,4.255c4.601-11.32,14.204-19.553,17.826-31.411c1.237-4.044-3.175-6.309-6.421-4.938
		c-12.059,5.095-21.617,17.377-27.585,28.672c-2.23,4.225,3.386,9.116,6.868,5.297c4.557-4.996,10.056-8.842,13.206-14.967
		c1.905-3.708-2.078-8.42-5.983-5.98c-18.201,11.361-31.441,30.401-51.782,38.288c1.793,1.796,3.586,3.586,5.379,5.378
		c3.584-19.87,25.297-30.769,39.158-43.116c3.649-3.248-1.266-9.84-5.298-6.868c-7.271,5.363-14.624,10.571-21.273,16.714
		c-3.579,3.304,1.201,9.78,5.299,6.867c9.522-6.777,18.542-14.095,24.5-24.329c1.844-3.174-1.238-7.641-4.939-6.427
		c-12.898,4.247-21.675,18.695-28.313,29.722c-2.194,3.642,2.272,8.424,5.981,5.982c7.497-4.939,14.271-10.057,17.048-18.933
		c1.408-4.512-4.188-6.833-7.31-4.255c-10.482,8.656-19.999,18.382-30.203,27.354c2.063,2.062,4.122,4.122,6.184,6.183
		c5.558-6.31,12.148-11.379,18.626-16.688c-2.063-2.062-4.123-4.123-6.184-6.184c-9.516,9.57-21.517,16.066-31.076,25.597
		c-3.992,3.986,2.123,10.081,6.183,6.187c12.983-12.462,27.559-23.2,39.353-36.873c3.667-4.25-1.966-9.983-6.181-6.188
		c-6.396,5.763-13.232,10.907-18.729,17.579c-3.535,4.294,2.508,10.499,6.183,6.184c8.061-9.46,16.498-18.547,23.524-28.835
		c2.895-4.243-3.352-8.548-6.869-5.299c-20.665,19.1-42.989,36.282-63.758,55.264c2.063,2.06,4.121,4.125,6.186,6.186
		c15.01-13.774,33.35-24.105,44.9-41.317c2.025-3.017-1.386-7.792-4.937-6.419c-12.881,4.962-23.063,13.858-34.495,21.317
		c1.765,2.291,3.531,4.578,5.299,6.867c10.727-12.637,21.764-24.961,33.729-36.442c-2.059-2.061-4.121-4.124-6.183-6.184
		c-6.631,6.396-13.697,12.291-20.668,18.313c2.288,1.765,4.577,3.532,6.868,5.297c2.45-3.293,5.293-6.165,8.167-9.083
		c3.387-3.434-1.06-9.705-5.296-6.864c-6.055,4.056-11.553,8.602-16.359,14.1c-3.742,4.282,1.872,9.766,6.184,6.184
		c2.812-2.335,2.861-3.788,2.861-7.344C65.598,124.908,56.853,124.896,56.85,130.533"/>
</g>
<g>
	<defs>
		<rect id="SVGID_5_" x="95.263" y="65.499" width="106.195" height="59.384"/>
	</defs>
	<clipPath id="SVGID_10_">
		<use xlink:href="#SVGID_5_"  overflow="visible"/>
	</clipPath>
	<path clip-path="url(#SVGID_10_)" fill="#036EB8" d="M110.854,83.527c0.249,1.375,0.163,1.692-0.25,0.955l5.102,5.106
		c3.594-4.07,7.532-7.474,12.036-10.511l-4.369-5.665c-2.827,2.865-5.446,5.75-7.87,8.954c-2.61,3.452,2.765,6.879,5.667,4.374
		c5.755-4.967,11.566-9.845,17.053-15.114c-1.7-1.697-3.4-3.4-5.103-5.1c-9.865,9.481-18.978,19.647-27.832,30.071
		c-2.487,2.928,0.721,8.06,4.372,5.665c8.81-5.773,16.824-12.989,26.74-16.864c-1.357-1.767-2.715-3.534-4.074-5.301
		c-9.174,13.522-24.045,21.783-35.923,32.629c-3.437,3.14,1.676,8.229,5.103,5.104c17.147-15.652,35.543-29.856,52.607-45.601
		c-1.889-1.456-3.776-2.913-5.666-4.372c-5.469,7.959-12.023,15.003-18.282,22.333c1.702,1.7,3.404,3.401,5.102,5.102
		c4.56-5.495,10.17-9.759,15.455-14.503c-1.7-1.703-3.399-3.402-5.1-5.103c-9.767,11.259-21.741,20.157-32.474,30.426
		c1.702,1.7,3.403,3.399,5.102,5.103c7.912-7.83,17.757-13.255,25.642-21.123c3.355-3.347-1.575-7.984-5.1-5.102
		c-5.373,4.391-10.733,8.582-15.37,13.771c-3.105,3.476,1.616,8.177,5.102,5.102c8.411-7.416,16.282-15.415,24.924-22.571
		l-6.032-3.509c-1.729,5.337-6.294,8.369-10.75,11.311c1.646,1.645,3.291,3.289,4.936,4.935
		c4.417-7.311,10.494-18.259,19.052-21.207c-1.357-1.765-2.716-3.532-4.073-5.298c-4.357,7.368-10.743,12.574-17.627,17.485
		c1.458,1.888,2.916,3.777,4.372,5.665c5.055-4.623,10.581-8.604,16.093-12.662c-1.456-1.888-2.914-3.776-4.371-5.665
		c-12.643,11.204-30.743,20.731-34.169,38.762c-0.456,2.401,1.646,5.535,4.439,4.437c17.61-6.926,28.764-22.455,44.451-32.321
		c-1.645-1.646-3.291-3.29-4.936-4.937c-2.396,4.391-6.412,7.296-9.769,10.892c1.888,1.456,3.776,2.914,5.665,4.37
		c4.467-8.387,11.236-17.214,20.173-21.067c-1.768-1.359-3.534-2.719-5.301-4.075c-3.005,9.567-10.88,16.659-14.711,25.915
		c-1.515,3.663,3.62,5.564,6.03,3.511c6.298-5.368,11.914-11.5,18.504-16.527c-1.458-1.888-2.914-3.778-4.373-5.667
		c-12.381,12.766-26.156,24.123-37.635,37.757c-2.434,2.89,0.806,8.241,4.372,5.668c7.441-5.375,13.656-12.027,20.454-18.153
		c3.513-3.165-1.56-7.945-5.102-5.103c-8.967,7.197-16.529,17.773-27.559,21.908l4.439,4.438
		c2.777-13.265,16.753-21.923,25.691-31.069c3.317-3.398-1.563-7.959-5.102-5.104c-6.08,4.912-11.924,10.103-18.248,14.704
		c-3.703,2.695-0.176,8.931,3.642,6.23c9.202-6.501,19.55-11.685,30.623-14.002c-1.359-1.768-2.716-3.533-4.073-5.303
		c-1.93,3.969-4.367,7.06-7.562,10.127c1.889,1.458,3.777,2.917,5.667,4.373c4.582-7.021,10.398-12.583,17.442-17.112
		c-1.644-1.644-3.29-3.291-4.936-4.935c-0.65,1.296-1.276,2.608-1.881,3.928c-1.374,2.936,1.685,7.204,4.937,4.936
		c5.334-3.721,9.608-8.418,14.213-12.969c-1.89-1.456-3.777-2.915-5.666-4.372c-7.951,14.634-24.603,20.609-36.085,31.906
		c-2.736,2.691,0.143,6.644,3.512,6.027c7.962-1.454,13.596-8.351,19.982-12.755c-1.646-1.644-3.292-3.292-4.937-4.936
		c-4.081,5.371-8.511,10.43-12.211,16.08c-1.825,2.79,1.181,5.934,4.074,5.299c10.565-2.314,16.285-11.561,25.217-16.764
		c-1.811-1.038-3.621-2.076-5.429-3.115c0.605,10.288-10.54,15.487-16.897,21.821c-3.294,3.281,1.796,8.373,5.104,5.104
		c4.381-4.336,8.218-9.124,13.027-13.01c3.613-2.92-1.523-7.996-5.104-5.104c-4.809,3.888-8.645,8.676-13.027,13.009l5.104,5.104
		c8.1-8.072,19.777-13.851,19.008-26.925c-0.156-2.684-2.956-4.555-5.428-3.115c-8.188,4.769-13.943,13.946-23.49,16.038
		c1.357,1.765,2.713,3.531,4.073,5.3c3.69-5.64,8.137-10.721,12.21-16.082c2.185-2.875-2.071-6.915-4.936-4.936
		c-5.797,3.999-11.124,10.727-18.261,12.031c1.173,2.009,2.341,4.017,3.511,6.029c12.047-11.852,28.823-17.926,37.212-33.367
		c1.935-3.558-2.695-7.308-5.666-4.37c-4.141,4.094-7.945,8.487-12.754,11.839c1.646,1.646,3.292,3.291,4.938,4.935
		c0.603-1.319,1.229-2.626,1.881-3.925c1.483-3.026-1.682-7.027-4.937-4.938c-8.059,5.179-14.79,11.67-20.03,19.701
		c-2.287,3.503,2.771,7.156,5.664,4.374c3.617-3.479,6.479-7.04,8.689-11.589c1.399-2.88-0.897-5.965-4.074-5.3
		c-11.608,2.432-22.705,7.918-32.347,14.732c1.216,2.077,2.428,4.154,3.642,6.23c6.825-4.963,13.147-10.528,19.708-15.83
		c-1.701-1.701-3.401-3.402-5.102-5.104c-9.921,10.155-24.45,19.465-27.548,34.256c-0.514,2.446,1.673,5.473,4.437,4.439
		c12.463-4.67,20.629-15.65,30.742-23.765c-1.701-1.7-3.402-3.399-5.102-5.103c-6.327,5.702-12.067,12.023-18.995,17.022
		c1.458,1.888,2.915,3.78,4.373,5.667c11.479-13.633,25.254-24.992,37.635-37.756c2.73-2.817-1.005-8.235-4.371-5.667
		c-7.091,5.411-13.188,11.878-19.963,17.656c2.009,1.171,4.018,2.339,6.028,3.511c3.855-9.312,11.647-16.173,14.71-25.917
		c1.046-3.318-2.636-5.224-5.298-4.074c-9.979,4.303-17.771,14.285-22.761,23.658c-1.863,3.498,2.769,7.474,5.667,4.373
		c3.844-4.119,8.16-7.341,10.896-12.352c1.667-3.055-1.772-6.927-4.936-4.936c-14.997,9.432-25.976,25.005-42.729,31.593
		c1.479,1.478,2.959,2.958,4.437,4.438c3.114-16.382,20.803-25.377,32.314-35.577c3.018-2.672-1.048-8.113-4.372-5.665
		c-6.012,4.422-12.041,8.743-17.554,13.789c-2.971,2.714,1,8.073,4.372,5.666c7.873-5.618,15.231-11.649,20.212-20.074
		c1.531-2.585-1.032-6.348-4.072-5.301c-10.662,3.676-17.815,15.338-23.361,24.523c-1.814,3.004,1.877,6.953,4.935,4.938
		c6.249-4.125,11.686-8.272,14.066-15.623c1.203-3.721-3.477-5.626-6.03-3.512c-8.638,7.16-16.51,15.156-24.922,22.572
		c1.701,1.699,3.401,3.402,5.102,5.102c4.637-5.188,9.999-9.38,15.368-13.771c-1.7-1.7-3.401-3.399-5.1-5.102
		c-7.881,7.862-17.729,13.291-25.644,21.123c-3.309,3.272,1.748,8.313,5.102,5.103c10.732-10.269,22.706-19.167,32.472-30.425
		c3.037-3.501-1.621-8.229-5.1-5.103c-5.286,4.748-10.898,9.01-15.457,14.504c-2.933,3.535,2.069,8.654,5.102,5.102
		c6.663-7.802,13.591-15.322,19.412-23.792c2.401-3.496-2.768-7.049-5.668-4.372c-17.065,15.74-35.459,29.948-52.607,45.597
		c1.7,1.699,3.402,3.402,5.103,5.104c12.425-11.35,27.446-19.935,37.05-34.091c1.683-2.479-1.153-6.442-4.073-5.3
		c-10.595,4.14-19.048,11.424-28.464,17.593c1.457,1.888,2.913,3.776,4.373,5.667c8.855-10.425,17.966-20.587,27.831-30.073
		c3.355-3.222-1.748-8.318-5.103-5.1c-5.489,5.265-11.298,10.145-17.055,15.11c1.89,1.458,3.777,2.915,5.668,4.37
		c2.062-2.723,4.357-5.074,6.742-7.494c2.788-2.833-0.882-8.019-4.374-5.664c-5.008,3.38-9.486,7.092-13.497,11.634
		c-3.108,3.525,1.551,8.054,5.102,5.106c2.319-1.925,2.36-3.127,2.36-6.061C118.07,78.887,110.854,78.876,110.854,83.527"/>
</g>
<g>
	<defs>
		<rect id="SVGID_4_" x="43.922" y="46.779" width="106.193" height="59.383"/>
	</defs>
	<clipPath id="SVGID_11_">
		<use xlink:href="#SVGID_4_"  overflow="visible"/>
	</clipPath>
	<path clip-path="url(#SVGID_11_)" fill="#00913A" d="M59.511,64.807c0.249,1.374,0.168,1.695-0.249,0.957
		c1.7,1.703,3.402,3.402,5.101,5.103c3.596-4.072,7.533-7.47,12.038-10.508c-1.458-1.892-2.912-3.78-4.37-5.669
		c-2.827,2.869-5.445,5.752-7.871,8.956c-2.609,3.452,2.766,6.875,5.666,4.373c5.756-4.967,11.566-9.844,17.055-15.112
		c-1.699-1.699-3.402-3.402-5.102-5.101c-9.866,9.483-18.979,19.646-27.832,30.07c-2.488,2.93,0.719,8.063,4.37,5.668
		c8.81-5.773,16.825-12.99,26.74-16.868c-1.355-1.764-2.716-3.532-4.074-5.297C71.812,74.901,56.939,83.16,45.061,94.007
		c-3.438,3.137,1.678,8.227,5.104,5.103c17.145-15.648,35.543-29.859,52.607-45.598c-1.889-1.459-3.778-2.918-5.667-4.372
		c-5.469,7.959-12.024,15.001-18.282,22.332l5.104,5.102c4.557-5.495,10.166-9.758,15.453-14.504
		c-1.701-1.703-3.401-3.402-5.104-5.103c-9.763,11.259-21.738,20.157-32.471,30.425c1.701,1.701,3.402,3.401,5.103,5.104
		c7.908-7.831,17.756-13.257,25.642-21.124c3.354-3.348-1.576-7.984-5.103-5.103c-5.37,4.389-10.732,8.58-15.369,13.769
		c-3.104,3.477,1.613,8.177,5.103,5.102c8.413-7.415,16.282-15.41,24.923-22.57c-2.011-1.167-4.021-2.339-6.03-3.508
		c-1.729,5.338-6.296,8.368-10.749,11.312c1.645,1.645,3.29,3.29,4.936,4.934c4.416-7.311,10.492-18.256,19.05-21.205
		c-1.358-1.765-2.717-3.533-4.074-5.299c-4.356,7.366-10.744,12.571-17.626,17.483c1.457,1.89,2.914,3.778,4.371,5.667
		c5.057-4.626,10.583-8.604,16.096-12.663c-1.459-1.885-2.916-3.774-4.373-5.666C91.062,64.827,72.96,74.353,69.533,92.388
		c-0.453,2.402,1.645,5.535,4.44,4.438c17.61-6.926,28.765-22.458,44.45-32.323c-1.645-1.645-3.289-3.291-4.937-4.935
		c-2.396,4.39-6.411,7.292-9.768,10.89c1.889,1.457,3.777,2.914,5.668,4.372c4.465-8.386,11.235-17.217,20.17-21.069
		c-1.766-1.36-3.532-2.715-5.3-4.073c-3.006,9.565-10.879,16.66-14.712,25.913c-1.514,3.663,3.621,5.565,6.031,3.513
		c6.299-5.371,11.915-11.5,18.503-16.529c-1.456-1.889-2.913-3.778-4.371-5.666c-12.382,12.766-26.156,24.124-37.636,37.759
		c-2.433,2.886,0.807,8.239,4.372,5.663c7.443-5.372,13.656-12.024,20.453-18.148c3.514-3.165-1.557-7.946-5.104-5.102
		c-8.965,7.194-16.526,17.772-27.555,21.905c1.478,1.48,2.959,2.96,4.438,4.438c2.778-13.264,16.754-21.919,25.694-31.069
		c3.317-3.396-1.564-7.96-5.104-5.101c-6.079,4.911-11.926,10.102-18.247,14.704c-3.705,2.695-0.179,8.93,3.642,6.231
		c9.2-6.507,19.548-11.688,30.621-14.008c-1.358-1.766-2.715-3.532-4.073-5.298c-1.928,3.969-4.369,7.057-7.561,10.128
		c1.889,1.454,3.777,2.912,5.667,4.371c4.582-7.026,10.399-12.587,17.444-17.113c-1.647-1.646-3.292-3.292-4.937-4.935
		c-0.65,1.298-1.279,2.606-1.883,3.928c-1.374,2.936,1.685,7.201,4.937,4.937c5.334-3.724,9.61-8.417,14.213-12.97
		c-1.89-1.459-3.777-2.915-5.667-4.373c-7.948,14.634-24.602,20.61-36.082,31.907c-2.738,2.692,0.141,6.643,3.511,6.029
		c7.962-1.458,13.596-8.353,19.982-12.758c-1.646-1.647-3.291-3.29-4.938-4.937c-4.081,5.375-8.51,10.428-12.21,16.082
		c-1.826,2.788,1.179,5.934,4.073,5.297c10.566-2.312,16.286-11.56,25.216-16.764c-1.808-1.036-3.618-2.075-5.428-3.114
		c0.604,10.287-10.539,15.489-16.896,21.822c-3.296,3.281,1.795,8.372,5.101,5.103c4.383-4.334,8.219-9.124,13.028-13.009
		c3.612-2.918-1.523-7.998-5.103-5.102c-4.808,3.884-8.646,8.674-13.026,13.007c1.699,1.701,3.4,3.4,5.101,5.103
		c8.103-8.072,19.779-13.851,19.012-26.925c-0.159-2.685-2.958-4.555-5.429-3.115c-8.188,4.771-13.945,13.944-23.493,16.039
		c1.358,1.765,2.716,3.533,4.073,5.297c3.693-5.64,8.139-10.717,12.212-16.08c2.185-2.875-2.071-6.911-4.937-4.937
		c-5.796,4.001-11.123,10.726-18.26,12.031c1.172,2.01,2.342,4.021,3.512,6.029c12.045-11.851,28.823-17.922,37.21-33.365
		c1.936-3.558-2.694-7.31-5.664-4.372c-4.143,4.097-7.947,8.489-12.753,11.841c1.646,1.645,3.289,3.292,4.936,4.938
		c0.604-1.322,1.229-2.63,1.88-3.929c1.484-3.026-1.683-7.026-4.935-4.935c-8.059,5.178-14.793,11.667-20.032,19.699
		c-2.285,3.504,2.773,7.156,5.665,4.373c3.617-3.479,6.479-7.04,8.689-11.588c1.399-2.881-0.896-5.967-4.074-5.301
		c-11.608,2.434-22.706,7.92-32.346,14.735c1.212,2.076,2.426,4.153,3.642,6.231c6.822-4.968,13.146-10.533,19.709-15.834
		c-1.704-1.699-3.403-3.4-5.104-5.101c-9.922,10.151-24.451,19.461-27.548,34.253c-0.514,2.448,1.673,5.474,4.437,4.437
		c12.462-4.668,20.631-15.648,30.741-23.761l-5.104-5.102c-6.324,5.698-12.064,12.021-18.99,17.021
		c1.455,1.889,2.912,3.776,4.372,5.665c11.479-13.632,25.252-24.989,37.634-37.757c2.731-2.814-1.006-8.236-4.372-5.663
		c-7.091,5.411-13.187,11.876-19.963,17.652c2.011,1.172,4.019,2.342,6.03,3.511c3.855-9.311,11.646-16.17,14.708-25.916
		c1.046-3.318-2.636-5.221-5.297-4.074c-9.978,4.304-17.77,14.285-22.76,23.657c-1.863,3.5,2.767,7.478,5.665,4.373
		c3.845-4.119,8.16-7.34,10.896-12.351c1.668-3.054-1.772-6.924-4.935-4.935c-15,9.431-25.977,25.006-42.729,31.595
		c1.48,1.478,2.959,2.958,4.44,4.435c3.112-16.379,20.799-25.378,32.312-35.576c3.017-2.672-1.047-8.113-4.373-5.667
		c-6.01,4.424-12.038,8.747-17.553,13.788c-2.971,2.719,0.999,8.075,4.372,5.668c7.872-5.62,15.229-11.649,20.212-20.074
		c1.531-2.584-1.03-6.348-4.07-5.299C96.729,50.815,89.576,62.48,84.028,71.666c-1.813,3.002,1.882,6.953,4.936,4.937
		c6.251-4.126,11.686-8.272,14.066-15.623c1.204-3.72-3.475-5.628-6.03-3.509c-8.637,7.156-16.51,15.156-24.922,22.568l5.103,5.102
		c4.635-5.189,10-9.379,15.369-13.768c-1.699-1.701-3.402-3.4-5.103-5.103c-7.877,7.862-17.727,13.29-25.642,21.122
		c-3.311,3.276,1.747,8.315,5.103,5.104C77.642,82.223,89.613,73.326,99.38,62.069c3.036-3.501-1.624-8.227-5.104-5.103
		c-5.285,4.747-10.895,9.009-15.454,14.504c-2.934,3.535,2.07,8.652,5.104,5.102c6.66-7.804,13.587-15.322,19.407-23.793
		c2.403-3.498-2.765-7.05-5.666-4.373C80.604,64.152,62.209,78.357,45.061,94.007l5.104,5.103
		c12.424-11.348,27.447-19.934,37.048-34.091c1.684-2.479-1.153-6.441-4.075-5.301c-10.592,4.143-19.045,11.426-28.46,17.592
		c1.455,1.89,2.913,3.78,4.371,5.669c8.855-10.424,17.965-20.59,27.832-30.073c3.354-3.224-1.75-8.318-5.102-5.101
		c-5.487,5.266-11.3,10.144-17.056,15.111c1.891,1.458,3.778,2.917,5.668,4.371c2.061-2.724,4.357-5.073,6.742-7.494
		c2.787-2.832-0.883-8.02-4.372-5.666c-5.011,3.381-9.489,7.091-13.499,11.637c-3.105,3.523,1.551,8.054,5.101,5.103
		c2.319-1.927,2.362-3.126,2.362-6.06C66.729,60.165,59.513,60.158,59.511,64.807"/>
</g>
<path fill="#FFFFFF" d="M146.541,91.804c0,4.981-4.039,9.022-9.022,9.022c-4.982,0-9.021-4.041-9.021-9.022
	c0-4.982,4.038-9.023,9.021-9.023C142.502,82.781,146.541,86.822,146.541,91.804"/>
<path fill="#FFFFFF" d="M93.246,150.688c0,4.982-4.04,9.021-9.022,9.021s-9.021-4.039-9.021-9.021c0-4.984,4.039-9.021,9.021-9.021
	S93.246,145.704,93.246,150.688"/>
<path fill="none" stroke="#F7F8F8" stroke-width="1.7489" stroke-miterlimit="10" d="M136.989,94.688
	c-1.665,0.122-3.309,0.301-4.93,0.533"/>
<path fill="none" stroke="#F7F8F8" stroke-width="1.7489" stroke-miterlimit="10" stroke-dasharray="9.7639,9.7639" d="
	M122.511,97.233c-19.608,5.553-34.227,18.919-37.731,34.668"/>
<path fill="none" stroke="#F7F8F8" stroke-width="1.7489" stroke-miterlimit="10" d="M84.063,136.739
	c-0.121,1.633-0.122,3.287,0,4.948"/>
<path fill="none" stroke="#F7F8F8" stroke-width="1.7489" stroke-miterlimit="10" stroke-dasharray="9.9143,9.9143" d="
	M180.147,37.71c0,29.899-16.887,54.094-37.753,54.094"/>
<path fill="none" stroke="#F7F8F8" stroke-width="1.7489" stroke-miterlimit="10" stroke-dasharray="9.9143,9.9143" d="
	M84.224,159.71c0,11.992,3.806,21.699,8.512,21.699"/>
<g>
	<defs>
		<rect id="SVGID_3_" x="112.88" y="87.854" width="31.68" height="30.054"/>
	</defs>
	<clipPath id="SVGID_12_">
		<use xlink:href="#SVGID_3_"  overflow="visible"/>
	</clipPath>
	<path clip-path="url(#SVGID_12_)" fill="#595757" d="M132.36,87.854c1.593,0.473,3.279,0.924,5.06,1.338
		c2.529,0.589,4.919,1.026,7.14,1.349c-6.541,6.096-13.085,12.192-19.625,18.288l-4.506-3.7
		C124.406,99.372,128.384,93.612,132.36,87.854"/>
	<path clip-path="url(#SVGID_12_)" fill="#595757" d="M114.563,107.88c2.34-2.853,6.25-3.516,8.729-1.479
		c2.478,2.034,2.591,5.999,0.251,8.849c-2.342,2.853-6.249,3.514-8.729,1.478C112.335,114.692,112.225,110.729,114.563,107.88"/>
</g>
<g>
	<defs>
		<path id="SVGID_2_" d="M132.212,67.406c-0.737,7.711-1.475,15.422-2.212,23.133c0.864,0.682,2.987,2.157,6.051,2.408
			c4.655,0.376,7.889-2.372,8.509-2.921c-1.646-7.539-3.291-15.08-4.938-22.62H132.212z"/>
	</defs>
	<clipPath id="SVGID_13_">
		<use xlink:href="#SVGID_2_"  overflow="visible"/>
	</clipPath>
	
		<linearGradient id="SVGID_14_" gradientUnits="userSpaceOnUse" x1="631.415" y1="197.9521" x2="633.1644" y2="197.9521" gradientTransform="matrix(-9.9966 -9.9966 9.9966 -9.9966 4478.9175 8379.6914)">
		<stop  offset="0" style="stop-color:#ABDCF3"/>
		<stop  offset="1" style="stop-color:#237DA8"/>
	</linearGradient>
	<polygon clip-path="url(#SVGID_13_)" fill="url(#SVGID_14_)" points="157.518,80.366 137.279,60.127 117.042,80.366 
		137.279,100.605 	"/>
</g>
<g>
	<defs>
		<path id="SVGID_1_" d="M128.145,60.944c0,4.083,3.307,7.386,7.388,7.386c4.076,0,7.381-3.303,7.381-7.386
			c0-4.076-3.305-7.382-7.381-7.382C131.451,53.562,128.145,56.868,128.145,60.944"/>
	</defs>
	<clipPath id="SVGID_15_">
		<use xlink:href="#SVGID_1_"  overflow="visible"/>
	</clipPath>
	
		<linearGradient id="SVGID_16_" gradientUnits="userSpaceOnUse" x1="628.4751" y1="283.6309" x2="630.2238" y2="283.6309" gradientTransform="matrix(-4.2233 7.3149 -7.3149 -4.2233 4868.1992 -3344.8257)">
		<stop  offset="0" style="stop-color:#ABDCF3"/>
		<stop  offset="1" style="stop-color:#237DA8"/>
	</linearGradient>
	<polygon clip-path="url(#SVGID_15_)" fill="url(#SVGID_16_)" points="131.838,47.168 121.752,64.638 139.222,74.725 
		149.309,57.254 	"/>
</g>
<g>
	
		<text transform="matrix(1 0 0 1 62.8545 284.7695)" fill="#262626" stroke="#231815" stroke-width="0.2977" stroke-miterlimit="10" font-family="'HGKyokashotai'" font-size="71.3283" letter-spacing="-1">Map</text>
</g>
</svg>
