<?xml version="1.0" encoding="utf-8"?>
<!-- Generator: Adobe Illustrator 15.1.0, SVG Export Plug-In  -->
<!DOCTYPE svg PUBLIC "-//W3C//DTD SVG 1.1//EN" "http://www.w3.org/Graphics/SVG/1.1/DTD/svg11.dtd" [
	<!ENTITY ns_flows "http://ns.adobe.com/Flows/1.0/">
]>
<svg version="1.1"
	 xmlns="http://www.w3.org/2000/svg" xmlns:xlink="http://www.w3.org/1999/xlink" xmlns:a="http://ns.adobe.com/AdobeSVGViewerExtensions/3.0/"
	 x="0px" y="0px" width="340px" height="340px" viewBox="-74.794 -26.417 340 340" enable-background="new -74.794 -26.417 340 340"
	 xml:space="preserve">
<defs>
</defs>
<g>
	
		<text transform="matrix(1 0 0 1 10.564 284.4546)" fill="#262626" stroke="#231815" stroke-width="0.2977" stroke-miterlimit="10" font-family="'HGKyokashotai'" font-size="71.3283" letter-spacing="-1">Spots</text>
</g>
<path fill="#6B6161" d="M129.68,200.428c-1.836,10.326-3.611,20.284-6.16,20.284c-2.745,0-4.445-10.16-6.157-20.284
	c-2.588-15.302-4.803-25.599-0.693-27.947c2.379-1.356,6.185,0.29,8.111,1.618c2.006,1.392,3.393,3.427,4.506,6.659
	C131.478,187.099,130.959,193.229,129.68,200.428"/>
<path fill="#736868" d="M104.459,172.592c0,7.268-4.091,13.158-9.137,13.158c-5.05,0-9.142-5.891-9.142-13.158
	c0-7.266,4.091-13.158,9.142-13.158C100.368,159.434,104.459,165.327,104.459,172.592"/>
<path fill="#736868" d="M131.123,180.408c0,7.27-4.092,13.163-9.141,13.163c-5.047,0-9.139-5.894-9.139-13.163
	c0-7.265,4.091-13.156,9.139-13.156C127.031,167.251,131.123,173.143,131.123,180.408"/>
<path fill="#736868" d="M161.826,168.032c7.5,6.655,11.043,14.911,7.912,18.438c-3.129,3.527-11.746,0.99-19.247-5.667
	c-7.502-6.653-11.042-14.912-7.915-18.437C145.706,158.835,154.323,161.373,161.826,168.032"/>
<path fill="#827676" d="M36.806,112.907c0.695,2.416,2.896,9.117,16.534,22.966c3.566,3.621,13.414,13.623,22.966,19.75
	c23.664,15.188,71.182,23.111,85.436,2.298c12.924-18.87-7.238-52.998-20.21-68.439c-7.138-8.494-21.588-25.697-45.472-28.476
	C72.669,58.281,44.398,69.877,37.264,90.4C33.548,101.088,36.447,111.664,36.806,112.907"/>
<path fill="#827676" d="M0.057,44.467C1.498,19.958,29.273,7.863,33.818,5.884c19.58-8.527,49.486-9.328,63.158,8.038
	c4.725,5.998,9.016,16.071,8.27,26.411c-0.317,4.36-1.938,9.918-5.042,20.902c-0.034,0.119-0.107,0.371-0.242,0.689
	c-1.881,4.421-8.992,5.229-11.131,5.533c-15.203,2.175-36.845,15.941-39.166,17.432c-4.624,2.975-7.547,5.416-12.404,5.512
	c-4.885,0.098-9.316-2.234-14.237-6.433C14.381,76.602-1.055,63.436,0.057,44.467"/>
<path fill="#736868" d="M48.077,84.33c-0.073,0.192-0.131,0.388-0.131,0.388c-0.262,0.869-0.219,1.752-1.708,8.341
	c-0.804,3.571-3.688,16.704-5.051,16.534c-1.233-0.155,1.782-10.755-4.136-16.996c-2.404-2.54-4.94-3.119-7.574-4.14
	C15.065,82.872,6.398,65.914,8.114,64.118c1.256-1.312,6.936,6.652,17.375,8.502c9.393,1.666,17.094-2.599,36.366-14.932
	c27.218-17.412,40.053-26.956,43.197-24.001c1.076,1.009,0.27,5.615-1.338,14.831c-1.252,7.159-2.213,8.652-1.435,11.007
	c2.091,6.357,12.632,8.095,15.502,8.721c27.301,5.984,47.396,62.428,44.209,64.311c-3.098,1.833-21.421-51.953-62.929-59.712
	C72.947,67.964,48.45,83.32,48.077,84.33"/>
<path fill="#AB9A9A" d="M16.365,44.467c-5.7,7.976,2.037,27.751,15.158,31.006c6.514,1.615,12.243-1.369,14.468-2.526
	c6.953-3.622,14.706-11.843,13.319-18.833C56.798,41.428,24.665,35.14,16.863,43.848C16.612,44.126,16.442,44.357,16.365,44.467"/>
<path fill="#A89898" d="M82.416,7.333c0.945,1.183-11.932,10.128-11.555,20.792c0.051,1.363,0.316,2.758,0.263,2.765
	c-0.129,0.018-3.278-8.352-0.421-14.968C73.601,9.21,81.741,6.486,82.416,7.333"/>
<path fill="#A89898" d="M73.122,5.176c1.205,0.908-9.034,12.778-6.015,23.015c0.386,1.305,0.986,2.592,0.938,2.61
	c-0.118,0.051-5.251-7.273-4.132-14.391C65.051,9.186,72.255,4.524,73.122,5.176"/>
<path fill="#A89898" d="M67.156,2.478c1.275,0.81-7.971,13.467-4.134,23.424c0.491,1.271,1.196,2.503,1.147,2.527
	c-0.111,0.058-5.822-6.825-5.28-14.01C59.437,7.129,66.24,1.897,67.156,2.478"/>
<path fill="#A89898" d="M35.273,42.171c-1.979-7.759,9.198-16.336,10.259-17.149c5.325-4.085,10.766-5.267,13.471-5.664
	c7.041-1.026,19.385-0.181,22.204,6.125c3.398,7.605-7.367,22.471-20.823,25.569C50.431,53.343,37.174,49.615,35.273,42.171"/>
<path fill="#C4B2B2" d="M52.889,46.07c0,10.53-8.537,19.065-19.066,19.065c-10.53,0-19.066-8.535-19.066-19.065
	c0-10.53,8.536-19.065,19.066-19.065C44.352,27.005,52.889,35.541,52.889,46.07"/>
<path fill="#827575" d="M24.708,33.597c-3.848,2.5-4.981,6.476-5.359,7.809c-0.289,1.016-1.782,6.679,1.531,11.943
	c3.587,5.697,11.351,8.618,16.064,6.335c7.745-3.748,8.211-21.975,0.255-26.753C33.791,30.883,28.523,31.12,24.708,33.597"/>
<path fill="#A19191" d="M49.283,45.834c0,7.701-6.244,13.944-13.943,13.944c-7.7,0-13.945-6.243-13.945-13.944
	c0-7.703,6.245-13.944,13.945-13.944C43.04,31.89,49.283,38.131,49.283,45.834"/>
<path fill="#998A8A" d="M68.193,26.4c0.975-4.141,5.68-7.6,10.65-7.864c5.696-0.307,10.349,3.652,12.162,8.172
	c2.54,6.335-0.415,14.008-4.899,15.82C79.076,45.368,66.256,34.625,68.193,26.4"/>
<path fill="#B2A1A1" d="M46.987,46.268c0,6.574-5.33,11.905-11.903,11.905c-6.576,0-11.907-5.332-11.907-11.905
	c0-6.575,5.331-11.905,11.907-11.905C41.658,34.363,46.987,39.693,46.987,46.268"/>
<path fill="#A89898" d="M60.459,0.831c1.277,0.809-7.971,13.469-4.135,23.426c0.493,1.271,1.196,2.503,1.15,2.526
	c-0.115,0.058-5.822-6.826-5.282-14.011C52.74,5.484,59.544,0.251,60.459,0.831"/>
<path fill="#A89898" d="M48.712,1.825c1.504,0.057-0.067,15.631,8.254,22.305c1.061,0.854,2.285,1.564,2.26,1.608
	c-0.071,0.107-8.449-2.975-11.606-9.449C44.417,9.717,47.631,1.782,48.712,1.825"/>
<path fill="#A89898" d="M38.609,7.216c1.83-0.92,14.447,18.026,12.891,19.35c-0.803,0.682-5.613-3.162-8.593-7.335
	C39.349,14.251,37.618,7.715,38.609,7.216"/>
<path fill="#A89898" d="M28.306,8.871c-1.304,1.472,16.091,20.481,17.685,19.291c0.875-0.651-2.553-7.717-7.81-12.862
	C34.472,11.667,28.964,8.128,28.306,8.871"/>
<path fill="#A89898" d="M22.335,16.653c0.171-1.295,2.163-1.875,2.251-1.901c4.928-1.378,11.677,7.84,10.65,9.3
	C34.098,25.665,21.881,20.032,22.335,16.653"/>
<path fill="#A89898" d="M10.394,22.188c-0.011-0.807,4.295-2.343,8.497-1.376c6.459,1.489,10.234,8.333,9.646,8.959
	c-0.436,0.46-3.072-2.717-9.187-5.055C14.037,22.686,10.402,22.933,10.394,22.188"/>
<path fill="#A89898" d="M17.971,28.162c-3.6-1.225-8.155-1.523-8.497-0.458c-0.303,0.948,2.759,2.953,5.512,3.904
	c3.774,1.298,8.247,1.058,8.497,0C23.716,30.615,20.257,28.937,17.971,28.162"/>
<path fill="#A89898" d="M2.585,54.113c0.119,0.551,3.798,0.347,6.659-0.459c3.854-1.082,7.374-3.572,7.121-4.132
	C15.899,48.495,2.345,53.023,2.585,54.113"/>
<path fill="#A89898" d="M3.504,46.075c-0.663-1.157,1.567-4.136,4.362-5.282c3.953-1.625,8.488,0.632,8.499,2.066
	C16.377,45.163,4.725,48.211,3.504,46.075"/>
<path fill="#A89898" d="M9.474,66.056c-0.674-1.315,7.214-7.587,8.268-6.659c0.648,0.569-0.752,4.321-3.904,5.97
	C12.238,66.206,9.806,66.702,9.474,66.056"/>
<path fill="#736868" d="M163.58,153.329c-4.299-6.521-23.803,8.771-52.377,5.025c-24.984-3.272-40.828-18.998-42.875-16.198
	c-1.465,2.005,5.682,11.348,15.328,17.585c9.867,6.379,14.552,4.472,39.293,10.021c18.199,4.086,22.183,6.581,28.48,3.68
	C160.352,169.326,166.513,157.782,163.58,153.329"/>
<path fill="#736868" d="M41.646,83.869c4.014,0.296,0.077,21.61,11.943,41.34c6.511,10.822,15.844,17.966,18.831,20.21
	c5.811,4.367,12.162,7.821,19.751,11.943c7.679,4.173,10.128,5.002,10.107,5.052c-0.1,0.221-46.355-11.083-61.552-41.522
	c-1.509-3.024-8.375-16.776-3.465-30.492C37.799,88.905,39.657,83.724,41.646,83.869"/>
<path fill="#948585" d="M186.337,165.171c-0.79-3.315-1.845-7.757-3.218-11.944c-2.783-8.482-8.619-21.223-15.193-29.839
	c-6.481-23.21-50.31-46.64-71.807-48.572c-0.758-0.067-1.461-0.111-1.461-0.111c-7.139-0.485-32.177-1.289-39.711,13.619
	c-8.814,17.424,11.44,46.17,30.877,59.725c4.386,3.057,24.662,15.893,49.508,9.345c1.015-0.267,5.311-1.398,10.497-3.567
	c6.206,5.513,16.583,6.813,29.022,20.072c9.24,9.848,12.579,18.8,14.7,17.912C192.379,190.63,188.397,173.862,186.337,165.171"/>
<path fill="#BDABAB" d="M128.698,108.812c-0.339,0.634,3.112,2.823,10.362,8.308c11.555,8.737,14.166,11.771,14.662,11.304
	c0.83-0.767-4.813-10.431-14.696-16.075C134.408,109.714,129.091,108.081,128.698,108.812"/>
<path fill="#A39393" d="M75.638,97.19c-2.981-0.327-6.277,2.537-7.351,5.054c-4.866,11.397,26.165,38.486,30.319,35.368
	c2.113-1.585-5.146-9.19-16.54-33.532C81.101,102.016,79.043,97.564,75.638,97.19"/>
<path fill="#BDABAB" d="M77.458,106.584c-1.688-0.186-3.559,1.438-4.163,2.861c-2.76,6.463,14.828,21.812,17.178,20.042
	c1.2-0.896-2.914-5.207-9.372-19C80.555,109.317,79.391,106.796,77.458,106.584"/>
<path fill="#BDABAB" d="M155.102,134.854c-0.254,0.253,0.786,1.845,13.778,16.999c12.654,14.755,18.986,22.129,19.408,21.823
	c0.828-0.609-6.387-13.572-17.569-25.499C163.639,140.623,155.691,134.265,155.102,134.854"/>
<path fill="#BDABAB" d="M164.745,133.017c-0.565,0.679,19.588,19,20.209,18.373c0.324-0.322-4.502-5.842-9.188-10.106
	C171.026,136.965,165.039,132.665,164.745,133.017"/>
<path fill="#BDABAB" d="M137.219,103.481c-0.339,0.635,3.113,2.827,10.362,8.309c11.552,8.738,14.161,11.771,14.664,11.308
	c0.825-0.771-4.815-10.433-14.699-16.078C142.927,104.383,137.612,102.75,137.219,103.481"/>
<path fill="#BDABAB" d="M141.263,96.619c-0.34,0.63,3.109,2.822,10.359,8.304c11.552,8.741,14.163,11.773,14.665,11.306
	c0.824-0.767-4.813-10.433-14.699-16.075C146.972,97.519,141.656,95.886,141.263,96.619"/>
<path fill="#BDABAB" d="M124.658,116.452c-0.34,0.634,3.109,2.823,10.358,8.31c11.553,8.734,14.162,11.77,14.665,11.306
	c0.827-0.769-4.813-10.43-14.696-16.077C130.363,117.352,125.051,115.721,124.658,116.452"/>
<path fill="#827676" d="M101.359,76.979c-1.914-0.975-11.784,7.064-12.859,17.912c-2.001,20.195,27.148,43.125,45.931,47.313
	c2.35,0.525,7.211,1.349,12.861,4.592c9.53,5.47,14.896,14.146,15.211,13.896c0.35-0.276-9.043-8.325-8.323-18.028
	c0.301-4.043,2.178-5.985,0.92-7.812c-1.984-2.877-8.02-0.053-16.076-0.46c-7.968-0.398-13.556-3.735-21.13-8.265
	c-9.152-5.469-15.993-9.558-19.29-16.995C92.201,94.696,103.87,78.253,101.359,76.979"/>
<path fill="#BDABAB" d="M92.631,85.248c-2.665,6.165-1.144,12.143-0.459,14.699c3.123,11.613,12.694,17.899,25.723,26.181
	c17.719,11.266,26.58,16.899,35.829,13.322c10.217-3.952,15.029-16.831,14.239-17.454c-0.582-0.463-3.575,6.184-10.566,9.183
	c-19.1,8.195-46.428-20.104-50.528-24.341c-1.193-1.238-3.059-3.328-4.592-6.43c-0.838-1.697-3.718-8.032-2.295-14.242
	c2.11-9.211,12.481-12.877,11.943-13.782C111.321,71.374,97.321,74.397,92.631,85.248"/>
<path fill="#BDABAB" d="M143.16,135.314c-0.915,0.853,8.76,12.567,23.425,30.316c14.751,17.857,22.13,26.786,22.966,26.181
	c1.147-0.824-8.458-18.169-22.508-34.448C156.255,144.864,144.095,134.438,143.16,135.314"/>
<path fill="#BDABAB" d="M131.123,149.092c0,1.935-1.566,3.504-3.502,3.504c-1.932,0-3.498-1.569-3.498-3.504
	c0-1.932,1.566-3.497,3.498-3.497C129.557,145.595,131.123,147.161,131.123,149.092"/>
<path fill="#BDABAB" d="M133.493,94.757c0,1.33-1.078,2.407-2.408,2.407c-1.331,0-2.404-1.077-2.404-2.407
	c0-1.333,1.074-2.408,2.404-2.408C132.415,92.349,133.493,93.424,133.493,94.757"/>
<path fill="#BDABAB" d="M123.684,105.973c0,1.471-1.196,2.664-2.665,2.664c-1.472,0-2.665-1.192-2.665-2.664
	c0-1.472,1.193-2.666,2.665-2.666C122.487,103.307,123.684,104.5,123.684,105.973"/>
<path fill="#BDABAB" d="M122.812,91.379c0,1.866-1.515,3.377-3.378,3.377s-3.377-1.512-3.377-3.377c0-1.864,1.513-3.376,3.377-3.376
	S122.812,89.516,122.812,91.379"/>
<path fill="#BDABAB" d="M112.855,99.468c0,1.27-1.03,2.303-2.305,2.303c-1.269,0-2.303-1.033-2.303-2.303
	c0-1.271,1.034-2.304,2.303-2.304C111.826,97.164,112.855,98.196,112.855,99.468"/>
<path fill="#BDABAB" d="M109.565,88.286c0,1.171-0.947,2.118-2.119,2.118c-1.169,0-2.118-0.947-2.118-2.118
	c0-1.17,0.948-2.12,2.118-2.12C108.618,86.167,109.565,87.116,109.565,88.286"/>
<path fill="#827676" d="M160.041,170.674c4.723,4.192,6.954,9.388,4.983,11.613c-1.97,2.217-7.398,0.622-12.12-3.571
	c-4.723-4.189-6.954-9.388-4.982-11.609C149.892,164.885,155.317,166.483,160.041,170.674"/>
<path fill="#948585" d="M159.244,174.695c-3.113,0.777-3.641,13.734,6.171,21.251c5.562,4.263,14.202,6.589,16.023,5.051
	c1.444-1.217-2.304-5.572-9.863-14.238C164.347,178.469,160.733,174.327,159.244,174.695"/>
<path fill="#BDABAB" d="M161.531,153.227c-0.34-0.855-20.792,12.849-47.771,10.105c-24.904-2.531-40.968-17.617-41.339-16.996
	c-0.395,0.669,17.531,19.219,43.637,21.132C141.775,169.345,161.873,154.092,161.531,153.227"/>
<path fill="#BDABAB" d="M98.598,151.389c-1.066,1.576,15.971,15.538,17.36,14.257c0.69-0.638-2.338-5.075-5.247-7.918
	C105.892,153.01,99.195,150.506,98.598,151.389"/>
<path fill="#BDABAB" d="M132.527,146.982c-0.902,1.646,13.506,16.244,14.68,14.9c0.582-0.659-1.978-5.301-4.439-8.276
	C138.696,148.677,133.03,146.057,132.527,146.982"/>
<path fill="#BDABAB" d="M117.272,149.569c-0.9,1.648,13.507,16.246,14.68,14.9c0.583-0.656-1.978-5.298-4.438-8.277
	C123.439,151.266,117.779,148.645,117.272,149.569"/>
<path fill="#BDABAB" d="M116.23,81.06c0,1.866-1.512,3.378-3.375,3.378c-1.867,0-3.377-1.512-3.377-3.378
	c0-1.864,1.51-3.375,3.377-3.375C114.719,77.685,116.23,79.196,116.23,81.06"/>
<path fill="#BDABAB" d="M95.319,72.204c0,1.864-1.513,3.374-3.375,3.374c-1.866,0-3.377-1.51-3.377-3.374
	c0-1.866,1.511-3.379,3.377-3.379C93.806,68.825,95.319,70.337,95.319,72.204"/>
<path fill="#BDABAB" d="M95.319,116.278c0,1.864-1.513,3.375-3.375,3.375c-1.866,0-3.377-1.511-3.377-3.375
	c0-1.866,1.511-3.377,3.377-3.377C93.806,112.901,95.319,114.413,95.319,116.278"/>
<path fill="#BDABAB" d="M79.094,90.886c0,1.591-1.291,2.881-2.883,2.881c-1.591,0-2.881-1.29-2.881-2.881
	c0-1.592,1.29-2.881,2.881-2.881C77.803,88.004,79.094,89.293,79.094,90.886"/>
<path fill="#BDABAB" d="M71.147,104.075c0,1.865-1.512,3.375-3.376,3.375c-1.866,0-3.377-1.51-3.377-3.375
	c0-1.866,1.512-3.377,3.377-3.377C69.635,100.698,71.147,102.209,71.147,104.075"/>
<path fill="#BDABAB" d="M60.382,89.447c0,0.792-0.645,1.436-1.44,1.436c-0.797,0-1.443-0.644-1.443-1.436
	c0-0.797,0.646-1.444,1.443-1.444C59.737,88.003,60.382,88.649,60.382,89.447"/>
<path fill="#BDABAB" d="M119.112,137.215c0,1.593-1.289,2.883-2.882,2.883c-1.591,0-2.879-1.291-2.879-2.883
	c0-1.592,1.288-2.883,2.879-2.883C117.823,134.332,119.112,135.623,119.112,137.215"/>
<path fill="#BDABAB" d="M110.186,129.629c0,1.595-1.29,2.885-2.882,2.885c-1.593,0-2.881-1.29-2.881-2.885
	c0-1.59,1.289-2.881,2.881-2.881C108.896,126.748,110.186,128.039,110.186,129.629"/>
<path fill="#BDABAB" d="M111.128,143.819c0,1.592-1.288,2.883-2.88,2.883c-1.59,0-2.881-1.291-2.881-2.883
	c0-1.594,1.292-2.881,2.881-2.881C109.841,140.938,111.128,142.226,111.128,143.819"/>
<path fill="#B3A1A1" d="M91.283,140.938c0,1.592-1.289,2.882-2.88,2.882c-1.592,0-2.881-1.291-2.881-2.882
	c0-1.593,1.289-2.885,2.881-2.885C89.994,138.053,91.283,139.345,91.283,140.938"/>
<path fill="#B3A1A1" d="M79.365,134.332c0,1.864-1.514,3.375-3.379,3.375c-1.864,0-3.375-1.511-3.375-3.375
	c0-1.865,1.511-3.374,3.375-3.374C77.851,130.958,79.365,132.467,79.365,134.332"/>
<path fill="#B3A1A1" d="M70.034,126.193c0,1.865-1.506,3.376-3.374,3.376c-1.864,0-3.377-1.511-3.377-3.376
	c0-1.862,1.513-3.374,3.377-3.374C68.528,122.82,70.034,124.331,70.034,126.193"/>
<path fill="#B3A1A1" d="M62.601,115.135c0,1.865-1.512,3.374-3.375,3.374c-1.868,0-3.375-1.509-3.375-3.374
	c0-1.865,1.507-3.377,3.375-3.377C61.089,111.758,62.601,113.27,62.601,115.135"/>
<path fill="#B3A1A1" d="M44.652,107.45c0,0.931-0.756,1.691-1.69,1.691c-0.93,0-1.686-0.76-1.686-1.691
	c0-0.934,0.756-1.688,1.686-1.688C43.896,105.762,44.652,106.516,44.652,107.45"/>
<path fill="#BDABAB" d="M58.294,99.468c0,1.865-1.512,3.377-3.378,3.377c-1.864,0-3.375-1.512-3.375-3.377
	c0-1.865,1.512-3.377,3.375-3.377C56.782,96.091,58.294,97.603,58.294,99.468"/>
<path fill="#968888" d="M64.984,135.262c0,1.866-1.512,3.378-3.375,3.378c-1.867,0-3.379-1.512-3.379-3.378
	c0-1.863,1.512-3.373,3.379-3.373C63.472,131.889,64.984,133.399,64.984,135.262"/>
<path fill="#968888" d="M55.532,126.193c0,1.865-1.508,3.376-3.375,3.376c-1.865,0-3.377-1.511-3.377-3.376
	c0-1.862,1.512-3.374,3.377-3.374C54.023,122.82,55.532,124.331,55.532,126.193"/>
<path fill="#968888" d="M48.027,116.278c0,1.864-1.51,3.375-3.375,3.375c-1.864,0-3.376-1.511-3.376-3.375
	c0-1.866,1.512-3.377,3.376-3.377C46.517,112.901,48.027,114.413,48.027,116.278"/>
<path fill="#968888" d="M126.473,76.876c0,1.75-1.417,3.168-3.164,3.168c-1.752,0-3.169-1.419-3.169-3.168
	c0-1.749,1.417-3.166,3.169-3.166C125.056,73.711,126.473,75.127,126.473,76.876"/>
<path fill="#968888" d="M138.372,86.167c0,1.748-1.417,3.167-3.167,3.167c-1.752,0-3.169-1.418-3.169-3.167
	c0-1.749,1.417-3.167,3.169-3.167C136.954,83,138.372,84.418,138.372,86.167"/>
<path fill="#BDABAB" d="M82.245,81.06c0,1.593-1.289,2.883-2.88,2.883c-1.592,0-2.882-1.29-2.882-2.883
	c0-1.591,1.29-2.882,2.882-2.882C80.956,78.178,82.245,79.469,82.245,81.06"/>
<path fill="#695F5F" d="M100.444,19.564c-5.3-9.37-14.189-15.099-15.157-14.238c-0.982,0.869,6.731,8.051,11.938,21.129
	c6.545,16.431,3.979,29.229,5.055,29.255C103.615,55.743,109.715,35.956,100.444,19.564"/>
<path fill="#665E5E" d="M102.277,59.525c3.959-7.939,2.996-19.453-1.74-21.969c-8.251-4.388-20.315,22.63-54.544,35.39
	c-13.03,4.855-25.255,6.149-25.291,10.333c-0.026,3.086,6.584,6.421,12.566,6.644c7.221,0.266,12.713-4.036,14.809-5.594
	C71.035,67.249,94.256,75.61,102.277,59.525"/>
<polygon fill="#C7A992" points="56.862,38.498 56.473,40.565 54.104,53.194 66.659,81.062 66.659,62.687 66.659,50.438 
	65.524,49.056 "/>
<path fill="#A19191" d="M62.68,66.975c1.326-5.51,2.652-11.023,3.979-16.537V81.06L62.68,66.975z"/>
<path fill="#AB9A9A" d="M55.178,33.443c1.54-4.566,10.336-5.593,19.522-6.66c9.806-1.141,18.522-2.157,22.046,2.525
	c5.009,6.654-1.256,23.762-12.169,27.331C70.262,61.319,52.555,41.219,55.178,33.443"/>
<path fill="#BDABAB" d="M159.291,180.429c-0.171,0.135,0.526,0.979,9.175,9.005c8.431,7.814,12.649,11.725,12.927,11.56
	c0.551-0.321-4.251-7.187-11.701-13.507C164.976,183.488,159.685,180.119,159.291,180.429"/>
<path fill="#BDABAB" d="M157.906,184.575c-0.126,0.111,0.4,0.806,7.023,7.396c6.452,6.42,9.676,9.633,9.889,9.497
	c0.425-0.263-3.251-5.905-8.955-11.095C162.254,187.083,158.208,184.318,157.906,184.575"/>
<path fill="#B3A1A1" d="M164.419,175.475c0,1.592-1.291,2.883-2.884,2.883c-1.591,0-2.881-1.291-2.881-2.883
	c0-1.594,1.291-2.883,2.881-2.883C163.128,172.592,164.419,173.881,164.419,175.475"/>
<path fill="#736868" d="M97.06,168.236c-3.193-0.157-4.616,21.301-15.316,31.992c-1.519,1.514-5.768,5.763-11.878,6.62
	c-2.138,0.301-4.458,0.188-4.458,0.188c-5.898-0.295-7.832-2.525-10.209-1.364c-2.637,1.284-3.482,5.602-2.723,6.126
	c0.623,0.434,1.837-2.019,4.424-2.723c5.173-1.414,8.36,6.212,14.295,5.788c2.99-0.213,3.215-2.225,9.869-6.807
	c6.733-4.633,7.508-3.271,10.891-6.127c9.311-7.864,8.297-22.313,8.17-23.826C99.865,175.007,98.835,168.321,97.06,168.236"/>
<path fill="#736868" d="M123.413,204.876c-3.349-0.783-5.39,8.6-11.337,10.511c-3.812,1.229-5.046-1.953-9.799-1.503
	c-8.631,0.829-14.638,12.296-13.651,13.328c0.556,0.574,3.248-1.966,9.449-3.438c6.5-1.542,8.118,1.387,14.174,0.429
	c1.04-0.161,10.864-1.858,13.315-9.02c1.203-3.526,0.706-9.019-1.765-10.168C123.709,204.977,123.588,204.917,123.413,204.876"/>
<path fill="#736868" d="M124.158,202.834c1.753-0.455,3.306,9.132,10.685,11.56c0.785,0.257,1.422,0.363,7.771,0
	c11.706-0.674,13.707-1.278,17.156,0c4.44,1.636,7.453,4.98,7.118,5.614c-0.341,0.639-3.958-2.061-8.738-1.65
	c-4.941,0.416-6.153,3.742-10.686,5.73c-6.661,2.935-16.526,1.247-21.363-4.743C121.034,213.068,122.462,203.281,124.158,202.834"/>
<path fill="#BAA9A9" d="M128.063,207.685c1.277-0.3,2.413,5.991,7.796,7.581c0.573,0.171,1.039,0.236,5.672,0
	c8.545-0.438,10.003-0.837,12.521,0c3.241,1.072,5.444,3.273,5.2,3.681c-0.252,0.425-2.89-1.349-6.379-1.082
	c-3.607,0.277-4.494,2.458-7.797,3.762c-4.866,1.926-12.066,0.818-15.597-3.116C125.781,214.397,126.822,207.976,128.063,207.685"/>
<path fill="#BAA9A9" d="M129.869,197.652c-1.562,8.775-3.069,17.237-5.235,17.237c-2.333,0-3.779-8.637-5.232-17.237
	c-2.199-13.008-4.085-21.762-0.586-23.757c2.017-1.15,5.25,0.251,6.886,1.38c1.706,1.181,2.887,2.909,3.833,5.657
	C131.396,186.319,130.958,191.532,129.869,197.652"/>
<path fill="#BAA9A9" d="M96.764,219.675c-0.089-0.729,1.794-1.68,3.371-2.144c5.778-1.688,9.481,2.594,14.696,0.61
	c1.238-0.468,2.049-1.093,2.606-1.528c5.908-4.645,5.058-13.493,5.358-13.476c0.371,0.036,3.034,13.803-3.674,18.072
	c-1.667,1.061-6.113,0.709-15.007,0C98.938,220.799,96.858,220.415,96.764,219.675"/>
<path fill="#736868" d="M88.805,196.709c1.367-0.857,5.123,7.236,13.472,8.577c0,0,0.645,0.104,7.961,0.616
	c-0.002,0-8.464,6.402-14.084,4.896C89.896,209.12,87.273,197.678,88.805,196.709"/>
<path fill="#BFAEAE" d="M94.378,33.194c0,9.81-7.954,17.761-17.762,17.761c-9.813,0-17.764-7.951-17.764-17.761
	c0-9.812,7.951-17.762,17.764-17.762C86.425,15.432,94.378,23.383,94.378,33.194"/>
<path fill="#A19191" d="M90.368,34.68c0,7.943-6.439,14.382-14.382,14.382c-7.941,0-14.377-6.438-14.377-14.382
	c0-7.941,6.436-14.378,14.377-14.378C83.929,20.302,90.368,26.739,90.368,34.68"/>
<path fill="#C7B5B5" d="M84.013,33.215c0,5.959-4.832,10.792-10.793,10.792c-5.96,0-10.789-4.833-10.789-10.792
	c0-5.961,4.829-10.793,10.789-10.793C79.181,22.422,84.013,27.254,84.013,33.215"/>
<path fill="#C7B5B5" d="M46.312,47.825c0,5.393-4.374,9.768-9.768,9.768c-5.396,0-9.768-4.375-9.768-9.768
	c0-5.396,4.371-9.769,9.768-9.769C41.938,38.056,46.312,42.429,46.312,47.825"/>
</svg>
