<?xml version="1.0" encoding="utf-8"?>
<!-- Generator: Adobe Illustrator 15.1.0, SVG Export Plug-In  -->
<!DOCTYPE svg PUBLIC "-//W3C//DTD SVG 1.1//EN" "http://www.w3.org/Graphics/SVG/1.1/DTD/svg11.dtd" [
	<!ENTITY ns_flows "http://ns.adobe.com/Flows/1.0/">
]>
<svg version="1.1"
	 xmlns="http://www.w3.org/2000/svg" xmlns:xlink="http://www.w3.org/1999/xlink" xmlns:a="http://ns.adobe.com/AdobeSVGViewerExtensions/3.0/"
	 x="0px" y="0px" width="283px" height="283px" viewBox="-54.792 -42.698 283 283" enable-background="new -54.792 -42.698 283 283"
	 xml:space="preserve">
<defs>
</defs>
<path fill="#C30D23" d="M96.123,30.081c-8.96-3.009-13.652-4.585-19.096-4.644C59.389,25.248,46.215,41.125,42.959,45.05
	c-6.866,8.274-2.976,7.975-16.003,33.035c-3.855,7.421-9.101,16.88-13.936,30.971c-2.718,7.922-3.843,13.038-2.066,18.582
	c2.55,7.948,9.543,12.055,11.872,13.42c13.857,8.131,30.366,2.89,34.584,1.548c8.588-2.723,8.472-5.122,18.067-7.742
	c9.146-2.496,12.576-1.223,21.164-2.577c3.478-0.551,16.201-2.689,27.355-10.84c3.518-2.569,19.15-13.994,20.648-33.039
	c1.177-14.984-7.063-26.261-12.391-33.549c-6.752-9.242-14.377-14.498-17.548-16.518C108.006,34.075,102.08,32.083,96.123,30.081"/>
<path fill="#D10E26" d="M90.992,36.582c-9.675-3.854-20.868,1.651-27.103,7.27c-8.093,7.298-6.424,13.527-12.559,27.762
	c-12.105,28.098-33.104,37.459-28.558,48.267c1.071,2.549,3.605,5.271,6.745,5.935c11.281,2.38,16.431-24.783,40.982-37.016
	c15.899-7.922,24.735-2.009,31.067-10.575C109.798,67.084,105.694,42.436,90.992,36.582"/>
<path fill="#D43F51" d="M86.833,48.146c-7.555-3.008-16.297,1.292-21.162,5.681c-6.321,5.698-5.02,10.562-9.809,21.678
	c-9.454,21.944-25.852,29.251-22.304,37.689c0.839,1.994,2.817,4.119,5.27,4.638c8.812,1.857,12.83-19.355,32.005-28.907
	c12.415-6.184,19.315-1.568,24.261-8.258C101.521,71.968,98.314,52.719,86.833,48.146"/>
<path fill="#E84559" d="M68.543,36.866c4.191-4.92,20.606,0.006,30.922,9.719c4.888,4.6,13.137,14.731,9.905,21.16
	c-0.499,0.993-1.938,3.22-12.558,5.786c-13.479,3.256-23.74,5.737-27.828,0.885c-3.542-4.207,1.703-8.996,0.441-24.295
	C68.707,41.417,66.688,39.047,68.543,36.866"/>
<path fill="#D10E26" d="M23.413,103.336c-4.478,0.502-7.077,6.64-8.203,9.296c-3.263,7.694-3.973,21.253,4.992,26.371
	c6.778,3.87,16.981,1.715,20.708-3.952C47.782,124.588,32.48,102.316,23.413,103.336"/>
<path fill="#22AC38" d="M114.707,0.143c-0.753-0.667-5.502,2.703-8.773,7.229c-1.37,1.89-3.704,5.199-4.133,9.806
	c-0.371,4.022,0.851,7.562,2.582,10.84c1.426,2.696,21.99,40.711,41.811,35.616c8.949-2.301,15.353-12.774,13.42-16.002
	c-2.835-4.738-25.048,3.781-25.808,1.55c-0.36-1.052,4.771-2.346,8.258-7.226c5.551-7.77,3.388-19.669,1.031-20.132
	c-1.35-0.266-2.055,3.379-7.118,9.053c-2.426,2.718-8.221,8.554-9.915,7.465c-1.829-1.177,0.491-10.85,5.162-18.582
	c1.747-2.892,3.251-4.565,2.582-5.678c-1.092-1.812-7.415-1.274-11.356,2.065c-5.393,4.563-3.713,12.161-5.678,12.387
	c-2.515,0.292-8.673-11.759-5.162-21.678C112.936,3.109,115.287,0.661,114.707,0.143"/>
<path fill="#1A812A" d="M134.972,62.412c-5.088-1.601-8.115-4.606-13.555-10.135c-7.048-7.165-14.124-16.5-13.088-17.482
	c1.08-1.021,8.694,9.163,24.444,16.965c11.931,5.914,20.229,6.344,20.06,8.472C152.655,62.462,143.306,65.034,134.972,62.412"/>
<path fill="#7ACD88" d="M151.443,46.498c0.542-1.529,4.828-1.844,8.112-0.494c1.558,0.64,4.396,2.272,4.216,4.068
	c-0.028,0.275-0.164,0.927-2.422,2.479c-2.865,1.969-5.048,3.47-6.439,2.7c-1.205-0.667-0.406-2.258-2.073-5.729
	C151.891,47.549,151.206,47.174,151.443,46.498"/>
<path fill="#7ACD88" d="M133.806,14.081c-1.046-1.842-6.245-1.847-9.035,0.531c-4.785,4.084-2.086,14.863,0.432,15.297
	c0.971,0.167,3.057-3.673,7.227-11.356C133.744,16.134,134.311,14.977,133.806,14.081"/>
<path fill="#7ACD88" d="M114.707,0.143c-0.729-0.709-5.234,1.263-6.982,5.015c-2.693,5.779,2.374,13.194,3.303,12.941
	c0.677-0.185-1.184-4.319,0.41-10.212C112.735,3.082,115.342,0.765,114.707,0.143"/>
<path fill="#1A812A" d="M101.801,17.177c1.557-0.854,9.147,10.083,13.423,17.208c1.567,2.612,7.873,13.119,6.536,14.107
	c-1.182,0.875-8.372-5.68-13.431-13.696C103.463,27.086,100.486,17.901,101.801,17.177"/>
<path fill="#7ACD88" d="M143.095,21.823c-1.789-0.413-5.162,3.651-5.148,8.12c0.014,5.008,4.267,9.048,6.049,8.453
	C146.957,37.408,146.213,22.543,143.095,21.823"/>
<path fill="#E79EA7" d="M78.162,47.607c-2.832,0.485-5.926,8.758-2.112,13.208c3.482,4.062,11.284,3.263,15.315-0.51
	c5.324-4.979,2.892-14.034,1.585-14.221c-1.291-0.187-2.158,8.19-5.81,8.634C83.472,55.167,81.127,47.1,78.162,47.607"/>
<path fill="#C30D23" d="M134.972,62.412c7.653,1.502,13.9,24.026,5.37,36.664c-4.471,6.625-12.425,9.681-20.522,12.788
	c-5.114,1.966-17.063,5.955-23.424,9.323c-6.589,3.484-7.793,5.602-10.434,6.935c-1.605,0.81-2.965,1.008-3.485,1.11
	c-9.224,1.896-35.228,16.114-41.325,9.96c-3.19-3.219-0.002-11.084,0.797-13.056c4.501-11.102,17.511-17.023,27.119-21.396
	c0.191-0.087,0.32-0.148,0.473-0.217c16.391-7.364,27.543-8.436,33.638-10.266C124.078,87.999,126.239,60.698,134.972,62.412"/>
<path fill="#AB0B1E" d="M144.039,92.724c-1.17-1.031-4.415,1.672-13.848,7.041c0,0-6.578,3.744-18.066,9.291
	c-16.922,8.173-21.831,3.98-42.326,11.874c-3.357,1.291-9.617,5.553-22.196,13.937c-9.2,6.128-13.796,9.213-13.439,10.159
	c1.557,4.156,49.144-10.131,62.479-12.741c0.981-0.191,4.51-0.865,9.111-2.363c1.496-0.487,3.107-1.069,4.824-1.765
	c4.521-1.843,13.963-5.793,22.196-14.452C140.518,105.553,146.018,94.473,144.039,92.724"/>
<path fill="#E79EA7" d="M89.448,68.766c1.059,1.158,5.065-0.782,8.954-4.335c3.884-3.551,6.177-7.369,5.116-8.527
	c-1.057-1.158-5.065,0.782-8.952,4.335C90.683,63.791,88.39,67.609,89.448,68.766"/>
<path fill="#AB0B1E" d="M76.241,109.288c0.786,0.86,3.581-0.42,6.247-2.854c2.661-2.435,4.185-5.104,3.398-5.964
	c-0.786-0.86-3.583,0.42-6.246,2.853C76.977,105.757,75.455,108.427,76.241,109.288"/>
<path fill="#AB0B1E" d="M96.913,96.917c0.784,0.861,3.582-0.417,6.245-2.854c2.663-2.434,4.187-5.104,3.398-5.964
	c-0.783-0.861-3.581,0.419-6.244,2.854S96.128,96.057,96.913,96.917"/>
<path fill="#AB0B1E" d="M117.122,96.917c0.786,0.861,3.582-0.417,6.247-2.854c2.663-2.434,4.185-5.104,3.399-5.964
	c-0.786-0.861-3.582,0.419-6.247,2.854C117.86,93.389,116.337,96.057,117.122,96.917"/>
<path fill="#AB0B1E" d="M59.123,117.681c0.784,0.858,3.581-0.42,6.244-2.854c2.664-2.438,4.188-5.107,3.401-5.967
	c-0.786-0.86-3.581,0.42-6.246,2.854C59.86,114.147,58.337,116.817,59.123,117.681"/>
<path fill="#AB0B1E" d="M106.896,82.421c0.785,0.86,3.581-0.417,6.246-2.853c2.661-2.434,4.186-5.105,3.399-5.963
	c-0.786-0.861-3.581,0.418-6.247,2.854C107.631,78.893,106.109,81.563,106.896,82.421"/>
<path fill="#AB0B1E" d="M89.833,117.681c0.783,0.858,3.581-0.42,6.244-2.854c2.663-2.438,4.185-5.107,3.398-5.967
	c-0.783-0.86-3.581,0.42-6.244,2.854C90.568,114.147,89.047,116.817,89.833,117.681"/>
<path fill="#800816" d="M123.237,113.291c0.786,0.861,3.581-0.417,6.245-2.853c2.663-2.435,4.187-5.104,3.4-5.968
	c-0.786-0.858-3.583,0.419-6.244,2.854C123.973,109.763,122.451,112.43,123.237,113.291"/>
<path fill="#800816" d="M96.668,125.156c0.786,0.861,3.581-0.417,6.246-2.852c2.661-2.436,4.186-5.105,3.399-5.966
	s-3.581,0.419-6.247,2.853C97.403,121.628,95.882,124.296,96.668,125.156"/>
<path fill="#800816" d="M72.604,132.424c0.787,0.863,3.58-0.417,6.245-2.85c2.663-2.438,4.188-5.107,3.401-5.968
	c-0.786-0.858-3.583,0.419-6.244,2.854C73.341,128.896,71.818,131.563,72.604,132.424"/>
<path fill="#C90D23" d="M65.655,81.545c0.786,0.863,3.581-0.417,6.247-2.852c2.661-2.435,4.186-5.105,3.399-5.963
	c-0.786-0.861-3.584,0.418-6.247,2.852C66.391,78.017,64.869,80.687,65.655,81.545"/>
<path fill="#C90D23" d="M50.35,98.395c0.785,0.861,3.581-0.417,6.246-2.853c2.661-2.435,4.186-5.105,3.399-5.966
	c-0.786-0.859-3.581,0.419-6.247,2.854C51.087,94.864,49.563,97.537,50.35,98.395"/>
<path fill="#AB0B1E" d="M34.938,126.54c0.786,0.862,3.584-0.417,6.245-2.853c2.665-2.435,4.187-5.104,3.403-5.966
	c-0.789-0.858-3.586,0.42-6.247,2.854C35.673,123.012,34.151,125.679,34.938,126.54"/>
<path fill="#AB0B1E" d="M16.58,123.554c0.786,0.858,3.581-0.419,6.244-2.854c2.663-2.435,4.185-5.104,3.401-5.963
	c-0.788-0.861-3.584,0.417-6.247,2.852C17.315,120.023,15.794,122.693,16.58,123.554"/>
<path fill="#C90D23" d="M40.319,113.678c0.788,0.858,3.583-0.42,6.247-2.855c2.663-2.435,4.187-5.104,3.4-5.965
	c-0.786-0.858-3.583,0.419-6.246,2.854C41.057,110.146,39.535,112.817,40.319,113.678"/>
<path fill="#C90D23" d="M50.35,90.679c0.785,0.861,3.581-0.417,6.246-2.852c2.661-2.435,4.186-5.105,3.399-5.964
	c-0.786-0.86-3.581,0.419-6.247,2.853C51.087,87.151,49.563,89.821,50.35,90.679"/>
<path fill="#AB0B1E" d="M34.938,89.877c0.786,0.861,3.584-0.417,6.245-2.852c2.665-2.434,4.187-5.105,3.403-5.965
	c-0.789-0.859-3.586,0.419-6.247,2.854C35.673,86.349,34.151,89.019,34.938,89.877"/>
<path fill="#C90D23" d="M73.449,84.421c0.786,0.86,3.581-0.417,6.245-2.853c2.666-2.434,4.188-5.105,3.401-5.963
	c-0.786-0.861-3.581,0.418-6.245,2.854C74.188,80.893,72.663,83.563,73.449,84.421"/>
<path fill="#C90D23" d="M58.458,70.397c0.783,0.861,3.579-0.417,6.244-2.852c2.664-2.435,4.188-5.105,3.401-5.964
	c-0.786-0.862-3.583,0.417-6.247,2.851C59.193,66.867,57.67,69.538,58.458,70.397"/>
<path fill="#C90D23" d="M91.661,66.744c0.784,0.859,3.579-0.417,6.247-2.852c2.661-2.437,4.185-5.105,3.399-5.965
	c-0.786-0.859-3.584,0.416-6.247,2.851S90.876,65.886,91.661,66.744"/>
<path fill="#AB0B1E" d="M118.686,68.971c0.979,1.069,3.232,0.603,5.033-1.042c1.798-1.647,2.466-3.848,1.486-4.919
	c-0.979-1.069-3.232-0.604-5.03,1.042C118.374,65.697,117.707,67.898,118.686,68.971"/>
<path fill="#C90D23" d="M79.641,59.208c0.786,0.859,3.581-0.417,6.246-2.852c2.663-2.434,4.186-5.105,3.399-5.963
	c-0.786-0.861-3.581,0.415-6.245,2.85C80.378,55.678,78.854,58.35,79.641,59.208"/>
<text transform="matrix(1 0 0 1 0 211.3037)" fill="#262626" font-family="'HGKyokashotai'" font-size="47.8088">特産品</text>
</svg>
