<?xml version="1.0" encoding="utf-8"?>
<!-- Generator: Adobe Illustrator 15.1.0, SVG Export Plug-In  -->
<!DOCTYPE svg PUBLIC "-//W3C//DTD SVG 1.1//EN" "http://www.w3.org/Graphics/SVG/1.1/DTD/svg11.dtd" [
	<!ENTITY ns_flows "http://ns.adobe.com/Flows/1.0/">
]>
<svg version="1.1"
	 xmlns="http://www.w3.org/2000/svg" xmlns:xlink="http://www.w3.org/1999/xlink" xmlns:a="http://ns.adobe.com/AdobeSVGViewerExtensions/3.0/"
	 x="0px" y="0px" width="340px" height="340px" viewBox="-36.017 -29.299 340 340" enable-background="new -36.017 -29.299 340 340"
	 xml:space="preserve">
<defs>
</defs>
<path fill="#C30D23" d="M149.128,44.068c-13.125-4.409-20.001-6.719-27.974-6.803c-25.842-0.277-45.142,22.982-49.91,28.732
	c-10.057,12.121-4.358,11.683-23.441,48.395c-5.649,10.872-13.333,24.729-20.415,45.373c-3.982,11.604-5.631,19.096-3.03,27.221
	c3.735,11.644,13.981,17.659,17.393,19.66c20.3,11.909,44.487,4.231,50.664,2.266c12.58-3.987,12.414-7.502,26.47-11.341
	c13.401-3.658,18.423-1.793,31.004-3.774c5.092-0.808,23.734-3.94,40.074-15.882c5.154-3.764,28.056-20.5,30.249-48.4
	c1.723-21.952-10.348-38.471-18.15-49.147c-9.893-13.538-21.063-21.239-25.71-24.197C166.534,49.919,157.854,47.001,149.128,44.068"
	/>
<path fill="#D10E26" d="M141.61,53.592c-14.173-5.645-30.57,2.419-39.702,10.651c-11.857,10.691-9.409,19.816-18.397,40.67
	c-17.735,41.164-48.5,54.875-41.836,70.708c1.571,3.733,5.28,7.722,9.881,8.695c16.529,3.484,24.069-36.307,60.039-54.227
	c23.289-11.606,36.235-2.944,45.51-15.491C169.16,98.278,163.15,62.167,141.61,53.592"/>
<path fill="#D43F51" d="M135.52,70.533c-11.067-4.406-23.875,1.894-31,8.323c-9.264,8.346-7.354,15.472-14.372,31.756
	c-13.851,32.147-37.869,42.851-32.674,55.212c1.229,2.925,4.128,6.037,7.721,6.794c12.91,2.721,18.796-28.353,46.888-42.345
	c18.184-9.06,28.293-2.297,35.538-12.098C157.035,105.431,152.339,77.232,135.52,70.533"/>
<path fill="#E84559" d="M108.722,54.008c6.144-7.208,30.188,0.009,45.303,14.238c7.16,6.74,19.243,21.58,14.51,30.999
	c-0.733,1.454-2.839,4.716-18.397,8.475c-19.745,4.772-34.779,8.406-40.766,1.296c-5.188-6.163,2.496-13.178,0.646-35.591
	C108.965,60.675,106.005,57.203,108.722,54.008"/>
<path fill="#D10E26" d="M42.612,151.385c-6.561,0.733-10.37,9.726-12.016,13.616c-4.782,11.271-5.823,31.132,7.311,38.634
	c9.928,5.668,24.875,2.512,30.334-5.793C78.312,182.515,55.894,149.889,42.612,151.385"/>
<path fill="#22AC38" d="M176.351,0.209c-1.102-0.978-8.059,3.959-12.853,10.589c-2.005,2.769-5.425,7.617-6.055,14.366
	c-0.542,5.892,1.251,11.077,3.783,15.879c2.09,3.95,32.217,59.639,61.254,52.177c13.108-3.371,22.489-18.714,19.657-23.443
	c-4.152-6.941-36.693,5.539-37.807,2.271c-0.53-1.542,6.987-3.436,12.099-10.585c8.132-11.382,4.961-28.814,1.51-29.493
	c-1.977-0.389-3.009,4.951-10.428,13.262c-3.553,3.982-12.043,12.531-14.525,10.937c-2.678-1.724,0.72-15.895,7.563-27.222
	c2.559-4.237,4.763-6.688,3.782-8.318c-1.599-2.653-10.864-1.866-16.638,3.025c-7.897,6.686-5.438,17.815-8.316,18.146
	c-3.683,0.428-12.704-17.226-7.562-31.757C173.757,4.555,177.201,0.969,176.351,0.209"/>
<path fill="#1A812A" d="M206.04,91.432c-7.452-2.345-11.889-6.748-19.857-14.848c-10.324-10.496-20.693-24.171-19.174-25.61
	c1.583-1.497,12.738,13.423,35.809,24.853c17.479,8.664,29.636,9.293,29.388,12.41C231.945,91.505,218.248,95.272,206.04,91.432"/>
<path fill="#7ACD88" d="M230.168,68.118c0.798-2.24,7.075-2.702,11.888-0.724c2.279,0.938,6.439,3.33,6.174,5.96
	c-0.039,0.404-0.238,1.358-3.547,3.632c-4.197,2.884-7.393,5.083-9.434,3.954c-1.768-0.975-0.596-3.308-3.037-8.391
	C230.825,69.658,229.823,69.108,230.168,68.118"/>
<path fill="#7ACD88" d="M204.331,20.628c-1.531-2.698-9.148-2.705-13.233,0.778c-7.013,5.983-3.058,21.774,0.63,22.411
	c1.422,0.243,4.478-5.382,10.587-16.637C204.24,23.636,205.068,21.94,204.331,20.628"/>
<path fill="#7ACD88" d="M176.351,0.209c-1.064-1.039-7.668,1.85-10.228,7.346c-3.946,8.466,3.479,19.329,4.838,18.959
	c0.992-0.271-1.732-6.327,0.603-14.96C173.464,4.515,177.283,1.123,176.351,0.209"/>
<path fill="#1A812A" d="M157.443,25.165c2.282-1.252,13.403,14.771,19.667,25.208c2.294,3.827,11.532,19.219,9.575,20.667
	c-1.73,1.281-12.266-8.321-19.677-20.065C159.879,39.681,155.519,26.225,157.443,25.165"/>
<path fill="#7ACD88" d="M217.939,31.97c-2.621-0.604-7.562,5.35-7.541,11.896c0.019,7.337,6.249,13.255,8.86,12.383
	C223.595,54.802,222.506,33.025,217.939,31.97"/>
<path fill="#E79EA7" d="M122.815,69.743c-4.148,0.712-8.682,12.83-3.093,19.351c5.102,5.951,16.528,4.78,22.436-0.749
	c7.799-7.293,4.236-20.558,2.321-20.832c-1.892-0.273-3.16,11.998-8.509,12.65C130.596,80.817,127.158,69,122.815,69.743"/>
<path fill="#C30D23" d="M206.04,91.432c11.209,2.201,20.364,35.196,7.866,53.711c-6.55,9.705-18.199,14.181-30.063,18.731
	c-7.496,2.882-24.998,8.725-34.317,13.66c-9.652,5.104-11.414,8.204-15.284,10.157c-2.353,1.188-4.344,1.476-5.105,1.628
	c-13.514,2.773-51.604,23.604-60.539,14.59c-4.675-4.714-0.003-16.238,1.165-19.125c6.595-16.263,25.652-24.939,39.731-31.344
	c0.277-0.128,0.469-0.217,0.693-0.317c24.009-10.787,40.347-12.358,49.274-15.04C190.081,128.915,193.249,88.92,206.04,91.432"/>
<path fill="#AB0B1E" d="M219.322,135.838c-1.712-1.51-6.467,2.449-20.287,10.313c0,0-9.637,5.483-26.466,13.612
	c-24.788,11.97-31.979,5.831-62.007,17.395c-4.918,1.891-14.087,8.133-32.514,20.418c-13.48,8.975-20.212,13.493-19.688,14.879
	c2.278,6.091,71.992-14.84,91.526-18.665c1.437-0.279,6.608-1.265,13.348-3.461c2.19-0.716,4.552-1.568,7.069-2.585
	c6.62-2.7,20.455-8.486,32.513-21.172C214.162,154.63,222.222,138.4,219.322,135.838"/>
<path fill="#E79EA7" d="M139.351,100.741c1.551,1.696,7.42-1.147,13.115-6.352c5.692-5.202,9.052-10.794,7.498-12.492
	c-1.549-1.696-7.423,1.145-13.118,6.352C141.16,93.45,137.802,99.046,139.351,100.741"/>
<path fill="#AB0B1E" d="M120.004,160.102c1.15,1.263,5.244-0.613,9.148-4.182c3.901-3.567,6.134-7.478,4.981-8.737
	c-1.154-1.258-5.252,0.616-9.151,4.179C121.077,154.931,118.851,158.841,120.004,160.102"/>
<path fill="#AB0B1E" d="M150.286,141.982c1.148,1.261,5.248-0.612,9.147-4.183c3.902-3.564,6.135-7.476,4.979-8.736
	c-1.146-1.262-5.243,0.614-9.147,4.181C151.364,136.811,149.136,140.719,150.286,141.982"/>
<path fill="#AB0B1E" d="M179.892,141.982c1.151,1.261,5.248-0.612,9.151-4.183c3.901-3.564,6.132-7.476,4.98-8.736
	c-1.152-1.262-5.247,0.614-9.153,4.181C180.972,136.811,178.742,140.719,179.892,141.982"/>
<path fill="#AB0B1E" d="M94.923,172.398c1.151,1.258,5.247-0.614,9.147-4.182c3.904-3.571,6.136-7.48,4.984-8.741
	c-1.152-1.261-5.247,0.615-9.151,4.18C96.007,167.222,93.773,171.134,94.923,172.398"/>
<path fill="#AB0B1E" d="M164.91,120.744c1.149,1.262,5.243-0.611,9.148-4.179c3.899-3.565,6.133-7.478,4.979-8.735
	c-1.148-1.26-5.244,0.613-9.149,4.181C165.986,115.576,163.757,119.487,164.91,120.744"/>
<path fill="#AB0B1E" d="M139.914,172.398c1.149,1.258,5.242-0.614,9.147-4.182c3.899-3.571,6.128-7.48,4.979-8.741
	c-1.147-1.261-5.248,0.615-9.146,4.18C140.99,167.222,138.76,171.134,139.914,172.398"/>
<path fill="#800816" d="M188.85,165.967c1.148,1.261,5.244-0.613,9.147-4.18c3.903-3.567,6.134-7.478,4.982-8.742
	c-1.151-1.257-5.248,0.613-9.15,4.184C189.926,160.798,187.696,164.705,188.85,165.967"/>
<path fill="#800816" d="M149.927,183.349c1.153,1.259,5.247-0.61,9.147-4.18c3.9-3.567,6.135-7.477,4.984-8.737
	c-1.156-1.261-5.251,0.612-9.153,4.178C151.002,178.182,148.776,182.091,149.927,183.349"/>
<path fill="#800816" d="M114.674,193.995c1.153,1.266,5.244-0.61,9.149-4.173c3.904-3.572,6.134-7.483,4.984-8.743
	c-1.152-1.258-5.251,0.614-9.148,4.182C115.756,188.827,113.523,192.737,114.674,193.995"/>
<path fill="#C90D23" d="M104.494,119.46c1.15,1.265,5.244-0.611,9.151-4.179c3.897-3.566,6.131-7.478,4.982-8.735
	c-1.153-1.26-5.251,0.613-9.155,4.178C105.572,114.292,103.342,118.202,104.494,119.46"/>
<path fill="#C90D23" d="M82.07,144.145c1.151,1.262,5.248-0.611,9.151-4.179c3.9-3.568,6.132-7.478,4.98-8.74
	c-1.151-1.258-5.247,0.615-9.153,4.181C83.154,138.974,80.92,142.888,82.07,144.145"/>
<path fill="#AB0B1E" d="M59.493,185.376c1.152,1.261,5.25-0.61,9.15-4.18c3.904-3.563,6.13-7.478,4.984-8.738
	c-1.157-1.26-5.255,0.615-9.151,4.182C60.574,180.208,58.343,184.114,59.493,185.376"/>
<path fill="#AB0B1E" d="M32.599,181.002c1.153,1.255,5.247-0.615,9.149-4.184c3.902-3.566,6.131-7.478,4.982-8.733
	c-1.155-1.262-5.25,0.61-9.15,4.176C33.679,175.83,31.449,179.74,32.599,181.002"/>
<path fill="#C90D23" d="M67.379,166.534c1.153,1.257,5.247-0.615,9.15-4.184c3.902-3.565,6.135-7.478,4.981-8.738
	c-1.149-1.259-5.247,0.613-9.151,4.182C68.457,161.36,66.229,165.274,67.379,166.534"/>
<path fill="#C90D23" d="M82.07,132.842c1.151,1.261,5.248-0.611,9.151-4.18c3.9-3.567,6.132-7.477,4.98-8.736
	c-1.151-1.261-5.247,0.614-9.153,4.179C83.154,127.673,80.92,131.583,82.07,132.842"/>
<path fill="#AB0B1E" d="M59.493,131.668c1.152,1.261,5.25-0.612,9.15-4.179c3.904-3.564,6.13-7.478,4.984-8.74
	c-1.157-1.258-5.255,0.615-9.151,4.183C60.574,126.498,58.343,130.409,59.493,131.668"/>
<path fill="#C90D23" d="M115.912,123.675c1.153,1.26,5.248-0.613,9.148-4.179c3.907-3.565,6.135-7.479,4.98-8.737
	c-1.15-1.26-5.244,0.613-9.146,4.181C116.994,118.504,114.758,122.416,115.912,123.675"/>
<path fill="#C90D23" d="M93.951,103.13c1.147,1.26,5.241-0.611,9.148-4.178c3.901-3.567,6.135-7.479,4.98-8.738
	c-1.15-1.264-5.248,0.61-9.15,4.177C95.025,97.958,92.796,101.871,93.951,103.13"/>
<path fill="#C90D23" d="M142.591,97.778c1.151,1.26,5.244-0.611,9.151-4.179c3.901-3.568,6.132-7.478,4.98-8.736
	c-1.151-1.259-5.249,0.608-9.151,4.176C143.671,92.607,141.441,96.519,142.591,97.778"/>
<path fill="#AB0B1E" d="M182.18,101.041c1.437,1.564,4.736,0.882,7.375-1.528c2.636-2.412,3.613-5.636,2.176-7.205
	c-1.433-1.568-4.733-0.885-7.367,1.525C181.727,96.245,180.749,99.468,182.18,101.041"/>
<path fill="#C90D23" d="M124.982,86.739c1.152,1.259,5.247-0.611,9.151-4.18c3.899-3.565,6.132-7.478,4.98-8.734
	c-1.153-1.261-5.247,0.606-9.151,4.173C126.063,81.568,123.831,85.479,124.982,86.739"/>
<g>
	
		<text transform="matrix(1 0 0 1 0.1484 281.5728)" fill="#262626" stroke="#231815" stroke-width="0.2977" stroke-miterlimit="10" font-family="'HGKyokashotai'" font-size="71.3283" letter-spacing="-1">Products</text>
</g>
</svg>
