<?xml version="1.0" encoding="utf-8"?>
<!-- Generator: Adobe Illustrator 15.1.0, SVG Export Plug-In  -->
<!DOCTYPE svg PUBLIC "-//W3C//DTD SVG 1.1//EN" "http://www.w3.org/Graphics/SVG/1.1/DTD/svg11.dtd" [
	<!ENTITY ns_flows "http://ns.adobe.com/Flows/1.0/">
]>
<svg version="1.1"
	 xmlns="http://www.w3.org/2000/svg" xmlns:xlink="http://www.w3.org/1999/xlink" xmlns:a="http://ns.adobe.com/AdobeSVGViewerExtensions/3.0/"
	 x="0px" y="0px" width="326px" height="298px" viewBox="0 -0.66 326 298" enable-background="new 0 -0.66 326 298"
	 xml:space="preserve">
<defs>
</defs>
<rect fill="#D5FBDC" width="325.98" height="296.32"/>
<ellipse fill="#95B09B" cx="162.992" cy="243.279" rx="103.5" ry="21.061"/>
<path fill="#700C12" d="M238.813,213.29V112.345h-0.589c-0.328-1.931-0.815-3.965-1.534-6.07c-1.069-3.131-2.669-6.503-6.898-12.554
	c-4.51-6.455-10.868-15.551-18.21-21.108c-24.143-18.269-69.684-6.402-79.741,4.966c-0.975,1.103-4.067,4.971-8.277,4.967
	c-4.723-0.004-5.844-4.877-10.074-5.099c-4.739-0.249-8.636,5.588-15.311,15.584c-3.522,5.276-5.284,7.914-6.622,11.865
	c-2.48,7.322-1.884,13.88-1.367,17.59v94.571h0.648c-0.163,2.826-0.025,6.837,1.547,11.175c5.899,16.28,26.464,21.86,39.456,25.385
	c27.151,7.365,49.814,2.268,57.392,0.275c13.703-3.603,34.402-9.044,44.699-27.315C236.83,221.433,238.151,216.609,238.813,213.29z"
	/>
<path fill="#C30D23" d="M231.034,59.369c0,0-0.849-2.954-2.786-6.109c-0.23-0.615-0.641-1.219-1.227-1.808
	c-0.01-0.014-0.02-0.028-0.03-0.041c-3.129-4.126-12.17-6.688-24.008-8.087c-10.351-1.676-23.129-2.667-36.964-2.667
	c-26.148,0-48.53,3.538-57.838,8.556c-2.222,0.853-3.48,1.728-3.507,2.597c0,0.003,0,0.01,0,0.013
	c-0.722,0.836-1.115,1.698-1.115,2.581c0,0.283,0.051,0.563,0.128,0.842c-0.002,0.002-0.003,0.005-0.006,0.007
	c-1.564,1.625-3.823,0.298-5.088,1.634c-1.354,1.43,0.362,3.869,0.414,8.691c0.039,3.651-0.917,4.813-0.828,6.208
	c0.375,5.841,18.777,11.381,44.699,13.658c17.293,1.519,29.049,0.599,52.563-1.241c23.249-1.82,32.332-3.954,35.18-10.347
	C232.048,70.649,232.596,64.832,231.034,59.369z"/>
<ellipse fill="#FACCD0" cx="166.599" cy="53.597" rx="59.315" ry="11.218"/>
<path fill="#D6CD9F" d="M238.938,210.499c-15.208,5.761-40.767,13.394-73.297,13.594c-33.902,0.209-60.477-7.747-75.911-13.594
	c0-30.069,0-60.139,0-90.208c17.498,5.39,44.204,11.52,77.153,11.19c30.427-0.304,55.231-6.007,72.056-11.19
	C238.938,150.36,238.938,180.43,238.938,210.499z"/>
<path fill="#941018" d="M219.386,91.75c-4.113-3.92-13.021-1.807-22.254-0.556c-39.471,5.348-65.142-7.723-70.567,0.725
	c-2.318,3.609,0.297,9.22,1.742,12.319c0.141,0.302,2.846,5.934,8.712,10.146c2.027,1.456,10.02,6.754,34.848,5.797
	c19.879-0.766,37.164-1.432,45.302-11.595C221.271,103.466,223.365,95.542,219.386,91.75z"/>
<path fill="#C71620" d="M191.805,97.808c-2.405-2.755-7.613-1.271-13.01-0.391c-23.076,3.759-38.083-5.428-41.255,0.509
	c-1.355,2.537,0.174,6.48,1.019,8.659c0.083,0.212,1.664,4.17,5.093,7.13c1.185,1.023,5.858,4.747,20.373,4.075
	c11.622-0.539,21.727-1.007,26.485-8.149C192.906,106.042,194.131,100.473,191.805,97.808z"/>
<g opacity="0.9">
	<path fill="#F9C2C6" d="M118.874,65.988c7.821,1.313,15.65,2.397,23.497,3.225c7.849,0.801,15.715,1.345,23.593,1.534
		c3.938,0.123,7.879,0.13,11.819,0.075c3.942-0.027,7.881-0.187,11.822-0.369c7.878-0.424,15.754-1.083,23.634-1.982
		c-7.725,1.799-15.585,3.074-23.501,3.809c-7.915,0.765-15.881,0.991-23.835,0.812c-7.953-0.238-15.896-0.888-23.759-2.069
		C134.274,69.881,126.494,68.186,118.874,65.988z"/>
</g>
<path opacity="0.09" fill="#C71620" d="M107.284,237.337c-5.775-3.035-11.55-6.07-17.326-9.105V112.165
	c4.165-7.077,8.329-14.153,12.494-21.23C104.063,139.736,105.673,188.536,107.284,237.337z"/>
<path opacity="0.09" fill="#C71620" d="M219.032,237.337c6.286-5.519,12.573-11.037,18.859-16.556c0-37.479,0-74.958,0-112.438
	c-4.165-7.077-8.329-14.153-12.494-21.229C223.275,137.188,221.153,187.263,219.032,237.337z"/>
<path fill="#E0D7A6" d="M186.749,156.174c-0.258-12.735-1.69-15.212-2.483-16.343c-4.586-6.539-14.507-6.105-20.694-3.846
	c-8.782,3.208-13.475,11.35-15.728,15.382c-10.68,19.114-14.554,54.226,1.656,67.298c8.588,6.926,22.674,7.553,29.799,0
	c2.331-2.471,2.356-4.163,6.622-41.34C185.974,176.869,186.989,168.018,186.749,156.174z"/>
<ellipse fill="none" stroke="#C30D23" stroke-width="2.3464" stroke-miterlimit="10" cx="165.025" cy="53.988" rx="28.024" ry="5.38"/>
<path fill="#941018" d="M142.05,243.959c2.414,5.121,11.546,5.04,19.866,4.967c11.461-0.103,22.091-0.196,26.489-7.45
	c2.531-4.175,2.97-10.675,0-13.244c-3.623-3.134-8.913,2.525-22.35,4.139c-12.275,1.475-18.377-1.985-22.35,2.483
	C141.555,237.272,140.75,241.202,142.05,243.959z"/>
<path fill="#B00C20" d="M98.079,58.168c1.119-0.837,4.356,1.391,6.308,3.27c5.528,5.324,8.16,15.02,5.408,17.081
	c-2.479,1.857-10.2-1.829-11.617-6.733c-0.704-2.437,0.571-3.595,0-9.105C97.895,59.941,97.405,58.672,98.079,58.168z"/>
<path fill="#B00C20" d="M229.209,56.272c-1.092-0.06-1.998,2.166-3.363,5.665c-4.226,10.83-6.389,16.346-5.408,17.081
	c2.479,1.857,10.2-1.829,11.616-6.734c0.501-1.736-0.002-2.824-0.126-5.299c-0.125-2.503,0.194-2.616,0.126-3.806
	C231.883,60.188,230.614,56.349,229.209,56.272z"/>
<path fill="#DB0F27" d="M148.672,76.751c0.207-1.002,4.258-0.216,24.418,0c12.015,0.129,15.559-0.097,15.728,0.828
	c0.268,1.464-8.007,5.268-16.969,5.794C159.51,84.099,148.318,78.467,148.672,76.751z"/>
<path fill="#700C12" d="M174.892,138.427c-0.919,1.837-4.939,11.031-4.402,5.819c0.537-5.212-5.444-8.906-4.548-6.048
	c0.896,2.857,0.368,14.153-1.073,15.373c-1.442,1.221-4.412,2.211-2.79,0.078c1.621-2.133,1.484-5.443-1.836-11.39
	c-3.319-5.946-11.255-7.225-10.521-6.133c0.733,1.092,1.468,7.131,1.451,9.811c-0.017,2.679,1.734,7.671,0.693,7.79
	s-4.122-6.219-5.001-6.808c-0.878-0.588-2.286,0.222-3.079,1.085c0,0-0.871,0.545-0.12,1.432c0.751,0.888,4.037,7.243,4.037,7.243
	s0.264,0.538-0.709-0.162c-0.971-0.699-4.683-1.936-4.939-1.339s-0.11,2.568,1.305,5.366c1.417,2.799,3.798,2.688,2.928,3.233
	c-0.87,0.547-5.64-2.841-8.208-5.425c-2.569-2.586-7.68-6.824-8.312-6.672c-0.631,0.154-1.313,3.397-0.51,6.145
	c2.176,7.294,13.208,9.759,13.208,9.759s-3.669-0.513-7.177,0.742c-3.505,1.256-7.243,1.563-12.601,1.529
	c3.004,3.549,6.919,4.803,13.157,2.95c-0.999,0.845-3.404,2.501-4.257,2.841l-0.537,0.266c-0.444,0.376-3.431,1.569-7.303,1.041
	c0.436,0.965,2.406,3.293,8.25,1.202c3.023-1.08,5.5-2.978,7.357-4.802c-0.441,0.941-0.793,1.958-1.026,3.062
	c-1.867,8.813-0.364,18.011,10.531,24.586c10.896,6.577,19.164,5.102,25.844,7.821c6.681,2.722,12.756,4.052,16.527,0.859
	c3.771-3.191,4.383-13.038,2.087-18.899c-2.295-5.859,1.149-22.48-6.267-31.241c-4.583-5.416-10.766-7.219-16.724-6.605
	c4.139-4.726,6.844-14.995,5.672-17.922C175.676,134.205,175.881,136.447,174.892,138.427z M145.681,189.662
	c0.45,1.298,0.297,2.485-0.087,2.693c-0.383,0.21-1.461-0.313-2.302-1.399c-0.709-0.914-0.958-2.191,0.062-2.742
	C144.37,187.662,145.305,188.569,145.681,189.662z M163.216,199.326c0.843,1.082,1.084,2.257,0.788,2.578
	c-0.297,0.32-1.486,0.174-2.631-0.58c-0.967-0.636-1.615-1.766-0.83-2.617C161.329,197.856,162.505,198.414,163.216,199.326z
	 M146.846,176.673c0.27,1.345-0.039,2.503-0.446,2.658c-0.41,0.155-1.407-0.507-2.097-1.694c-0.58-1-0.656-2.3,0.427-2.711
	C145.813,174.516,146.616,175.539,146.846,176.673z M162.401,184.73c-0.363,0.245-1.485-0.176-2.425-1.177
	c-0.792-0.843-1.159-2.091-0.198-2.736c0.963-0.646,1.978,0.171,2.458,1.225C162.803,183.29,162.765,184.487,162.401,184.73z
	 M181.73,201.476c0.569,1.249,0.53,2.446,0.167,2.69c-0.364,0.243-1.486-0.177-2.425-1.177c-0.792-0.844-1.161-2.093-0.198-2.737
	C180.237,199.607,181.251,200.422,181.73,201.476z M175.572,186.636c0.341,1.329,0.094,2.501-0.307,2.677
	c-0.4,0.177-1.433-0.433-2.181-1.583c-0.632-0.968-0.776-2.263,0.283-2.729C174.428,184.534,175.285,185.515,175.572,186.636z
	 M168.664,167.146c-0.275,0.34-1.472,0.271-2.665-0.405c-1.006-0.572-1.727-1.655-0.999-2.557c0.728-0.9,1.939-0.422,2.707,0.441
	C168.621,165.65,168.938,166.806,168.664,167.146z M187.641,183.069c0.262,1.347-0.055,2.502-0.463,2.655
	c-0.41,0.151-1.404-0.518-2.085-1.71c-0.575-1.005-0.642-2.304,0.443-2.707C186.622,180.904,187.419,181.933,187.641,183.069z
	 M181.013,163.018c0.823-0.816,1.974-0.207,2.643,0.735c0.795,1.12,0.984,2.304,0.673,2.611c-0.31,0.308-1.492,0.107-2.604-0.698
	C180.788,164.988,180.189,163.831,181.013,163.018z"/>
<path fill="#B5B5B6" d="M125.492,248.977c-0.398,0.677,6.292,2.818,13,4.291c27.205,5.974,51.078,0.163,60.5-3.433
	c1.939-0.74,3.231-1.373,3-1.717c-0.77-1.146-17.005,3.145-36.5,3.719C142.984,252.5,126.117,247.915,125.492,248.977z"/>
</svg>
