<?xml version="1.0" encoding="utf-8"?>
<!-- Generator: Adobe Illustrator 15.1.0, SVG Export Plug-In  -->
<!DOCTYPE svg PUBLIC "-//W3C//DTD SVG 1.1//EN" "http://www.w3.org/Graphics/SVG/1.1/DTD/svg11.dtd" [
	<!ENTITY ns_flows "http://ns.adobe.com/Flows/1.0/">
]>
<svg version="1.1"
	 xmlns="http://www.w3.org/2000/svg" xmlns:xlink="http://www.w3.org/1999/xlink" xmlns:a="http://ns.adobe.com/AdobeSVGViewerExtensions/3.0/"
	 x="0px" y="0px" width="326px" height="298px" viewBox="0 -0.66 326 298" enable-background="new 0 -0.66 326 298"
	 xml:space="preserve">
<defs>
</defs>
<rect fill="#E9CDE6" width="325.98" height="295.66"/>
<ellipse fill="#B39DAF" cx="160.992" cy="263.143" rx="47.352" ry="13.378"/>
<linearGradient id="SVGID_1_" gradientUnits="userSpaceOnUse" x1="111.4365" y1="144.0098" x2="214.5439" y2="144.0098">
	<stop  offset="0.0066" style="stop-color:#AB95A8"/>
	<stop  offset="0.1224" style="stop-color:#AB95A8"/>
	<stop  offset="0.2585" style="stop-color:#C9B1C7"/>
	<stop  offset="0.5428" style="stop-color:#FFE1FC"/>
	<stop  offset="0.9914" style="stop-color:#C9B1C7"/>
</linearGradient>
<path fill="url(#SVGID_1_)" d="M124.771,18.174c-3.426,3.809-1.583,5.336-6.238,33.848c-1.98,12.137-3.11,18.174-3.402,19.765
	c-2.656,14.485-3.823,18.73-3.684,22.663c0.063,1.762,0.387,3.066,0.545,4.085c1.984,12.754,4.248,27.306,13.519,36.144
	c8.392,7.999,17.828,6.838,25,19.09c0.228,0.388,0.391,0.676,0.51,0.902c1.487,2.807,4.056,9.478,6.031,30.348
	c2.042,21.568-0.268,19.015,1.454,39.245c1.313,15.44,3.207,23.384-1.454,26.89c-2.198,1.654-3.365,0.447-14.535,1.454
	c-11.771,1.061-15.896,2.888-17.442,3.634c-3.463,1.668-9.573,4.612-9.447,7.994c0.243,6.551,23.746,11.003,35.61,12.354
	c4.962,0.565,12.514,0.377,27.617,0c16.005-0.399,21.989-1.205,26.163-5.813c0.787-0.868,5.018-5.54,3.634-9.448
	c-2.73-7.714-23.043-0.346-34.157-10.175c-2.357-2.084-6.231-6.649-5.814-39.972c0.39-31.146,0.748-46.947,8.721-58.141
	c9.049-12.7,15.549-8.329,25.438-22.529c12.521-17.981,11.829-38.966,11.628-45.059c-0.167-5.061-0.66-5.937-2.594-14.453
	c-0.286-1.263-1.33-5.939-3.221-15.344c-4.711-23.436,0.027-34.158-7.29-39.853c-1.373-1.068-2.271-1.26-17.161-2.613
	c-15.517-1.41-23.275-2.115-24.968-2.116C142.356,11.071,131.162,11.069,124.771,18.174z"/>
<linearGradient id="SVGID_2_" gradientUnits="userSpaceOnUse" x1="123.1494" y1="16.7476" x2="203.2295" y2="16.7476">
	<stop  offset="0.0066" style="stop-color:#AB95A8"/>
	<stop  offset="0.1224" style="stop-color:#AB95A8"/>
	<stop  offset="0.2585" style="stop-color:#C9B1C7"/>
	<stop  offset="0.5428" style="stop-color:#FFE1FC"/>
	<stop  offset="0.9914" style="stop-color:#C9B1C7"/>
</linearGradient>
<ellipse fill="url(#SVGID_2_)" stroke="#898989" stroke-miterlimit="10" cx="163.189" cy="16.748" rx="40.04" ry="5.066"/>
<linearGradient id="SVGID_3_" gradientUnits="userSpaceOnUse" x1="156.4844" y1="204.2256" x2="173.4238" y2="204.2256">
	<stop  offset="0.0066" style="stop-color:#AB95A8"/>
	<stop  offset="0.1224" style="stop-color:#AB95A8"/>
	<stop  offset="0.2585" style="stop-color:#C9B1C7"/>
	<stop  offset="0.5428" style="stop-color:#FFE1FC"/>
	<stop  offset="0.9914" style="stop-color:#C9B1C7"/>
</linearGradient>
<path fill="url(#SVGID_3_)" d="M171.623,145.34c2.955,4.584,1.775,12.207,0,26c-5.746,44.655-9.2,71.496-6.069,88
	c0.344,1.813,1.331,6.474,0.434,7.333c-1.235,1.183-6.022-4.844-8.237-12c-2.847-9.191-0.214-16.254,1.301-31.333
	c1.456-14.501,0.822-25.896,0-40.667c-1.315-23.625-4.456-31.849-0.867-37.333C161.455,140.339,168.469,140.446,171.623,145.34z"/>
<path fill="#570629" d="M113.64,86.306c4.825-4.938,11.91-1.404,28.741,0.018c41.213,3.482,56.804-12.799,67.168-2.992
	c10.765,10.186,6.078,39.23-9.878,55.853c-1.8,1.875-17.032,17.219-39.51,14.96c-17.868-1.796-28.569-13.535-32.597-17.953
	C113.528,120.793,105.023,95.122,113.64,86.306z"/>
<path fill="#8C0944" d="M122.477,101.34c-4.245,7.203,7.396,21.425,13,27c3.76,3.74,13.479,13.407,29,14
	c14.786,0.565,24.928-7.483,28-10c8.199-6.715,19.022-20.546,15-28c-3.07-5.69-12.308-3.061-41-4
	C135.966,99.341,125.805,95.692,122.477,101.34z"/>
<ellipse fill="#CC0E63" cx="162.664" cy="85.838" rx="51.489" ry="8.971"/>
<ellipse fill="#EB0E72" cx="162.163" cy="89.557" rx="50.988" ry="4.251"/>
<g>
	<path fill="#454343" d="M114.81,267.34c7.356,2.241,14.748,4.175,22.241,5.529c3.749,0.648,7.496,1.29,11.278,1.661
		c3.772,0.42,7.557,0.751,11.351,0.851c7.582,0.336,15.186,0.045,22.753-0.738c7.569-0.801,15.09-2.146,22.585-3.866
		c-7.147,2.85-14.657,4.831-22.292,6.059c-3.816,0.638-7.675,1.013-11.538,1.274c-3.868,0.181-7.746,0.263-11.619,0.103
		c-7.743-0.313-15.458-1.364-22.976-3.187C129.07,273.239,121.74,270.675,114.81,267.34z"/>
</g>
<path fill="#570629" d="M137.629,145.151c-0.13,0.699,3.621,3.951,11.115,10.44c6.497,5.625,9.37,7.956,14,9.333
	c2.606,0.775,5.109,1.52,8,0.667c3.822-1.128,5.587-3.736,9.334-8c8.185-9.313,11.695-9.623,11.348-11.66
	C190.111,138.225,139.024,137.62,137.629,145.151z"/>
<path fill="#BF0C5D" d="M149.152,149.788c0.301-1.717,5.834,1.249,16.84-0.312c10.533-1.494,15.852-5.683,16.486-3.755
	c0.711,2.161-4.844,10.853-12.063,13.475C159.67,163.1,148.715,152.289,149.152,149.788z"/>
<g>
	<g>
		<path fill="#570629" d="M171.071,167.165c1.609-0.876,2.858-1.958,3.878-3.482c1.656-2.473-1.892-4.813-3.926-3.029
			c-3.076,2.697-6.223,0.237-9.549-0.725c-3.098-0.895-4.42,3.929-1.329,4.822c2.422,0.7,4.704,1.998,7.243,2.234
			c2.827,0.262,5.103-0.983,7.17-2.797c-1.309-1.01-2.617-2.02-3.927-3.029c-0.541,0.809-1.247,1.233-2.084,1.688
			C165.722,164.388,168.242,168.706,171.071,167.165L171.071,167.165z"/>
	</g>
</g>
<g>
	<path fill="#594F58" d="M156.978,159.84c0.663,7.738,1.242,15.485,1.792,23.236c0.63,7.749,0.942,15.506,1.384,23.261
		c0.212,3.879,0.392,7.761,0.437,11.658c0.041,3.892-0.071,7.822-0.735,11.689c-0.665,3.865-1.708,7.608-2.744,11.359
		c-1.062,3.719-2.227,7.504-3.499,11.073l-0.008,0.051l-2.769,7.278l2.468-7.379l-0.009,0.05c1.151-3.81,2.204-7.471,3.196-11.242
		c0.966-3.75,1.877-7.535,2.515-11.329c0.624-3.801,0.708-7.67,0.64-11.537c-0.068-3.869-0.301-7.745-0.461-11.623l-0.537-11.639
		c-0.074-1.941-0.188-3.879-0.303-5.816l-0.297-5.815C157.643,175.362,157.268,167.606,156.978,159.84z"/>
</g>
<path fill="#A691A3" d="M156.977,246.34c1.221-0.784,7.281-4.678,11.5-2.5c2.843,1.467,2.086,4.264,6.018,7.313
	c3.072,2.384,5.248,2.005,5.486,3.346c0.409,2.3-5.543,5.952-11.504,7.341c-2.572,0.599-3.656,0.43-14,0
	c-9.574-0.398-12.224-0.402-12.5-1.5c-0.29-1.154,2.433-1.973,7-6C153.845,250.047,153.415,248.628,156.977,246.34z"/>
<g>
	<path fill="#594F58" d="M171.299,167.309c-0.313,8.431-0.734,16.856-1.172,25.281c-0.173,4.217-0.537,8.42-0.619,12.62
		c-0.104,4.204-0.031,8.414,0.083,12.626l0.289,12.65c0.041,2.105,0.036,4.235,0.045,6.324c0.05,2.074,0.313,4.146,0.819,6.162
		c0.496,2.018,1.282,3.961,2.199,5.838c0.911,1.867,2.14,3.578,3.75,4.886c1.603,1.31,3.53,2.225,5.572,2.672
		c2.043,0.445,4.178,0.485,6.264,0.183c-4.109,0.845-8.696,0.175-12.141-2.471c-1.71-1.315-3.03-3.086-4.008-4.981
		c-0.975-1.89-1.822-3.859-2.38-5.931c-0.573-2.062-0.885-4.195-0.94-6.337c-0.024-2.129-0.035-4.216-0.091-6.327l-0.378-12.645
		c-0.084-4.22-0.126-8.446,0.008-12.675c0.058-2.112,0.184-4.229,0.325-6.334l0.438-6.311
		C169.96,184.128,170.574,175.716,171.299,167.309z"/>
</g>
<ellipse fill="#948291" cx="165.143" cy="262.973" rx="17.667" ry="4.165"/>
<ellipse fill="#FADCF7" cx="163.396" cy="264.235" rx="8.833" ry="3.61"/>
<ellipse fill="#BAA3B7" cx="162.981" cy="249.765" rx="6.004" ry="3.424"/>
<path fill="#A10A4E" d="M146.81,108.673c0.337-1.011,1.755-0.884,14-2c12.052-1.099,14.135-1.536,15.334,0
	c2.355,3.018-0.61,11.211-6,14C160.566,125.627,145.582,112.358,146.81,108.673z"/>
<path opacity="0.5" fill="#A10A4E" d="M186.144,88.198c0.392,3.361,8.32,5.335,14.007,5.225c5.041-0.098,12.598-1.917,13.002-5.225
	c0.407-3.34-6.517-7.894-13.112-8.028C193.075,80.027,185.746,84.797,186.144,88.198z"/>
<path opacity="0.5" fill="#A10A4E" d="M113.654,88.198c0.393,3.361,8.321,5.335,14.008,5.225c5.04-0.098,12.598-1.917,13.001-5.225
	c0.407-3.34-6.516-7.894-13.112-8.028C120.586,80.027,113.258,84.797,113.654,88.198z"/>
<path fill="none" stroke="#7A6C79" stroke-miterlimit="10" d="M123.149,16.748c-4.249,26.416-8.499,52.831-12.748,79.247"/>
<path fill="none" stroke="#898989" stroke-miterlimit="10" d="M203.229,16.748c3.666,24.967,7.332,49.934,10.999,74.9"/>
</svg>
