<?xml version="1.0" encoding="utf-8"?>
<!-- Generator: Adobe Illustrator 15.1.0, SVG Export Plug-In  -->
<!DOCTYPE svg PUBLIC "-//W3C//DTD SVG 1.1//EN" "http://www.w3.org/Graphics/SVG/1.1/DTD/svg11.dtd" [
	<!ENTITY ns_flows "http://ns.adobe.com/Flows/1.0/">
]>
<svg version="1.1"
	 xmlns="http://www.w3.org/2000/svg" xmlns:xlink="http://www.w3.org/1999/xlink" xmlns:a="http://ns.adobe.com/AdobeSVGViewerExtensions/3.0/"
	 x="0px" y="0px" width="326px" height="298px" viewBox="0 -1.32 326 298" enable-background="new 0 -1.32 326 298"
	 xml:space="preserve">
<defs>
</defs>
<rect fill="#F3CFD3" width="325.98" height="295"/>
<ellipse fill="#D4B5B7" cx="168.091" cy="252.529" rx="100.471" ry="18.42"/>
<ellipse fill="#B89D9F" cx="168.091" cy="251" rx="84.42" ry="15.478"/>
<path fill="#9C836A" d="M113.161,77.96L113.161,77.96c-13.143,13.552-23.134,21.812-25.171,23.598
	c-14.798,12.969-18.383,42.346-18.879,46.409c-3.427,28.089,6.74,49.855,11.799,58.994c2.615,4.724,20.76,36.314,58.994,47.195
	c15.589,4.437,28.267,3.651,35.397,3.146c9.71-0.688,48.429-3.494,73.938-34.61c15.576-18.998,18.858-39.567,20.452-49.555
	c2.063-12.937,4.342-27.215-1.573-43.263c-5.666-15.37-21.401-39.333-43.402-49.212c-2.051-0.921-13.066-5.724-12.445-9.782
	c0.375-2.458,4.587-2.525,7.079-7.079c1.479-2.703,2.028-6.404,0.786-9.439c-1.329-3.25-4.393-4.957-9.543-6.945
	c-12.119-4.679-21.92-5.641-21.92-5.641c-9.958-0.473-17.601-0.299-26.744,0c-19.305,0.632-22.882,1.092-27.531,2.36
	c-6.559,1.79-17.4,4.891-19.665,12.585c-0.263,0.893-1.359,5.073,0.787,7.866c2.456,3.196,7.223,2.054,7.866,3.933
	C124.254,71.055,116.507,75.834,113.161,77.96z"/>
<ellipse fill="#635442" stroke="#CAC3BB" stroke-width="2.2297" stroke-miterlimit="10" cx="167.304" cy="56.501" rx="52.571" ry="15.018"/>
<path fill="#473B30" d="M215.152,58.512c-0.34-3.953-27.277-5.651-47.863-4.58c-15.887,0.827-40.103,3.932-40.103,7.664
	c0.001,3.606,22.607,7.669,43.704,7.009C192.481,67.93,215.47,62.213,215.152,58.512z"/>
<path fill="#40352B" d="M210.96,61.396c-0.31-3.953-24.879-5.651-43.655-4.58c-14.49,0.827-36.577,3.932-36.577,7.664
	c0.001,3.605,20.62,7.669,39.861,7.009C190.283,70.813,211.25,65.096,210.96,61.396z"/>
<path fill="#695847" d="M76.587,122.31c-1.022,0.254-3.145,1.386-5.64,13.857c-1.01,5.046-2.759,13.787-2.521,22.025
	c1.502,51.773,40.986,80.854,40.986,80.854c4.668,3.44,17.292,12.085,35.876,16.467c23.633,5.572,42.622,0.884,50.396-1.134
	c9.917-2.573,34.228-9.237,53.556-31.688c25.674-29.818,24.992-67.087,20.501-87.728c-2.631-12.089-8.615-27.883-13.964-27.528
	c-5.602,0.373-4.421,16.488-12.829,29.256c-26.456,40.17-134.898,26.531-154.755-3.634C86.725,130.825,80.951,121.228,76.587,122.31
	z"/>
<path fill="#594B3C" d="M99.953,157.783c4.52-4.173,14.232,3.723,36.207,8.136c30.342,6.093,62.774,1.27,90.847-2.905
	c13.396-1.993,18.815-3.447,20.407-1.163c3.996,5.735-19.345,30.321-50.031,38.936c-19.621,5.508-36.908,2.516-48.715,0.581
	c-12.712-2.084-24.129-4.087-34.232-12.203C102.204,179.336,94.603,162.723,99.953,157.783z"/>
<path fill="#BA9C7F" d="M212.533,95.265c-2.069,2.731-1.38,4.439-3.671,7.342c-2.454,3.11-5.744,4.315-7.997,5.109
	c-11.092,3.907-25.039,0.659-25.039,0.659c-18.037-4.2-18.491-10.145-35.135-14.159c-8.209-1.979-17.189-4.016-26.744,0
	c-5.425,2.28-15.56,8.413-15.731,16.256c-0.045,2.032,0.467,9.261,32.512,25.171c26.087,12.952,39.13,19.428,52.964,17.829
	c0,0,23.921-2.764,41.428-23.073c4.317-5.009,6.604-9.88,7.341-11.537c2.496-5.608,4.94-11.1,3.146-17.305
	c-1.264-4.373-5.134-10.836-11.536-11.537C219.451,89.515,214.886,92.159,212.533,95.265z"/>
<path fill="#4F4235" d="M208.338,71.667c-1.075-1.248-4.651,0.548-8.914,2.098c-8.772,3.188-15.652,3.585-26.22,4.195
	c-8.865,0.512-21.413,1.236-35.659-3.671c-5.601-1.929-10.225-4.302-11.012-3.146c-0.944,1.384,4.048,7.198,9.438,11.012
	c2.448,1.732,9.604,6.323,37.757,6.817c18.791,0.33,23.351-1.58,26.744-4.195C205.917,80.581,209.848,73.419,208.338,71.667z"/>
<path opacity="0.3" fill="#7A6653" d="M118.636,76.349c-3.603-1.335-9.04,6.844-28.163,24.188c-3.601,3.265-3.129,2.723-4.12,3.687
	c-17.719,17.239-17.838,44.227-17.871,51.834c-0.069,15.773,3.995,26.551,9.729,41.754c4.541,12.044,6.326,12.403,6.964,12.336
	c4.248-0.449,4.694-24.81,4.875-34.651c0.514-28.082-3.207-25.517-1.115-34.609c5.83-25.341,31.364-30.651,32.321-55.062
	C121.33,83.901,121.524,77.419,118.636,76.349z"/>
<path opacity="0.3" fill="#7A6653" d="M222.527,82.566c3.604-1.335,9.04,6.843,28.164,24.188c3.6,3.266,3.129,2.723,4.119,3.687
	c17.72,17.239,17.838,44.227,17.871,51.834c0.07,15.773-3.994,26.552-9.728,41.755c-4.542,12.043-6.327,12.402-6.965,12.335
	c-4.248-0.449-4.694-24.81-4.874-34.65c-0.514-28.082,3.207-25.517,1.114-34.61c-5.83-25.341-31.364-30.651-32.32-55.062
	C219.833,90.118,219.639,83.637,222.527,82.566z"/>
<path fill="#7D6855" d="M84.581,186.773c2.316-1.244,7.688,8.835,18.354,17.305c16.401,13.025,35.38,14.348,47.72,15.208
	c35.372,2.465,62.81-12.676,73.415-19.403c23.251-14.749,31-30.545,34.609-28.316c5.206,3.212-2.912,41.003-30.415,62.927
	c-31.349,24.989-71.477,16.285-81.28,14.158c-9.449-2.049-38.033-8.249-53.488-31.987C85.306,204.083,81.876,188.227,84.581,186.773
	z"/>
<path fill="#D6B492" d="M144.887,103.13c1.148-1.667,6.377,2.046,16.78,3.671c4.834,0.755,18.043,2.818,29.366-3.671
	c7.295-4.181,9.858-9.648,11.012-8.915c1.645,1.045-1.27,13.603-10.487,20.976c-10.154,8.122-24.872,7.482-34.61,2.097
	C149.208,113.009,143.514,105.123,144.887,103.13z"/>
<path fill="#D6B492" d="M137.021,127.777c0.302-0.977,6.896,0.713,26.744,3.671c24.011,3.579,31.771,3.702,37.232-1.049
	c4.63-4.027,5.511-9.734,6.292-9.439c0.991,0.375,0.503,9.896-5.769,16.256c-5.394,5.471-12.509,6.009-16.256,6.292
	c-6.057,0.458-10.638-0.829-18.878-3.67C157.115,136.641,136.48,129.526,137.021,127.777z"/>
<path fill="#F7D0A9" d="M157.239,110.4c0.654-0.95,3.632,1.165,9.557,2.09c2.753,0.43,10.275,1.605,16.725-2.09
	c4.154-2.381,5.614-5.495,6.271-5.077c0.937,0.595-0.724,7.747-5.974,11.946c-5.782,4.625-14.164,4.261-19.71,1.195
	C159.7,116.026,156.457,111.535,157.239,110.4z"/>
<path fill="#453B2F" d="M137.611,172.712c2.039-2.132,6.421,1.903,16.334,4.158c13.688,3.114,28.319,0.648,40.983-1.485
	c6.043-1.018,8.488-1.762,9.206-0.594c1.803,2.932-8.727,15.496-22.57,19.897c-8.852,2.815-16.65,1.286-21.977,0.298
	c-5.734-1.065-10.885-2.089-15.442-6.237C138.627,183.728,135.198,175.238,137.611,172.712z"/>
<path opacity="0.24" fill="#BA9C7F" d="M174.515,51.039c-1.368,4.917,2.883,13.977,7.866,13.795
	c5.464-0.199,9.102-11.41,7.079-15.917C187.138,43.742,176.226,44.889,174.515,51.039z"/>
</svg>
