<?xml version="1.0" encoding="utf-8"?>
<!-- Generator: Adobe Illustrator 15.1.0, SVG Export Plug-In  -->
<!DOCTYPE svg PUBLIC "-//W3C//DTD SVG 1.1//EN" "http://www.w3.org/Graphics/SVG/1.1/DTD/svg11.dtd" [
	<!ENTITY ns_flows "http://ns.adobe.com/Flows/1.0/">
]>
<svg version="1.1"
	 xmlns="http://www.w3.org/2000/svg" xmlns:xlink="http://www.w3.org/1999/xlink" xmlns:a="http://ns.adobe.com/AdobeSVGViewerExtensions/3.0/"
	 x="0px" y="0px" width="326px" height="298px" viewBox="0 -1.32 326 298" enable-background="new 0 -1.32 326 298"
	 xml:space="preserve">
<defs>
</defs>
<rect fill="#CCECFB" width="325.98" height="296.32"/>
<path fill="#97AFBA" d="M80.667,210.68c7.204-8.915,44.735,3.734,44.667,13.333c-0.051,7.146-20.991,19.561-35.333,10
	C81.425,228.297,76.63,215.675,80.667,210.68z"/>
<path fill="#97AFBA" d="M184.854,170.396c34.427,11.89,66.91,29.077,100.954,42.07c7.127,2.72,21.382,8.098,21.687,16.063
	c0.464,12.146-31.825,22.168-34.399,22.947c-35.141,10.634-66.972,1.113-94.972-7.649c-3.441-1.077,0.106-0.037-71.042-32.892
	c-9.919-4.58-29.416-13.571-47.112-32.892c-13.578-14.823-14.018-21.976-12.713-26.007c2.113-6.53,9.999-9.286,12.853-10.282
	C87.012,132.355,135.18,153.24,184.854,170.396z"/>
<path fill="#3B3533" d="M61.276,139.419c-5.354,4.68-4.98,13.639-4.902,15.019c0.78,13.805,14.594,23.104,32,34
	c40.043,25.066,60.065,37.599,80,44.667c31.455,11.151,54.293,12.445,65.333,12.666c4.433,0.089,22.985,0.27,43-8.666
	c16.291-7.273,17.999-13.644,18.333-16c0.863-6.073-3.707-11.373-5.368-13.264c-19.18-21.831-87.87-16.308-149.299-40.07
	C140.374,167.771,140.374,167.771,61.276,139.419z"/>
<path fill="#4F4644" d="M60.123,134.811c-5.354,4.68-4.98,13.638-4.902,15.018c0.78,13.805,14.593,23.104,32,34
	c40.043,25.066,60.064,37.6,80,44.667c31.455,11.151,54.293,12.445,65.333,12.667c4.433,0.088,22.985,0.27,43-8.667
	c16.291-7.273,17.999-13.644,18.333-16c0.863-6.073-3.708-11.373-5.368-13.264c-19.18-21.831-87.869-16.308-149.298-40.069
	C139.22,163.163,139.22,163.163,60.123,134.811z"/>
<path fill="#FFFFFF" d="M179.887,155.163c30.692,10.362,59.65,25.342,90,36.666c6.354,2.371,19.062,7.058,19.333,14
	c0.414,10.587-28.372,19.321-30.667,20c-31.328,9.269-59.705,0.971-84.667-6.666c-3.068-0.939,0.095-0.033-63.333-28.667
	c-8.843-3.992-26.224-11.828-42-28.667c-12.104-12.919-12.496-19.153-11.333-22.667c1.884-5.691,8.914-8.093,11.458-8.961
	C92.661,122.008,135.603,140.209,179.887,155.163z"/>
<path fill="#58B9E6" d="M188.481,158.203c-0.542,1.096,3.815,2.794,4.072,6.626c0.468,6.98-13.194,13.184-22.333,17.334
	c-8.481,3.851-19.617,8.907-35.333,10c-11.354,0.789-18.349-0.96-18.85,0.81c-0.273,0.966,1.225,3.551,23.184,12.856
	c24.961,10.579,40.308,17.083,63.521,21.107c12.224,2.119,25.444,4.311,42.797,2.395c10.927-1.206,32.731-3.896,41.976-18.733
	c1.375-2.208,2.452-3.989,2.373-6.435c-0.296-9.158-16.364-14.353-42-24.334C215.381,167.173,189.812,155.513,188.481,158.203z"/>
<path fill="#61CBFC" d="M243.419,186.192c-4.548,2.706-0.476,10.375-5.419,17.155c-9.257,12.695-36.771,3.953-37.333,6.666
	c-0.606,2.924,30.087,19.048,55.333,7.334c3.827-1.776,12.279-5.697,13.048-12.266C270.305,194.361,250.457,182.005,243.419,186.192
	z"/>
<rect x="139.304" y="5.565" transform="matrix(0.9417 0.3363 -0.3363 0.9417 43.8849 -41.2335)" fill="#3D3632" width="3.333" height="201"/>
<path fill="#3D3632" d="M112.656,187.454c1.678,0.734,0.746,4.572,0.446,13.611c-0.604,18.246,2.48,24.188-1.642,27.377
	c-4.279,3.312-11.76,0.128-12.96-0.384c-1.376-0.585-7.915-3.368-9.191-8.947c-0.452-1.977-0.396-4.968,10.093-18.34
	C106.845,191.283,110.607,186.557,112.656,187.454z"/>
<path fill="#3D3632" d="M170.26,11.224c0.889-1.489,8.172,0.248,8.386,2.289c0.117,1.122-1.882,2.509-3.745,2.555
	C171.723,16.147,169.614,12.307,170.26,11.224z"/>
<path fill="#7D706C" d="M280.5,224.18c-0.502-0.739-2.74,0.341-17.5,5c-1.048,0.331-2.091,0.678-3.14,1.007
	c-6.234,1.951-7.315,2.011-7.36,2.493c-0.117,1.257,6.856,4.663,13.943,3.332C275.391,234.332,281.51,225.666,280.5,224.18z"/>
</svg>
